<?xml version="1.0" encoding="UTF-8" standalone="no"?>
<!-- Created with Inkscape (http://www.inkscape.org/) -->

<svg
   xmlns:dc="http://purl.org/dc/elements/1.1/"
   xmlns:cc="http://creativecommons.org/ns#"
   xmlns:rdf="http://www.w3.org/1999/02/22-rdf-syntax-ns#"
   xmlns:svg="http://www.w3.org/2000/svg"
   xmlns="http://www.w3.org/2000/svg"
   xmlns:sodipodi="http://sodipodi.sourceforge.net/DTD/sodipodi-0.dtd"
   xmlns:inkscape="http://www.inkscape.org/namespaces/inkscape"
   width="50.530003"
   height="50.351562"
   id="svg4663"
   version="1.1"
   inkscape:version="0.48.5 r10040"
   sodipodi:docname="a+e.svg">
  <defs
     id="defs4665" />
  <sodipodi:namedview
     id="base"
     pagecolor="#ffffff"
     bordercolor="#666666"
     borderopacity="1.0"
     inkscape:pageopacity="0.0"
     inkscape:pageshadow="2"
     inkscape:zoom="0.35"
     inkscape:cx="270.36326"
     inkscape:cy="118.03026"
     inkscape:document-units="px"
     inkscape:current-layer="layer1"
     showgrid="false"
     inkscape:window-width="1596"
     inkscape:window-height="861"
     inkscape:window-x="1680"
     inkscape:window-y="18"
     inkscape:window-maximized="0"
     fit-margin-top="0"
     fit-margin-left="0"
     fit-margin-right="0"
     fit-margin-bottom="0" />
  <metadata
     id="metadata4668">
    <rdf:RDF>
      <cc:Work
         rdf:about="">
        <dc:format>image/svg+xml</dc:format>
        <dc:type
           rdf:resource="http://purl.org/dc/dcmitype/StillImage" />
        <dc:title></dc:title>
      </cc:Work>
    </rdf:RDF>
  </metadata>
  <g
     inkscape:label="Layer 1"
     inkscape:groupmode="layer"
     id="layer1"
     transform="translate(-104.63675,-600.04088)">
    <g
       transform="matrix(1.25,0,0,-1.25,-115.17262,689.02407)"
       id="g4553">
      <g
         transform="translate(211.209,66.1553)"
         id="g3753">
        <path
           inkscape:connector-curvature="0"
           id="path3755"
           style="fill:none;stroke:#231f20;stroke-width:2;stroke-linecap:butt;stroke-linejoin:miter;stroke-miterlimit:10;stroke-opacity:1;stroke-dasharray:none"
           d="m 0,0 c -2.615,2.607 -6.095,4.043 -9.796,4.043 -3.7,0 -7.18,-1.436 -9.797,-4.037 -2.62,-2.608 -4.061,-6.078 -4.061,-9.766 0,-2.886 0.888,-5.617 2.52,-7.931 l -12.528,-12.475 c -0.935,-0.93 -0.938,-2.441 -0.007,-3.375 0.465,-0.467 1.076,-0.701 1.69,-0.701 0.604,0 1.216,0.234 1.68,0.697 l 12.553,12.498 c 2.316,-1.625 5.058,-2.527 7.95,-2.527 3.701,0 7.181,1.435 9.796,4.043 2.62,2.607 4.065,6.078 4.065,9.771 C 4.061,-6.072 2.62,-2.602 0,0 m -3.363,-16.156 c -3.432,-3.414 -9.41,-3.414 -12.847,-0.014 -0.003,0.004 -0.005,0.01 -0.008,0.01 -0.005,0.004 -0.012,0.01 -0.018,0.015 -1.707,1.704 -2.652,3.973 -2.649,6.385 0,2.412 0.944,4.68 2.657,6.385 1.718,1.709 4.001,2.652 6.432,2.652 2.432,0 4.718,-0.943 6.433,-2.652 1.715,-1.705 2.66,-3.973 2.66,-6.385 0,-2.412 -0.945,-4.685 -2.66,-6.396" />
      </g>
    </g>
  </g>
</svg>
