<?xml version="1.0" encoding="utf-8"?>
<!-- Generator: Adobe Illustrator 16.0.0, SVG Export Plug-In . SVG Version: 6.00 Build 0)  -->
<!DOCTYPE svg PUBLIC "-//W3C//DTD SVG 1.1//EN" "http://www.w3.org/Graphics/SVG/1.1/DTD/svg11.dtd">
<svg version="1.1" id="Layer_1" xmlns="http://www.w3.org/2000/svg" xmlns:xlink="http://www.w3.org/1999/xlink" x="0px" y="0px"
	 width="73.025px" height="77.977px" viewBox="0 0 73.025 77.977" enable-background="new 0 0 73.025 77.977" xml:space="preserve">
<line fill="none" stroke="#000000" stroke-width="1.9675" stroke-linecap="round" stroke-linejoin="round" stroke-miterlimit="10" x1="29.282" y1="49.806" x2="47.743" y2="49.808"/>
<path fill="none" stroke="#000000" stroke-width="1.9675" stroke-linecap="round" stroke-linejoin="round" stroke-miterlimit="10" d="
	M42.732,49.806c1.53,0,2.767-1.234,2.767-2.762V34.515c0-4.951-3.161-10.258-3.31-17.174c0.631-0.037,1.135-1.283,1.135-2.059
	c0-0.793-0.51-1.754-1.166-1.754h-7.29c-0.657,0-1.167,0.961-1.167,1.754c0,0.775,0.504,2.021,1.139,2.059
	c-0.151,6.916-3.312,12.223-3.312,17.174v12.529c0,1.527,1.238,2.762,2.768,2.762H42.732z"/>
<polyline fill="none" stroke="#000000" stroke-width="1.9675" stroke-linecap="round" stroke-linejoin="round" stroke-miterlimit="10" points="
	46.502,65.159 44.012,49.808 33.014,49.808 29.819,65.159 "/>
<line fill="none" stroke="#000000" stroke-width="1.9675" stroke-linecap="round" stroke-linejoin="round" stroke-miterlimit="10" x1="33.014" y1="49.808" x2="46.502" y2="65.159"/>
<line fill="none" stroke="#000000" stroke-width="1.9675" stroke-linecap="round" stroke-linejoin="round" stroke-miterlimit="10" x1="30.523" y1="65.159" x2="44.012" y2="49.808"/>
</svg>
