<?xml version="1.0" encoding="utf-8"?>
<!-- Generator: Adobe Illustrator 16.0.0, SVG Export Plug-In . SVG Version: 6.00 Build 0)  -->
<!DOCTYPE svg PUBLIC "-//W3C//DTD SVG 1.1//EN" "http://www.w3.org/Graphics/SVG/1.1/DTD/svg11.dtd">
<svg version="1.1" id="Layer_1" xmlns="http://www.w3.org/2000/svg" xmlns:xlink="http://www.w3.org/1999/xlink" x="0px" y="0px"
	 width="70px" height="70px" viewBox="0 0 70 70" enable-background="new 0 0 70 70" xml:space="preserve">
<circle fill="#F7F8F8" cx="35" cy="35" r="33.777"/>
<g>
	<g>
		<g>
			<path fill="#D71f26" d="M35,0C15.671,0,0,15.67,0,35c0,19.329,15.671,35,35,35s35-15.671,35-35C70,15.67,54.329,0,35,0z
				 M35,67.621C16.984,67.621,2.378,53.016,2.378,35C2.378,16.984,16.984,2.379,35,2.379S67.622,16.984,67.622,35
				C67.622,53.016,53.016,67.621,35,67.621z"/>
		</g>
	</g>
	<g>
		<g>
			<path fill="#D71f26" d="M21.41,55.408c1.309,0.724,2.545,1.407,4.277,1.407c1.731,0,2.968-0.684,4.277-1.407
				c1.425-0.788,2.898-1.604,5.035-1.604c2.135,0,3.608,0.815,5.033,1.604c1.309,0.724,2.545,1.407,4.277,1.407
				c0.001,0,0.001,0,0.001,0l0,0c1.732,0,2.969-0.684,4.276-1.407c1.425-0.788,2.898-1.604,5.035-1.604
				c2.112,0,3.576,0.797,4.985,1.576c0.479-0.553,0.943-1.116,1.383-1.702c-0.749-0.294-1.427-0.664-2.093-1.032
				c-1.308-0.723-2.544-1.406-4.275-1.406s-2.968,0.684-4.276,1.406c-1.425,0.788-2.897,1.604-5.034,1.604h-0.001c0,0,0,0-0.001,0
				c-2.137,0-3.61-0.815-5.035-1.604C37.967,51.924,36.73,51.24,35,51.24c-1.731,0-2.968,0.684-4.276,1.406
				c-1.426,0.788-2.899,1.604-5.036,1.604s-3.61-0.815-5.035-1.604c-1.309-0.723-2.545-1.406-4.275-1.406
				c-1.731,0-2.968,0.684-4.276,1.406c-0.665,0.367-1.344,0.737-2.092,1.031c0.439,0.586,0.904,1.15,1.382,1.703
				c1.41-0.779,2.875-1.576,4.986-1.576C18.512,53.805,19.985,54.62,21.41,55.408z"/>
		</g>
		<g>
			<path fill="#D71f26" d="M25.688,40.283c1.731,0,2.968-0.684,4.277-1.408c1.425-0.787,2.898-1.604,5.035-1.604
				c2.135,0,3.608,0.815,5.033,1.604c1.309,0.724,2.545,1.408,4.277,1.408c0.001,0,0.001,0,0.001,0l0,0
				c1.732,0,2.969-0.684,4.276-1.408c0.293-0.161,0.589-0.322,0.89-0.479v-2.663H20.522v2.663c0.301,0.156,0.596,0.316,0.888,0.479
				C22.719,39.599,23.955,40.283,25.688,40.283z"/>
		</g>
		<g>
			<path fill="#D71f26" d="M12.101,44.38c-1.426,0.788-2.899,1.603-5.036,1.603c-0.472,0-0.908-0.045-1.322-0.115
				c0.339,0.912,0.718,1.805,1.138,2.673c0.062,0.002,0.121,0.009,0.184,0.009c1.732,0,2.968-0.684,4.277-1.406
				c1.425-0.789,2.898-1.604,5.035-1.604c2.135,0,3.608,0.814,5.033,1.603c1.309,0.724,2.545,1.407,4.277,1.407
				c1.731,0,2.968-0.684,4.277-1.406c1.425-0.789,2.898-1.604,5.035-1.604c2.135,0,3.608,0.814,5.033,1.603
				c1.309,0.724,2.545,1.407,4.277,1.407c0.001,0,0.001,0,0.001,0l0,0c1.732,0,2.969-0.684,4.276-1.406
				c1.425-0.789,2.898-1.604,5.035-1.604s3.609,0.814,5.034,1.604c1.309,0.723,2.545,1.406,4.276,1.406c0,0,0,0,0.001,0
				c0,0,0,0,0.001,0c0.063,0,0.121-0.007,0.184-0.009c0.421-0.868,0.799-1.761,1.139-2.673c-0.415,0.07-0.85,0.115-1.322,0.115
				c-0.001,0-0.001,0-0.001,0c-0.001,0-0.001,0-0.001,0c-2.137,0-3.609-0.814-5.035-1.603c-1.308-0.724-2.544-1.407-4.275-1.407
				s-2.968,0.684-4.276,1.407c-1.425,0.788-2.897,1.603-5.034,1.603h-0.001c0,0,0,0-0.001,0c-2.137,0-3.61-0.814-5.035-1.603
				c-1.309-0.724-2.545-1.407-4.275-1.407c-1.731,0-2.968,0.684-4.276,1.407c-1.426,0.788-2.899,1.603-5.036,1.603
				s-3.61-0.814-5.035-1.603c-1.309-0.724-2.545-1.407-4.275-1.407C14.646,42.973,13.409,43.656,12.101,44.38z"/>
		</g>
		<g>
			<path fill="#D71f26" d="M21.41,59.542c1.309,0.724,2.545,1.407,4.277,1.407c1.731,0,2.968-0.684,4.277-1.407
				c1.425-0.788,2.898-1.604,5.035-1.604c2.135,0,3.608,0.815,5.033,1.604c1.309,0.724,2.545,1.407,4.277,1.407
				c0.001,0,0.001,0,0.001,0l0,0c1.732,0,2.969-0.684,4.276-1.407c1.425-0.788,2.898-1.604,5.035-1.604
				c0.811,0,1.524,0.118,2.178,0.307c0.597-0.534,1.169-1.094,1.723-1.672c-1.175-0.642-2.335-1.201-3.9-1.201
				c-1.731,0-2.968,0.684-4.276,1.407c-1.425,0.788-2.897,1.604-5.034,1.604h-0.001c0,0,0,0-0.001,0
				c-2.137,0-3.61-0.815-5.035-1.604c-1.309-0.724-2.545-1.407-4.275-1.407c-1.731,0-2.968,0.684-4.276,1.407
				c-1.426,0.788-2.899,1.604-5.036,1.604s-3.61-0.815-5.035-1.604c-1.309-0.724-2.545-1.407-4.275-1.407
				c-1.565,0-2.726,0.56-3.9,1.201c0.554,0.578,1.126,1.138,1.723,1.672c0.653-0.188,1.367-0.307,2.178-0.307
				C18.512,57.938,19.985,58.754,21.41,59.542z"/>
		</g>
		<g>
			<path fill="#D71f26" d="M53.623,47.105c-1.731,0-2.968,0.684-4.276,1.408c-1.425,0.787-2.897,1.604-5.034,1.604h-0.001
				c0,0,0,0-0.001,0c-2.137,0-3.61-0.816-5.035-1.604c-1.309-0.725-2.545-1.408-4.275-1.408c-1.731,0-2.968,0.684-4.276,1.408
				c-1.426,0.787-2.899,1.604-5.036,1.604s-3.61-0.816-5.035-1.604c-1.309-0.725-2.545-1.408-4.275-1.408
				c-1.731,0-2.968,0.684-4.276,1.408c-1.281,0.707-2.607,1.434-4.413,1.574c0.429,0.774,0.889,1.529,1.38,2.262
				c0.803-0.267,1.527-0.661,2.273-1.073c1.425-0.788,2.898-1.604,5.035-1.604c2.135,0,3.608,0.815,5.033,1.604
				c1.309,0.725,2.545,1.407,4.277,1.407c1.731,0,2.968-0.683,4.277-1.406c1.425-0.788,2.898-1.604,5.035-1.604
				c2.135,0,3.608,0.815,5.033,1.604c1.309,0.725,2.545,1.407,4.277,1.407c0.001,0,0.001,0,0.001,0l0,0
				c1.732,0,2.969-0.683,4.276-1.406c1.425-0.788,2.898-1.604,5.035-1.604s3.609,0.816,5.034,1.604
				c0.746,0.412,1.471,0.807,2.274,1.074c0.492-0.732,0.951-1.488,1.38-2.263c-1.806-0.141-3.132-0.866-4.413-1.574
				C56.591,47.789,55.354,47.105,53.623,47.105z"/>
		</g>
		<g>
			<polygon fill="#D71f26" points="57.03,27.293 51.836,34.167 59.999,34.167 			"/>
		</g>
		<g>
			<path fill="#D71f26" d="M39.275,65.047c-1.309-0.725-2.545-1.408-4.275-1.408c-1.731,0-2.968,0.684-4.276,1.408
				c-0.41,0.227-0.826,0.452-1.259,0.663c1.772,0.318,3.593,0.495,5.453,0.499c0.028,0,0.054-0.003,0.082-0.003
				s0.054,0.003,0.082,0.004c1.86-0.005,3.68-0.181,5.451-0.499C40.101,65.5,39.685,65.273,39.275,65.047z"/>
		</g>
		<g>
			<polygon fill="#D71f26" points="50.439,33.414 55.941,26.134 45.646,22.56 			"/>
		</g>
		<g>
			<path fill="#D71f26" d="M12.101,40.246c-1.426,0.789-2.899,1.604-5.036,1.604c-0.996,0-1.844-0.182-2.615-0.449
				c0.193,0.92,0.426,1.824,0.698,2.712c0.582,0.185,1.207,0.304,1.917,0.304c1.732,0,2.968-0.684,4.277-1.406
				c1.425-0.789,2.898-1.604,5.035-1.604c0.98,0,1.817,0.176,2.578,0.438v-2.455c-0.77-0.324-1.592-0.549-2.578-0.549
				C14.646,38.84,13.409,39.523,12.101,40.246z"/>
		</g>
		<g>
			<path fill="#D71f26" d="M20.522,42.396c0,0.044-0.006,0.086-0.013,0.127c0.305,0.158,0.604,0.321,0.9,0.485
				c1.309,0.724,2.545,1.407,4.277,1.407c1.731,0,2.968-0.684,4.277-1.406c1.425-0.789,2.898-1.604,5.035-1.604
				c2.135,0,3.608,0.814,5.033,1.603c1.309,0.724,2.545,1.407,4.277,1.407c0.001,0,0.001,0,0.001,0l0,0
				c1.732,0,2.969-0.684,4.276-1.406c0.312-0.174,0.629-0.346,0.951-0.512c-0.039-0.094-0.062-0.197-0.062-0.305v-2.019
				c-0.043,0.024-0.086,0.048-0.131,0.071c-1.425,0.789-2.897,1.604-5.034,1.604h-0.001c0,0,0,0-0.001,0
				c-2.137,0-3.61-0.814-5.035-1.604C37.967,39.523,36.73,38.84,35,38.84c-1.731,0-2.968,0.684-4.276,1.406
				c-1.426,0.789-2.899,1.604-5.036,1.604s-3.61-0.814-5.035-1.604c-0.044-0.023-0.087-0.047-0.13-0.07V42.396z"/>
		</g>
		<g>
			<polygon fill="#D71f26" points="10.001,34.167 18.164,34.167 12.97,27.293 			"/>
		</g>
		<g>
			<polygon fill="#D71f26" points="19.561,33.414 24.354,22.56 14.059,26.134 			"/>
		</g>
		<g>
			<path fill="#D71f26" d="M35,62.072c2.135,0,3.608,0.814,5.033,1.603c1.095,0.605,2.143,1.178,3.469,1.351
				c3.96-1.123,7.6-3.008,10.753-5.488c-0.203-0.021-0.413-0.031-0.632-0.031c-1.731,0-2.968,0.684-4.276,1.407
				c-1.425,0.788-2.897,1.604-5.034,1.604h-0.001c0,0,0,0-0.001,0c-2.137,0-3.61-0.815-5.035-1.604
				c-1.309-0.724-2.545-1.407-4.275-1.407c-1.731,0-2.968,0.684-4.276,1.407c-1.426,0.788-2.899,1.604-5.036,1.604
				s-3.61-0.815-5.035-1.604c-1.309-0.724-2.545-1.407-4.275-1.407c-0.219,0-0.429,0.011-0.632,0.031
				c3.153,2.48,6.793,4.365,10.752,5.488c1.325-0.174,2.373-0.745,3.468-1.351C31.39,62.887,32.863,62.072,35,62.072z"/>
		</g>
		<g>
			<path fill="#D71f26" d="M4.126,39.575c0.873,0.409,1.798,0.708,2.938,0.708c1.732,0,2.968-0.684,4.277-1.408
				c1.425-0.787,2.898-1.604,5.035-1.604c0.98,0,1.817,0.177,2.578,0.439v-1.978H3.806C3.836,37.035,3.94,38.317,4.126,39.575z"/>
		</g>
		<g>
			<path fill="#D71f26" d="M51.045,37.711c0.761-0.263,1.598-0.439,2.578-0.439c2.137,0,3.609,0.816,5.034,1.604
				c1.309,0.725,2.545,1.408,4.276,1.408c0,0,0,0,0.001,0c0,0,0,0,0.001,0c1.141,0,2.065-0.299,2.939-0.709
				c0.185-1.257,0.288-2.539,0.318-3.841H51.045V37.711z"/>
		</g>
		<g>
			<path fill="#D71f26" d="M8.294,34.167l3.907-9.046l13.465-4.675h18.668l0.125,0.043l13.34,4.632l3.906,9.046h4.486
				C65.747,17.341,51.932,3.789,35,3.789S4.253,17.341,3.809,34.167H8.294z"/>
		</g>
		<g>
			<polygon fill="#D71f26" points="20.941,34.167 33.531,34.167 25.939,22.847 			"/>
		</g>
		<g>
			<polygon fill="#D71f26" points="36.469,34.167 49.059,34.167 44.061,22.847 			"/>
		</g>
		<g>
			<path fill="#D71f26" d="M62.935,41.85C62.934,41.85,62.934,41.85,62.935,41.85c-2.138,0-3.61-0.814-5.036-1.604
				c-1.308-0.723-2.544-1.406-4.275-1.406c-0.986,0-1.809,0.225-2.578,0.549v2.455c0.761-0.262,1.598-0.438,2.578-0.438
				c2.137,0,3.609,0.814,5.034,1.604c1.309,0.723,2.545,1.406,4.276,1.406c0,0,0,0,0.001,0c0,0,0,0,0.001,0
				c0.71,0,1.334-0.119,1.917-0.305c0.271-0.888,0.506-1.792,0.697-2.712C64.78,41.668,63.932,41.85,62.935,41.85
				C62.935,41.85,62.935,41.85,62.935,41.85z"/>
		</g>
		<g>
			<polygon fill="#D71f26" points="35,33.543 42.733,22.012 27.267,22.012 			"/>
		</g>
	</g>
</g>
</svg>
