<?xml version="1.0" encoding="utf-8"?>
<!-- Generator: Adobe Illustrator 16.0.0, SVG Export Plug-In . SVG Version: 6.00 Build 0)  -->
<!DOCTYPE svg PUBLIC "-//W3C//DTD SVG 1.1//EN" "http://www.w3.org/Graphics/SVG/1.1/DTD/svg11.dtd">
<svg version="1.1" id="Layer_1" xmlns="http://www.w3.org/2000/svg" xmlns:xlink="http://www.w3.org/1999/xlink" x="0px" y="0px"
	 width="80px" height="15px" viewBox="0 -0.5 80 15" enable-background="new 0 -0.5 80 15" xml:space="preserve">
<g>
	<path fill="#D71F26" d="M0.873,9.917h27.755c0.482,0,0.874-0.392,0.874-0.874s-0.392-0.875-0.874-0.875H0.873
		C0.391,8.168,0,8.561,0,9.043S0.391,9.917,0.873,9.917"/>
	<path fill="#D71F26" d="M17.882,5.024c0,0.483,0.393,0.874,0.875,0.874h20.369c0.483,0,0.874-0.39,0.874-0.874
		c0-0.482-0.391-0.874-0.874-0.874H18.757C18.274,4.15,17.882,4.542,17.882,5.024"/>
	<path fill="#D71F26" d="M12.342,12.251c-0.483,0-0.874,0.392-0.874,0.874S11.859,14,12.342,14h8.13
		c0.482,0,0.874-0.393,0.874-0.875s-0.392-0.874-0.874-0.874H12.342z"/>
	<path fill="#D71F26" d="M24.556,12.251c-0.482,0-0.874,0.392-0.874,0.874S24.074,14,24.556,14h12.215
		c0.483,0,0.874-0.393,0.874-0.875s-0.391-0.874-0.874-0.874H24.556z"/>
	<path fill="#D71F26" d="M12.342,1.749h14.534c0.484,0,0.875-0.392,0.875-0.874C27.751,0.392,27.36,0,26.876,0H12.342
		c-0.483,0-0.874,0.392-0.874,0.875C11.468,1.357,11.858,1.749,12.342,1.749"/>
	<path fill="#D71F26" d="M30.962,1.749h4.594c0.483,0,0.874-0.392,0.874-0.874C36.43,0.392,36.039,0,35.556,0h-4.594
		c-0.483,0-0.874,0.392-0.874,0.875C30.088,1.357,30.479,1.749,30.962,1.749"/>
</g>
<g>
	<path fill="#D71F26" d="M79.127,9.917H51.372c-0.481,0-0.874-0.392-0.874-0.874s0.393-0.875,0.874-0.875h27.755
		C79.609,8.168,80,8.561,80,9.043S79.609,9.917,79.127,9.917"/>
	<path fill="#D71F26" d="M62.118,5.024c0,0.483-0.394,0.874-0.875,0.874H40.874C40.391,5.898,40,5.508,40,5.024
		c0-0.482,0.391-0.874,0.874-0.874h20.369C61.727,4.15,62.118,4.542,62.118,5.024"/>
	<path fill="#D71F26" d="M67.658,12.251c0.482,0,0.874,0.392,0.874,0.874S68.141,14,67.658,14h-8.131
		c-0.481,0-0.873-0.393-0.873-0.875s0.392-0.874,0.873-0.874H67.658z"/>
	<path fill="#D71F26" d="M55.443,12.251c0.482,0,0.875,0.392,0.875,0.874S55.926,14,55.443,14H43.229
		c-0.482,0-0.873-0.393-0.873-0.875s0.391-0.874,0.873-0.874H55.443z"/>
	<path fill="#D71F26" d="M67.658,1.749H53.124c-0.483,0-0.875-0.392-0.875-0.874C52.249,0.392,52.641,0,53.124,0h14.534
		c0.482,0,0.874,0.392,0.874,0.875C68.532,1.357,68.143,1.749,67.658,1.749"/>
	<path fill="#D71F26" d="M49.038,1.749h-4.595c-0.482,0-0.873-0.392-0.873-0.874C43.57,0.392,43.961,0,44.443,0h4.595
		c0.483,0,0.874,0.392,0.874,0.875C49.912,1.357,49.521,1.749,49.038,1.749"/>
</g>
</svg>
