<?xml version="1.0" encoding="utf-8"?>
<!-- Generator: Adobe Illustrator 16.0.0, SVG Export Plug-In . SVG Version: 6.00 Build 0)  -->
<!DOCTYPE svg PUBLIC "-//W3C//DTD SVG 1.1//EN" "http://www.w3.org/Graphics/SVG/1.1/DTD/svg11.dtd">
<svg version="1.1" id="Layer_1" xmlns="http://www.w3.org/2000/svg" xmlns:xlink="http://www.w3.org/1999/xlink" x="0px" y="0px"
	 width="70px" height="70px" viewBox="0 0 70 70" enable-background="new 0 0 70 70" xml:space="preserve">
<circle fill="#F7F8F8" cx="35" cy="35" r="33.777"/>
<g>
	<g>
		<g>
			<path fill="#D71f26" d="M35,0C15.671,0,0,15.669,0,34.999C0,54.329,15.671,70,35,70s35-15.671,35-35.001C70,15.669,54.329,0,35,0
				z M35,67.621c-18.016,0-32.62-14.605-32.62-32.622c0-18.016,14.604-32.62,32.62-32.62s32.622,14.604,32.622,32.62
				C67.622,53.016,53.016,67.621,35,67.621z"/>
		</g>
	</g>
	<g>
		<path fill="#D71f26" d="M14.075,35.472c2.409,2.679,5.364,4.732,8.623,6.063c1.044-1.85,1.601-3.938,1.601-6.066
			c0-2.127-0.557-4.215-1.601-6.064C19.438,30.735,16.482,32.791,14.075,35.472z M21.756,35.375
			c-0.419,0.588-1.099,0.939-1.817,0.939c-0.72,0-1.4-0.351-1.82-0.938c-0.15-0.211-0.102-0.505,0.109-0.655
			c0.211-0.151,0.505-0.102,0.655,0.109c0.244,0.341,0.639,0.545,1.056,0.545c0.416,0,0.81-0.204,1.053-0.545
			c0.15-0.211,0.443-0.261,0.654-0.11C21.857,34.87,21.906,35.163,21.756,35.375z"/>
		<polygon fill="#D71f26" points="56.867,41.27 56.867,36.256 52.005,36.256 		"/>
		<path fill="#D71f26" d="M25.839,36.252c-0.105,1.88-0.592,3.715-1.427,5.398c6.641-0.95,10.286-3.768,11.89-5.398H25.839z"/>
		<path fill="#D71f26" d="M31.594,27.653c-2.55,0-5.048,0.414-7.411,1.198c0.974,1.8,1.541,3.792,1.656,5.835h12.141
			c0.285,0,0.547,0.155,0.686,0.404c0.138,0.25,0.129,0.555-0.022,0.796c-0.145,0.229-3.27,5.036-11.793,6.915
			c1.548,0.318,3.135,0.486,4.744,0.486c6.699,0,13.046-2.84,17.52-7.815C44.644,30.494,38.296,27.653,31.594,27.653z"/>
		<polygon fill="#D71f26" points="56.867,29.668 52.004,34.689 56.867,34.689 		"/>
		<g>
			<g>
				<path fill="#D71f26" d="M25.839,36.252c-0.105,1.88-0.592,3.715-1.427,5.398c6.641-0.95,10.286-3.768,11.89-5.398H25.839z"/>
			</g>
			<g>
				<polygon fill="#D71f26" points="56.867,41.27 56.867,36.256 52.005,36.256 				"/>
			</g>
			<g>
				<path fill="#D71f26" d="M31.594,27.653c-2.55,0-5.048,0.414-7.411,1.198c0.974,1.8,1.541,3.792,1.656,5.835h12.141
					c0.285,0,0.547,0.155,0.686,0.404c0.138,0.25,0.129,0.555-0.022,0.796c-0.145,0.229-3.27,5.036-11.793,6.915
					c1.548,0.318,3.135,0.486,4.744,0.486c6.699,0,13.046-2.84,17.52-7.815C44.644,30.494,38.296,27.653,31.594,27.653z"/>
			</g>
			<g>
				<polygon fill="#D71f26" points="56.867,34.689 56.867,29.668 52.004,34.689 				"/>
			</g>
		</g>
		<g>
			<g>
				<path fill="#D71f26" d="M22.698,29.404c-3.26,1.331-6.216,3.386-8.623,6.068c2.409,2.679,5.364,4.732,8.623,6.063
					c1.044-1.85,1.601-3.938,1.601-6.066C24.299,33.341,23.742,31.253,22.698,29.404z M21.756,35.375
					c-0.419,0.588-1.099,0.939-1.817,0.939c-0.72,0-1.4-0.351-1.82-0.938c-0.15-0.211-0.102-0.505,0.109-0.655
					c0.211-0.151,0.505-0.102,0.655,0.109c0.244,0.341,0.639,0.545,1.056,0.545c0.416,0,0.81-0.204,1.053-0.545
					c0.15-0.211,0.443-0.261,0.654-0.11C21.857,34.87,21.906,35.163,21.756,35.375z"/>
			</g>
		</g>
		<g>
			<g>
				<path fill="#D71f26" d="M53.841,58.089c-1.426,0.789-2.899,1.604-5.036,1.604c-2.136,0-3.61-0.816-5.035-1.604
					c-1.309-0.724-2.545-1.407-4.275-1.407c-1.731,0-2.968,0.684-4.276,1.407c-1.426,0.789-2.899,1.604-5.036,1.604
					c-2.138,0-3.611-0.816-5.037-1.604c-1.309-0.724-2.545-1.407-4.274-1.407c-0.433,0-0.784-0.351-0.784-0.783
					c0-0.434,0.352-0.783,0.784-0.783c2.135,0,3.608,0.814,5.033,1.603c1.309,0.725,2.546,1.408,4.278,1.408
					s2.969-0.684,4.277-1.407c1.425-0.789,2.899-1.604,5.035-1.604c2.135,0,3.608,0.814,5.033,1.603
					c1.309,0.725,2.545,1.408,4.277,1.408c1.731,0,2.968-0.684,4.277-1.407c1.425-0.789,2.898-1.604,5.035-1.604
					c0.24,0,0.471,0.013,0.694,0.032c4.611-5.441,7.401-12.474,7.401-20.148c0-5.075-1.226-9.867-3.385-14.107
					c-1.328,0.729-2.736,1.426-4.713,1.426c-2.138,0-3.612-0.815-5.038-1.604c-1.308-0.724-2.544-1.407-4.274-1.407
					c-0.433,0-0.783-0.351-0.783-0.784c0-0.433,0.351-0.784,0.783-0.784c2.135,0,3.608,0.815,5.033,1.603
					c1.31,0.724,2.546,1.408,4.279,1.408c1.595,0,2.77-0.581,3.967-1.237C56.694,10.128,46.577,3.788,35,3.788
					c-8.529,0-16.265,3.444-21.902,9.009c0.036,0.02,0.073,0.04,0.108,0.059c1.31,0.724,2.546,1.408,4.277,1.408h0.001h0.001
					c1.732,0,2.968-0.684,4.276-1.407c1.425-0.788,2.898-1.603,5.034-1.603c2.137,0,3.61,0.815,5.035,1.603
					c1.308,0.724,2.544,1.407,4.275,1.407h0.001h0.001c1.732,0,2.969-0.684,4.277-1.408c1.425-0.788,2.898-1.603,5.033-1.603
					c0.433,0,0.783,0.351,0.783,0.783c0,0.433-0.351,0.784-0.783,0.784c-1.73,0-2.967,0.684-4.275,1.407
					c-1.425,0.788-2.898,1.603-5.035,1.603h-0.001h-0.001c-2.136,0-3.609-0.815-5.034-1.603c-1.309-0.724-2.544-1.407-4.276-1.407
					c-1.731,0-2.968,0.684-4.275,1.407c-1.425,0.788-2.898,1.603-5.035,1.603l0,0h-0.002c-2.136,0-3.61-0.815-5.035-1.603
					c-0.161-0.089-0.322-0.173-0.482-0.26c-2.977,3.258-5.272,7.147-6.662,11.44c0.853,0.393,1.758,0.677,2.868,0.677h0.001h0.001
					c1.732,0,2.969-0.684,4.277-1.408c1.425-0.788,2.898-1.603,5.033-1.603c0.433,0,0.784,0.351,0.784,0.783
					c0,0.433-0.352,0.784-0.784,0.784c-1.73,0-2.967,0.684-4.274,1.407c-1.426,0.789-2.899,1.604-5.036,1.604H8.173H8.172
					c-1.309,0-2.365-0.309-3.317-0.728c-0.691,2.577-1.065,5.282-1.065,8.074c0,6.226,1.84,12.026,4.992,16.901
					c0.865,0.402,1.782,0.694,2.91,0.694h0.001h0.001c1.731,0,2.968-0.684,4.276-1.407c1.425-0.789,2.898-1.604,5.034-1.604
					c2.137,0,3.61,0.815,5.035,1.604c1.308,0.724,2.544,1.407,4.275,1.407h0.001h0.001c1.732,0,2.969-0.685,4.277-1.408
					c1.425-0.788,2.898-1.604,5.033-1.604c0.433,0,0.783,0.351,0.783,0.784c0,0.433-0.351,0.783-0.783,0.783
					c-1.73,0-2.967,0.684-4.274,1.407c-1.426,0.788-2.899,1.604-5.036,1.604h-0.001h-0.001c-2.136,0-3.609-0.814-5.034-1.604
					c-1.309-0.724-2.545-1.407-4.276-1.407s-2.968,0.684-4.275,1.407c-1.425,0.789-2.898,1.604-5.035,1.604l0,0h-0.002
					c-0.502,0-0.965-0.048-1.401-0.128C16.002,61.433,24.951,66.212,35,66.212c8.769,0,16.699-3.64,22.375-9.482
					C56.018,56.892,54.953,57.474,53.841,58.089z M31.594,44.854c-2.943,0-5.819-0.521-8.521-1.497
					c-0.081-0.016-0.157-0.045-0.229-0.084c-3.986-1.482-7.579-3.965-10.406-7.292l-0.431-0.507l0.431-0.507
					c4.786-5.644,11.769-8.88,19.156-8.88c7.1,0,13.819,2.996,18.582,8.238l6.911-7.135c0.223-0.229,0.562-0.301,0.857-0.181
					s0.489,0.407,0.489,0.726v15.47c0,0.319-0.193,0.606-0.489,0.727c-0.095,0.038-0.195,0.057-0.294,0.057
					c-0.208,0-0.412-0.082-0.562-0.237l-6.912-7.128C45.41,41.859,38.69,44.854,31.594,44.854z"/>
			</g>
		</g>
	</g>
</g>
</svg>
