<?xml version="1.0" encoding="utf-8"?>
<!-- Generator: Adobe Illustrator 16.0.0, SVG Export Plug-In . SVG Version: 6.00 Build 0)  -->
<!DOCTYPE svg PUBLIC "-//W3C//DTD SVG 1.1//EN" "http://www.w3.org/Graphics/SVG/1.1/DTD/svg11.dtd">
<svg version="1.1" id="Layer_1" xmlns="http://www.w3.org/2000/svg" xmlns:xlink="http://www.w3.org/1999/xlink" x="0px" y="0px"
	 width="70px" height="70px" viewBox="0 0 70 70" enable-background="new 0 0 70 70" xml:space="preserve">
<circle fill="#F7F8F8" cx="35" cy="35" r="33.777"/>
<g>
	<g>
		<g>
			<path fill="#D71f26" d="M35,0C15.67,0,0,15.67,0,35s15.67,35,35,35c19.33,0,35-15.67,35-35S54.33,0,35,0z M35,67.621
				C16.984,67.621,2.378,53.017,2.378,35C2.378,16.984,16.984,2.379,35,2.379c18.015,0,32.62,14.605,32.62,32.621
				C67.62,53.017,53.016,67.621,35,67.621z"/>
		</g>
	</g>
	<g>
		<g>
			<path fill="#D71f26" d="M31.363,39.054h7.26c0.202-0.092,0.345-0.293,0.345-0.529v-9.756c0-1.594-0.522-3.494-1.075-5.507
				c-0.691-2.514-1.475-5.362-1.517-8.482l-0.004-0.289h-2.759l-0.004,0.289c-0.041,3.12-0.824,5.97-1.516,8.484
				c-0.553,2.012-1.075,3.911-1.075,5.505v9.756C31.019,38.761,31.161,38.962,31.363,39.054z"/>
		</g>
		<g>
			<polygon fill="#D71f26" points="30.187,51.148 35.001,55.305 39.815,51.148 35.001,46.992 			"/>
		</g>
		<g>
			<polygon fill="#D71f26" points="40.548,52.587 36.2,56.34 41.708,61.094 			"/>
		</g>
		<g>
			<path fill="#D71f26" d="M35.001,44.923l4.027-3.478l-0.112-0.824h-0.065c-0.15,0.033-0.306,0.054-0.467,0.054h-6.782
				c-0.161,0-0.316-0.021-0.467-0.054H31.07l-0.11,0.812L35.001,44.923z"/>
		</g>
		<g>
			<path fill="#D71f26" d="M42.279,65.288l-0.252-1.848l-7.026-6.066l-7.045,6.082l-0.257,1.884c0,0,0,0.001,0,0.002
				c2.344,0.564,4.787,0.87,7.302,0.87c2.511,0,4.951-0.306,7.292-0.868C42.289,65.325,42.282,65.308,42.279,65.288z"/>
		</g>
		<g>
			<polygon fill="#D71f26" points="28.276,61.11 33.802,56.34 29.44,52.574 			"/>
		</g>
		<g>
			<polygon fill="#D71f26" points="36.2,45.957 40.103,49.326 39.281,43.298 			"/>
		</g>
		<g>
			<path fill="#D71f26" d="M35,3.788C17.79,3.788,3.787,17.789,3.787,35c0,14.145,9.462,26.115,22.386,29.934l3.315-24.312h-1.681
				c-0.433,0-0.784-0.352-0.784-0.784s0.351-0.783,0.784-0.783h1.717c-0.043-0.17-0.073-0.346-0.073-0.529v-9.756
				c0-3.89,2.52-8.562,2.591-14.01c-0.438-0.072-0.773-0.45-0.773-0.909c0-0.512,0.414-0.926,0.926-0.926h5.596
				c0.513,0,0.927,0.414,0.927,0.926c0,0.459-0.336,0.837-0.775,0.909c0.073,5.447,2.592,10.12,2.592,14.01v9.756
				c0,0.184-0.03,0.359-0.073,0.529h1.718c0.433,0,0.783,0.351,0.783,0.783s-0.351,0.784-0.783,0.784h-1.682l3.316,24.315
				C56.743,61.124,66.211,49.15,66.211,35C66.211,17.789,52.21,3.788,35,3.788z"/>
		</g>
		<g>
			<polygon fill="#D71f26" points="29.881,49.342 33.802,45.957 30.707,43.285 			"/>
		</g>
	</g>
</g>
</svg>
