<?xml version="1.0" encoding="utf-8"?>
<!-- Generator: Adobe Illustrator 16.0.0, SVG Export Plug-In . SVG Version: 6.00 Build 0)  -->
<!DOCTYPE svg PUBLIC "-//W3C//DTD SVG 1.1//EN" "http://www.w3.org/Graphics/SVG/1.1/DTD/svg11.dtd">
<svg version="1.1" id="Layer_1" xmlns="http://www.w3.org/2000/svg" xmlns:xlink="http://www.w3.org/1999/xlink" x="0px" y="0px"
	 width="37px" height="16px" viewBox="0 0 37 16" enable-background="new 0 0 37 16" xml:space="preserve">
<g>
	<path fill="#19191A" d="M24.875,13.288V8.993h1.986c0.55,0,0.992-0.444,0.992-0.993s-0.442-0.993-0.992-0.993h-1.986V2.712
		L34.025,8L24.875,13.288z M36.504,7.14L24.379,0.132c-0.308-0.176-0.684-0.176-0.992,0c-0.306,0.178-0.496,0.506-0.496,0.861v6.014
		H0.992C0.443,7.007,0,7.451,0,8s0.443,0.993,0.992,0.993h21.898v6.015c0,0.354,0.19,0.683,0.496,0.859
		C23.541,15.956,23.712,16,23.883,16c0.172,0,0.343-0.044,0.496-0.133L36.504,8.86C36.812,8.683,37,8.355,37,8
		S36.812,7.317,36.504,7.14"/>
</g>
</svg>
