<?xml version="1.0" encoding="utf-8"?>
<!-- Generator: Adobe Illustrator 16.0.0, SVG Export Plug-In . SVG Version: 6.00 Build 0)  -->
<!DOCTYPE svg PUBLIC "-//W3C//DTD SVG 1.1//EN" "http://www.w3.org/Graphics/SVG/1.1/DTD/svg11.dtd">
<svg version="1.1" id="Layer_1" xmlns="http://www.w3.org/2000/svg" xmlns:xlink="http://www.w3.org/1999/xlink" x="0px" y="0px"
	 width="37px" height="16px" viewBox="0 0 37 16" enable-background="new 0 0 37 16" xml:space="preserve">
<g>
	<path fill="#19191A" d="M2.975,8l9.15-5.288v4.295h-1.986c-0.55,0-0.992,0.444-0.992,0.993s0.442,0.993,0.992,0.993h1.986v4.295
		L2.975,8z M0.496,7.14C0.188,7.317,0,7.645,0,8s0.188,0.683,0.496,0.86l12.125,7.007C12.774,15.956,12.945,16,13.117,16
		c0.171,0,0.342-0.044,0.496-0.133c0.306-0.177,0.496-0.505,0.496-0.859V8.993h21.898C36.557,8.993,37,8.549,37,8
		s-0.443-0.993-0.992-0.993H14.109V0.993c0-0.355-0.19-0.684-0.496-0.861c-0.309-0.176-0.685-0.176-0.992,0L0.496,7.14"/>
</g>
</svg>
