<?xml version="1.0" encoding="utf-8"?>
<!-- Generator: Adobe Illustrator 16.0.0, SVG Export Plug-In . SVG Version: 6.00 Build 0)  -->
<!DOCTYPE svg PUBLIC "-//W3C//DTD SVG 1.1//EN" "http://www.w3.org/Graphics/SVG/1.1/DTD/svg11.dtd">
<svg version="1.1" id="Layer_1" xmlns="http://www.w3.org/2000/svg" xmlns:xlink="http://www.w3.org/1999/xlink" x="0px" y="0px"
	 width="1335px" height="150px" viewBox="0 0 1335 150" enable-background="new 0 0 1335 150" xml:space="preserve">
<g>
	<g>
		<path fill="#19191A" d="M77.24,28.9h36.468c0.445,0,0.807-0.361,0.807-0.807c0-0.444-0.361-0.805-0.807-0.805H77.24
			c-0.445,0-0.806,0.36-0.806,0.805C76.435,28.539,76.795,28.9,77.24,28.9z"/>
		<path fill="#19191A" d="M4.277,40.195h25.769c0.445,0,0.806-0.361,0.806-0.807s-0.36-0.807-0.806-0.807H4.277
			c-0.445,0-0.807,0.361-0.807,0.807S3.832,40.195,4.277,40.195z"/>
		<path fill="#19191A" d="M20.141,35.685c0,0.445,0.36,0.806,0.805,0.806h18.778c0.445,0,0.807-0.36,0.807-0.806
			c0-0.444-0.361-0.806-0.807-0.806H20.945C20.501,34.879,20.141,35.24,20.141,35.685z"/>
		<path fill="#19191A" d="M15.032,42.347c-0.446,0-0.806,0.361-0.806,0.806c0,0.445,0.359,0.807,0.806,0.807h7.495
			c0.445,0,0.806-0.361,0.806-0.807c0-0.444-0.36-0.806-0.806-0.806H15.032z"/>
		<path fill="#19191A" d="M26.292,42.347c-0.444,0-0.806,0.361-0.806,0.806c0,0.445,0.361,0.807,0.806,0.807h11.26
			c0.446,0,0.807-0.361,0.807-0.807c0-0.444-0.36-0.806-0.807-0.806H26.292z"/>
		<path fill="#19191A" d="M80.08,34.818c-0.445,0-0.806,0.361-0.806,0.807c0,0.444,0.36,0.805,0.806,0.805h22.528
			c0.445,0,0.806-0.36,0.806-0.805c0-0.445-0.36-0.807-0.806-0.807H80.08z"/>
		<path fill="#19191A" d="M106.374,36.43h3.761c0.445,0,0.806-0.36,0.806-0.805c0-0.445-0.36-0.807-0.806-0.807h-3.761
			c-0.446,0-0.807,0.361-0.807,0.807C105.567,36.069,105.928,36.43,106.374,36.43z"/>
		<path fill="#19191A" d="M15.032,32.664h13.399c0.445,0,0.807-0.36,0.807-0.806c0-0.444-0.361-0.806-0.807-0.806H15.032
			c-0.444,0-0.806,0.361-0.806,0.806C14.227,32.304,14.588,32.664,15.032,32.664z"/>
		<path fill="#19191A" d="M32.197,32.664h4.235c0.446,0,0.806-0.36,0.806-0.806c0-0.444-0.359-0.806-0.806-0.806h-4.235
			c-0.445,0-0.806,0.361-0.806,0.806C31.392,32.304,31.752,32.664,32.197,32.664z"/>
		<path fill="#19191A" d="M74.081,32.666h15.536c0.445,0,0.807-0.361,0.807-0.807s-0.361-0.807-0.807-0.807H74.081
			c-0.444,0-0.806,0.361-0.806,0.807S73.637,32.666,74.081,32.666z"/>
		<path fill="#19191A" d="M107.691,31.859c0-0.445-0.361-0.807-0.806-0.807H93.383c-0.445,0-0.807,0.361-0.807,0.807
			s0.361,0.807,0.807,0.807h13.503C107.33,32.666,107.691,32.305,107.691,31.859z"/>
		<path fill="#19191A" d="M562.751,81.473h6.359c0.444,0,0.806-0.361,0.806-0.807V68.881c0-0.445-0.361-0.806-0.806-0.806h-6.359
			c-0.444,0-0.806,0.36-0.806,0.806v11.785C561.945,81.111,562.307,81.473,562.751,81.473z M563.558,69.688h4.747v4.305h-4.747
			V69.688z M563.558,75.604h4.747v4.256h-4.747V75.604z"/>
		<path fill="#19191A" d="M577.988,81.473h6.359c0.445,0,0.806-0.361,0.806-0.807V68.881c0-0.445-0.36-0.806-0.806-0.806h-6.359
			c-0.444,0-0.806,0.36-0.806,0.806v11.785C577.183,81.111,577.544,81.473,577.988,81.473z M578.795,69.688h4.746v4.305h-4.746
			V69.688z M578.795,75.604h4.746v4.256h-4.746V75.604z"/>
		<path fill="#19191A" d="M599.662,68.075h-6.359c-0.445,0-0.807,0.36-0.807,0.806v11.785c0,0.445,0.361,0.807,0.807,0.807h6.359
			c0.445,0,0.807-0.361,0.807-0.807V68.881C600.469,68.436,600.107,68.075,599.662,68.075z M598.856,79.859h-4.748v-4.256h4.748
			V79.859z M598.856,73.992h-4.748v-4.305h4.748V73.992z"/>
		<path fill="#19191A" d="M569.916,97.541V85.756c0-0.445-0.361-0.807-0.806-0.807h-6.359c-0.445,0-0.806,0.361-0.806,0.807v11.785
			c0,0.445,0.36,0.806,0.806,0.806h6.359C569.555,98.347,569.916,97.986,569.916,97.541z M568.304,96.734h-4.747v-4.256h4.747
			V96.734z M568.304,90.867h-4.747v-4.305h4.747V90.867z"/>
		<path fill="#19191A" d="M577.988,98.347h6.359c0.445,0,0.806-0.36,0.806-0.806V85.756c0-0.445-0.36-0.807-0.806-0.807h-6.359
			c-0.444,0-0.806,0.361-0.806,0.807v11.785C577.183,97.986,577.544,98.347,577.988,98.347z M578.795,86.562h4.746v4.305h-4.746
			V86.562z M578.795,92.479h4.746v4.256h-4.746V92.479z"/>
		<path fill="#19191A" d="M599.662,84.949h-6.359c-0.445,0-0.807,0.361-0.807,0.807v11.785c0,0.445,0.361,0.806,0.807,0.806h6.359
			c0.445,0,0.807-0.36,0.807-0.806V85.756C600.469,85.311,600.107,84.949,599.662,84.949z M598.856,96.734h-4.748v-4.256h4.748
			V96.734z M598.856,90.867h-4.748v-4.305h4.748V90.867z"/>
		<path fill="#19191A" d="M572.269,47.845h-6.359c-0.445,0-0.807,0.36-0.807,0.806v9.674c0,0.445,0.361,0.807,0.807,0.807h6.359
			c0.445,0,0.807-0.361,0.807-0.807V48.65C573.075,48.205,572.714,47.845,572.269,47.845z M571.463,57.519h-4.748v-8.062h4.748
			V57.519z"/>
		<path fill="#19191A" d="M596.505,47.845h-6.36c-0.444,0-0.806,0.36-0.806,0.806v9.674c0,0.445,0.361,0.807,0.806,0.807h6.36
			c0.445,0,0.806-0.361,0.806-0.807V48.65C597.311,48.205,596.95,47.845,596.505,47.845z M595.699,57.519h-4.748v-8.062h4.748
			V57.519z"/>
		<path fill="#19191A" d="M642.274,97.482h7.063c0.444,0,0.806-0.361,0.806-0.807V85.365c0-0.444-0.361-0.806-0.806-0.806h-7.063
			c-0.445,0-0.806,0.361-0.806,0.806v11.311C641.469,97.121,641.829,97.482,642.274,97.482z M643.08,86.172h5.451v4.043h-5.451
			V86.172z M643.08,91.826h5.451v4.043h-5.451V91.826z"/>
		<path fill="#19191A" d="M630.985,97.482h7.062c0.445,0,0.807-0.361,0.807-0.807V85.365c0-0.444-0.361-0.806-0.807-0.806h-7.062
			c-0.445,0-0.807,0.361-0.807,0.806v11.311C630.179,97.121,630.54,97.482,630.985,97.482z M631.791,86.172h5.45v4.043h-5.45V86.172
			z M631.791,91.826h5.45v4.043h-5.45V91.826z"/>
		<path fill="#19191A" d="M619.695,97.482h7.062c0.445,0,0.806-0.361,0.806-0.807V85.365c0-0.444-0.36-0.806-0.806-0.806h-7.062
			c-0.445,0-0.807,0.361-0.807,0.806v11.311C618.889,97.121,619.25,97.482,619.695,97.482z M620.501,86.172h5.45v4.043h-5.45V86.172
			z M620.501,91.826h5.45v4.043h-5.45V91.826z"/>
		<path fill="#19191A" d="M642.274,129.203h7.063c0.444,0,0.806-0.361,0.806-0.807v-11.31c0-0.445-0.361-0.807-0.806-0.807h-7.063
			c-0.445,0-0.806,0.361-0.806,0.807v11.31C641.469,128.842,641.829,129.203,642.274,129.203z M643.08,117.893h5.451v4.043h-5.451
			V117.893z M643.08,123.548h5.451v4.043h-5.451V123.548z"/>
		<path fill="#19191A" d="M630.985,129.203h7.062c0.445,0,0.807-0.361,0.807-0.807v-11.31c0-0.445-0.361-0.807-0.807-0.807h-7.062
			c-0.445,0-0.806,0.361-0.806,0.807v11.31C630.18,128.842,630.54,129.203,630.985,129.203z M631.791,117.893h5.45v4.043h-5.45
			V117.893z M631.791,123.548h5.45v4.043h-5.45V123.548z"/>
		<path fill="#19191A" d="M619.695,129.202h7.062c0.445,0,0.806-0.36,0.806-0.806v-11.311c0-0.444-0.36-0.806-0.806-0.806h-7.062
			c-0.445,0-0.807,0.361-0.807,0.806v11.311C618.889,128.842,619.25,129.202,619.695,129.202z M620.501,117.893h5.45v4.043h-5.45
			V117.893z M620.501,123.548h5.45v4.043h-5.45V123.548z"/>
		<path fill="#19191A" d="M613.539,77.992c-0.445,0-0.807,0.361-0.807,0.806s0.361,0.806,0.807,0.806h41.954
			c0.445,0,0.807-0.361,0.807-0.806s-0.361-0.806-0.807-0.806H613.539z"/>
		<path fill="#19191A" d="M611.008,75.774c0,0.444,0.361,0.806,0.807,0.806h45.402c0.445,0,0.807-0.361,0.807-0.806
			s-0.361-0.806-0.807-0.806h-45.402C611.369,74.969,611.008,75.33,611.008,75.774z"/>
		<path fill="#19191A" d="M649.441,133.021h-16.162c-0.445,0-0.806,0.36-0.806,0.806v9.781c0,0.444,0.36,0.806,0.806,0.806h16.162
			c0.445,0,0.806-0.361,0.806-0.806v-9.781C650.247,133.382,649.887,133.021,649.441,133.021z M648.636,142.802h-14.551v-8.169
			h14.551V142.802z"/>
		<path fill="#19191A" d="M595.906,99.961h-29.398c-0.445,0-0.807,0.361-0.807,0.806c0,0.445,0.361,0.806,0.807,0.806h29.398
			c0.445,0,0.807-0.36,0.807-0.806C596.713,100.322,596.352,99.961,595.906,99.961z"/>
		<path fill="#19191A" d="M552.436,121.521c0,0.444,0.361,0.806,0.807,0.806h55.93c0.445,0,0.806-0.361,0.806-0.806
			c0-0.445-0.36-0.807-0.806-0.807h-55.93C552.797,120.714,552.436,121.075,552.436,121.521z"/>
		<path fill="#19191A" d="M573.519,126.092h-20.276c-0.445,0-0.807,0.36-0.807,0.807v15.045c0,0.444,0.361,0.806,0.807,0.806h20.276
			c0.445,0,0.806-0.361,0.806-0.806v-15.045C574.324,126.452,573.964,126.092,573.519,126.092z M556.489,141.137h-2.441v-2.148
			h2.441V141.137z M556.489,137.376h-2.441v-2.148h2.441V137.376z M556.489,133.614h-2.441v-2.149h2.441V133.614z M556.489,129.854
			h-2.441v-2.149h2.441V129.854z M560.544,141.137h-2.442v-2.148h2.442V141.137z M560.544,137.375h-2.442v-2.148h2.442V137.375z
			 M560.544,133.614h-2.442v-2.149h2.442V133.614z M560.544,129.854h-2.442v-2.149h2.442V129.854z M564.604,141.137h-2.448v-2.148
			h2.448V141.137z M564.604,137.376h-2.448v-2.148h2.448V137.376z M564.604,133.614h-2.448v-2.149h2.448V133.614z M564.604,129.854
			h-2.448v-2.149h2.448V129.854z M568.657,141.137h-2.441v-2.148h2.441V141.137z M568.657,137.375h-2.441v-2.148h2.441V137.375z
			 M568.657,133.614h-2.441v-2.149h2.441V133.614z M568.657,129.854h-2.441v-2.149h2.441V129.854z M572.713,141.137h-2.443v-2.148
			h2.443V141.137z M572.713,137.375h-2.443v-2.148h2.443V137.375z M572.713,133.614h-2.443v-2.149h2.443V133.614z M572.713,129.854
			h-2.443v-2.149h2.443V129.854z"/>
		<path fill="#19191A" d="M608.857,126.092H588.58c-0.445,0-0.807,0.361-0.807,0.806v15.045c0,0.446,0.361,0.807,0.807,0.807h20.277
			c0.444,0,0.806-0.36,0.806-0.807v-15.045C609.663,126.453,609.302,126.092,608.857,126.092z M591.829,141.137h-2.443v-2.148h2.443
			V141.137z M591.829,137.376h-2.443v-2.149h2.443V137.376z M591.829,133.615h-2.443v-2.149h2.443V133.615z M591.829,129.853h-2.443
			v-2.148h2.443V129.853z M595.883,141.137h-2.441v-2.148h2.441V141.137z M595.883,137.376h-2.441v-2.149h2.441V137.376z
			 M595.883,133.615h-2.441v-2.149h2.441V133.615z M595.883,129.853h-2.441v-2.148h2.441V129.853z M599.943,141.137h-2.448v-2.148
			h2.448V141.137z M599.943,137.376h-2.448v-2.149h2.448V137.376z M599.943,133.614h-2.448v-2.149h2.448V133.614z M599.943,129.853
			h-2.448v-2.148h2.448V129.853z M603.997,141.137h-2.442v-2.148h2.442V141.137z M603.997,137.376h-2.442v-2.149h2.442V137.376z
			 M603.997,133.615h-2.442v-2.149h2.442V133.615z M603.997,129.853h-2.442v-2.148h2.442V129.853z M608.051,141.137h-2.441v-2.148
			h2.441V141.137z M608.051,137.376h-2.441v-2.149h2.441V137.376z M608.051,133.614h-2.441v-2.149h2.441V133.614z M608.051,129.853
			h-2.441v-2.148h2.441V129.853z"/>
		<path fill="#19191A" d="M581.207,117.526c2.076,0,3.701-2.145,3.701-4.882c0-2.736-1.625-4.881-3.701-4.881
			s-3.703,2.145-3.703,4.881C577.504,115.382,579.131,117.526,581.207,117.526z M581.207,109.376c1.132,0,2.09,1.497,2.09,3.269
			c0,1.772-0.958,3.27-2.09,3.27c-1.134,0-2.091-1.497-2.091-3.27C579.116,110.873,580.073,109.376,581.207,109.376z"/>
		<path fill="#19191A" d="M445.358,101.738h-9.017c-0.444,0-0.806,0.361-0.806,0.807v14.114c0,0.445,0.361,0.807,0.806,0.807h9.017
			c0.445,0,0.806-0.361,0.806-0.807v-14.114C446.164,102.1,445.804,101.738,445.358,101.738z M444.552,115.854h-7.403v-12.503h7.403
			V115.854z"/>
		<path fill="#19191A" d="M465.518,101.738h-9.016c-0.446,0-0.807,0.361-0.807,0.807v14.114c0,0.445,0.36,0.807,0.807,0.807h9.016
			c0.445,0,0.807-0.361,0.807-0.807v-14.114C466.324,102.1,465.963,101.738,465.518,101.738z M464.712,115.854h-7.404v-12.503h7.404
			V115.854z"/>
		<path fill="#19191A" d="M485.523,101.738h-9.017c-0.445,0-0.806,0.361-0.806,0.807v14.114c0,0.445,0.36,0.807,0.806,0.807h9.017
			c0.445,0,0.807-0.361,0.807-0.807v-14.114C486.33,102.1,485.969,101.738,485.523,101.738z M484.718,115.854h-7.405v-12.503h7.405
			V115.854z"/>
		<path fill="#19191A" d="M445.358,123.366h-9.017c-0.444,0-0.806,0.361-0.806,0.806v14.115c0,0.445,0.361,0.807,0.806,0.807h9.017
			c0.445,0,0.806-0.361,0.806-0.807v-14.115C446.164,123.728,445.804,123.366,445.358,123.366z M444.552,137.481h-7.403v-12.503
			h7.403V137.481z"/>
		<path fill="#19191A" d="M465.518,123.366h-9.016c-0.446,0-0.807,0.361-0.807,0.806v14.115c0,0.445,0.36,0.807,0.807,0.807h9.016
			c0.445,0,0.807-0.361,0.807-0.807v-14.115C466.324,123.728,465.963,123.366,465.518,123.366z M464.712,137.481h-7.404v-12.503
			h7.404V137.481z"/>
		<path fill="#19191A" d="M485.523,123.366h-9.016c-0.445,0-0.806,0.361-0.806,0.806v14.115c0,0.445,0.36,0.807,0.806,0.807h9.016
			c0.446,0,0.807-0.361,0.807-0.807v-14.115C486.33,123.728,485.97,123.366,485.523,123.366z M484.718,137.481h-7.404v-12.503h7.404
			V137.481z"/>
		<path fill="#19191A" d="M489.442,79.517h61.534c0.445,0,0.807-0.36,0.807-0.806s-0.361-0.807-0.807-0.807h-61.534
			c-0.445,0-0.807,0.361-0.807,0.807S488.997,79.517,489.442,79.517z"/>
		<path fill="#19191A" d="M500.604,123.395h8.898c0.444,0,0.806-0.361,0.806-0.807V110.04c0-0.444-0.361-0.806-0.806-0.806h-8.898
			c-0.446,0-0.806,0.361-0.806,0.806v12.548C499.798,123.033,500.157,123.395,500.604,123.395z M505.858,110.846h2.837v2.57h-2.837
			V110.846z M505.858,115.028h2.837v2.573h-2.837V115.028z M505.858,119.212h2.837v2.57h-2.837V119.212z M501.409,110.846h2.837
			v2.57h-2.837V110.846z M501.409,115.028h2.837v2.573h-2.837V115.028z M501.409,119.212h2.837v2.57h-2.837V119.212z"/>
		<path fill="#19191A" d="M530.959,123.395h8.897c0.445,0,0.806-0.361,0.806-0.807V110.04c0-0.444-0.36-0.806-0.806-0.806h-8.897
			c-0.445,0-0.806,0.361-0.806,0.806v12.548C530.153,123.033,530.514,123.395,530.959,123.395z M536.214,110.846h2.837v2.57h-2.837
			V110.846z M536.214,115.028h2.837v2.573h-2.837V115.028z M536.214,119.212h2.837v2.57h-2.837V119.212z M531.766,110.846h2.837
			v2.57h-2.837V110.846z M531.766,115.028h2.837v2.573h-2.837V115.028z M531.766,119.212h2.837v2.57h-2.837V119.212z"/>
		<path fill="#19191A" d="M515.781,123.395h8.898c0.444,0,0.806-0.361,0.806-0.807V110.04c0-0.444-0.361-0.806-0.806-0.806h-8.898
			c-0.444,0-0.806,0.361-0.806,0.806v12.548C514.976,123.033,515.337,123.395,515.781,123.395z M521.036,110.846h2.837v2.57h-2.837
			V110.846z M521.036,115.028h2.837v2.573h-2.837V115.028z M521.036,119.212h2.837v2.57h-2.837V119.212z M516.588,110.846h2.837
			v2.57h-2.837V110.846z M516.588,115.028h2.837v2.573h-2.837V115.028z M516.588,119.212h2.837v2.57h-2.837V119.212z"/>
		<path fill="#19191A" d="M500.604,104.931h8.898c0.444,0,0.806-0.36,0.806-0.806V91.576c0-0.444-0.361-0.805-0.806-0.805h-8.898
			c-0.446,0-0.806,0.36-0.806,0.805v12.549C499.798,104.57,500.157,104.931,500.604,104.931z M505.858,92.383h2.837v2.57h-2.837
			V92.383z M505.858,96.564h2.837v2.573h-2.837V96.564z M505.858,100.749h2.837v2.569h-2.837V100.749z M501.409,92.383h2.837v2.57
			h-2.837V92.383z M501.409,96.564h2.837v2.573h-2.837V96.564z M501.409,100.749h2.837v2.569h-2.837V100.749z"/>
		<path fill="#19191A" d="M530.959,104.931h8.897c0.445,0,0.806-0.36,0.806-0.806V91.576c0-0.444-0.36-0.805-0.806-0.805h-8.897
			c-0.445,0-0.806,0.36-0.806,0.805v12.549C530.153,104.57,530.514,104.931,530.959,104.931z M536.214,92.383h2.837v2.57h-2.837
			V92.383z M536.214,96.564h2.837v2.573h-2.837V96.564z M536.214,100.749h2.837v2.569h-2.837V100.749z M531.766,92.383h2.837v2.57
			h-2.837V92.383z M531.766,96.564h2.837v2.573h-2.837V96.564z M531.766,100.749h2.837v2.569h-2.837V100.749z"/>
		<path fill="#19191A" d="M515.781,104.931h8.898c0.444,0,0.806-0.36,0.806-0.806V91.576c0-0.444-0.361-0.805-0.806-0.805h-8.898
			c-0.444,0-0.806,0.36-0.806,0.805v12.549C514.976,104.57,515.337,104.931,515.781,104.931z M521.036,92.383h2.837v2.57h-2.837
			V92.383z M521.036,96.564h2.837v2.573h-2.837V96.564z M521.036,100.749h2.837v2.569h-2.837V100.749z M516.588,92.383h2.837v2.57
			h-2.837V92.383z M516.588,96.564h2.837v2.573h-2.837V96.564z M516.588,100.749h2.837v2.569h-2.837V100.749z"/>
		<path fill="#19191A" d="M300.895,139.892c0.446,0,0.807-0.361,0.807-0.807v-4.208c0-0.444-0.36-0.806-0.807-0.806
			c-0.444,0-0.806,0.361-0.806,0.806v4.208C300.089,139.53,300.45,139.892,300.895,139.892z"/>
		<path fill="#19191A" d="M306.052,139.892c0.445,0,0.807-0.361,0.807-0.807v-4.208c0-0.444-0.361-0.806-0.807-0.806
			s-0.806,0.361-0.806,0.806v4.208C305.246,139.53,305.606,139.892,306.052,139.892z"/>
		<path fill="#19191A" d="M311.208,139.892c0.445,0,0.807-0.361,0.807-0.807v-4.208c0-0.444-0.361-0.806-0.807-0.806
			c-0.444,0-0.806,0.361-0.806,0.806v4.208C310.402,139.53,310.764,139.892,311.208,139.892z"/>
		<path fill="#19191A" d="M316.365,139.892c0.445,0,0.806-0.361,0.806-0.807v-4.208c0-0.444-0.36-0.806-0.806-0.806
			c-0.446,0-0.807,0.361-0.807,0.806v4.208C315.559,139.53,315.919,139.892,316.365,139.892z"/>
		<path fill="#19191A" d="M321.521,139.892c0.445,0,0.806-0.361,0.806-0.807v-4.208c0-0.444-0.36-0.806-0.806-0.806
			s-0.806,0.361-0.806,0.806v4.208C320.716,139.53,321.076,139.892,321.521,139.892z"/>
		<path fill="#19191A" d="M326.678,139.892c0.446,0,0.806-0.361,0.806-0.807v-4.208c0-0.444-0.359-0.806-0.806-0.806
			c-0.445,0-0.806,0.361-0.806,0.806v4.208C325.872,139.53,326.232,139.892,326.678,139.892z"/>
		<path fill="#19191A" d="M194.645,106.669h9.018c0.445,0,0.806-0.36,0.806-0.806v-12.1c0-0.445-0.36-0.806-0.806-0.806h-9.018
			c-0.445,0-0.806,0.36-0.806,0.806v12.1C193.839,106.309,194.199,106.669,194.645,106.669z M195.451,94.57h7.405v4.438h-7.405
			V94.57z M195.451,100.62h7.405v4.437h-7.405V100.62z"/>
		<path fill="#19191A" d="M193.176,109.896h11.955c0.445,0,0.807-0.361,0.807-0.807s-0.361-0.806-0.807-0.806h-11.955
			c-0.445,0-0.807,0.36-0.807,0.806S192.73,109.896,193.176,109.896z"/>
		<path fill="#19191A" d="M217.356,106.669h9.017c0.445,0,0.807-0.36,0.807-0.806v-12.1c0-0.445-0.361-0.806-0.807-0.806h-9.017
			c-0.445,0-0.806,0.36-0.806,0.806v12.1C216.551,106.309,216.911,106.669,217.356,106.669z M218.162,94.57h7.405v4.438h-7.405
			V94.57z M218.162,100.62h7.405v4.437h-7.405V100.62z"/>
		<path fill="#19191A" d="M215.887,109.896h11.956c0.445,0,0.806-0.361,0.806-0.807s-0.36-0.806-0.806-0.806h-11.956
			c-0.444,0-0.806,0.36-0.806,0.806S215.442,109.896,215.887,109.896z"/>
		<path fill="#19191A" d="M205.268,69.88c0,0.445,0.361,0.806,0.807,0.806h36.958c0.444,0,0.806-0.36,0.806-0.806
			c0-0.444-0.361-0.806-0.806-0.806h-36.958C205.629,69.074,205.268,69.436,205.268,69.88z"/>
		<path fill="#19191A" d="M198.662,66.921h29.932c0.445,0,0.807-0.36,0.807-0.806s-0.361-0.807-0.807-0.807h-29.932
			c-0.445,0-0.807,0.361-0.807,0.807S198.217,66.921,198.662,66.921z"/>
		<path fill="#19191A" d="M203.385,63.156h13.399c0.445,0,0.807-0.361,0.807-0.807s-0.361-0.806-0.807-0.806h-13.399
			c-0.445,0-0.807,0.36-0.807,0.806S202.939,63.156,203.385,63.156z"/>
		<path fill="#19191A" d="M220.55,63.156h4.235c0.446,0,0.806-0.361,0.806-0.807s-0.359-0.806-0.806-0.806h-4.235
			c-0.446,0-0.806,0.36-0.806,0.806S220.104,63.156,220.55,63.156z"/>
		<path fill="#19191A" d="M140.02,98.452h37.613c0.444,0,0.806-0.36,0.806-0.806s-0.361-0.807-0.806-0.807H140.02
			c-0.446,0-0.806,0.361-0.806,0.807S139.573,98.452,140.02,98.452z"/>
		<path fill="#19191A" d="M173.647,139.5c0.445,0,0.806-0.361,0.806-0.806v-17.199c0-0.446-0.36-0.807-0.806-0.807h-8.564
			c-0.446,0-0.806,0.36-0.806,0.807v17.199c0,0.444,0.359,0.806,0.806,0.806H173.647z M165.89,122.301h6.951v15.587h-6.951V122.301z
			"/>
		<path fill="#19191A" d="M173.648,141.388h-8.565c-0.444,0-0.806,0.361-0.806,0.807c0,0.444,0.361,0.806,0.806,0.806h8.565
			c0.444,0,0.806-0.361,0.806-0.806C174.454,141.749,174.093,141.388,173.648,141.388z"/>
		<path fill="#19191A" d="M173.648,144.888h-8.565c-0.444,0-0.806,0.361-0.806,0.807c0,0.444,0.361,0.806,0.806,0.806h8.565
			c0.444,0,0.806-0.361,0.806-0.806C174.454,145.249,174.093,144.888,173.648,144.888z"/>
		<path fill="#19191A" d="M170.558,124.046h-2.384c-0.445,0-0.806,0.361-0.806,0.806c0,0.445,0.36,0.807,0.806,0.807h2.384
			c0.445,0,0.807-0.361,0.807-0.807C171.364,124.407,171.003,124.046,170.558,124.046z"/>
		<path fill="#19191A" d="M133.129,38.169h61.534c0.445,0,0.806-0.361,0.806-0.806c0-0.445-0.36-0.807-0.806-0.807h-61.534
			c-0.444,0-0.806,0.361-0.806,0.807C132.323,37.808,132.685,38.169,133.129,38.169z"/>
		<path fill="#19191A" d="M152.283,120.688h-7.993c-0.445,0-0.806,0.361-0.806,0.806v10.3c0,0.444,0.36,0.806,0.806,0.806h7.993
			c0.445,0,0.806-0.361,0.806-0.806v-10.3C153.089,121.05,152.729,120.688,152.283,120.688z M151.478,130.987h-6.382v-3.537h6.382
			V130.987z M151.478,125.838h-6.382v-3.537h6.382V125.838z"/>
		<path fill="#19191A" d="M152.283,102.449h-7.993c-0.445,0-0.806,0.361-0.806,0.806v10.3c0,0.444,0.36,0.805,0.806,0.805h7.993
			c0.445,0,0.806-0.36,0.806-0.805v-10.3C153.089,102.811,152.729,102.449,152.283,102.449z M151.478,112.748h-6.382v-3.537h6.382
			V112.748z M151.478,107.598h-6.382v-3.537h6.382V107.598z"/>
		<path fill="#19191A" d="M74.669,146.164h8.278c0.445,0,0.806-0.36,0.806-0.807v-15.99c0-0.445-0.36-0.807-0.806-0.807h-8.278
			c-0.444,0-0.806,0.361-0.806,0.807v15.99C73.863,145.804,74.225,146.164,74.669,146.164z M75.476,130.173h6.666v14.379h-6.666
			V130.173z"/>
		<path fill="#19191A" d="M54.138,99.065c0,0.444,0.361,0.806,0.806,0.806H78.94c0.445,0,0.807-0.361,0.807-0.806
			c0-0.445-0.361-0.806-0.807-0.806H54.943C54.499,98.26,54.138,98.62,54.138,99.065z"/>
		<path fill="#19191A" d="M69.168,95.925h6.638c0.445,0,0.806-0.36,0.806-0.806s-0.36-0.807-0.806-0.807h-6.638
			c-0.444,0-0.806,0.361-0.806,0.807S68.724,95.925,69.168,95.925z"/>
		<path fill="#19191A" d="M74.954,122.183h7.992c0.446,0,0.806-0.36,0.806-0.806v-10.299c0-0.445-0.359-0.807-0.806-0.807h-7.992
			c-0.446,0-0.806,0.361-0.806,0.807v10.299C74.148,121.822,74.508,122.183,74.954,122.183z M75.761,111.884h6.38v3.537h-6.38
			V111.884z M75.761,117.034h6.38v3.537h-6.38V117.034z"/>
		<path fill="#19191A" d="M53.924,122.184h7.993c0.444,0,0.806-0.361,0.806-0.807v-10.299c0-0.445-0.361-0.806-0.806-0.806h-7.993
			c-0.445,0-0.806,0.36-0.806,0.806v10.299C53.118,121.822,53.479,122.184,53.924,122.184z M54.729,111.885h6.381v3.537h-6.381
			V111.885z M54.729,117.034h6.381v3.537h-6.381V117.034z"/>
		<path fill="#19191A" d="M53.924,141.934h7.993c0.444,0,0.806-0.361,0.806-0.806v-10.3c0-0.444-0.361-0.806-0.806-0.806h-7.993
			c-0.445,0-0.806,0.361-0.806,0.806v10.3C53.118,141.572,53.479,141.934,53.924,141.934z M54.729,131.635h6.381v3.537h-6.381
			V131.635z M54.729,136.784h6.381v3.537h-6.381V136.784z"/>
		<path fill="#19191A" d="M56.117,55.697H39.771c-0.445,0-0.807,0.36-0.807,0.806v16.346c0,0.446,0.361,0.806,0.807,0.806h16.347
			c0.445,0,0.806-0.359,0.806-0.806V56.503C56.923,56.058,56.562,55.697,56.117,55.697z M43.051,72.043h-2.475v-3.836h2.475V72.043z
			 M43.051,66.596h-2.475v-3.839h2.475V66.596z M43.051,61.145h-2.475v-3.836h2.475V61.145z M47.139,72.043h-2.476v-3.836h2.476
			V72.043z M47.139,66.596h-2.476v-3.839h2.476V66.596z M47.139,61.145h-2.476v-3.836h2.476V61.145z M51.225,72.043h-2.476v-3.836
			h2.476V72.043z M51.225,66.596h-2.476v-3.839h2.476V66.596z M51.225,61.145h-2.476v-3.836h2.476V61.145z M55.312,72.043h-2.476
			v-3.836h2.476V72.043z M55.312,66.596h-2.476v-3.839h2.476V66.596z M55.312,61.145h-2.476v-3.836h2.476V61.145z"/>
		<path fill="#19191A" d="M67.894,73.654h16.346c0.445,0,0.807-0.359,0.807-0.806V56.503c0-0.445-0.361-0.806-0.807-0.806H67.894
			c-0.446,0-0.806,0.36-0.806,0.806v16.346C67.088,73.295,67.447,73.654,67.894,73.654z M80.959,57.309h2.475v3.836h-2.475V57.309z
			 M80.959,62.757h2.475v3.839h-2.475V62.757z M80.959,68.207h2.475v3.836h-2.475V68.207z M76.872,57.309h2.475v3.836h-2.475V57.309
			z M76.872,62.757h2.475v3.839h-2.475V62.757z M76.872,68.207h2.475v3.836h-2.475V68.207z M72.787,57.309h2.474v3.836h-2.474
			V57.309z M72.787,62.757h2.474v3.839h-2.474V62.757z M72.787,68.207h2.474v3.836h-2.474V68.207z M68.698,57.309h2.476v3.836
			h-2.476V57.309z M68.698,62.757h2.476v3.839h-2.476V62.757z M68.698,68.207h2.476v3.836h-2.476V68.207z"/>
		<path fill="#19191A" d="M28.967,87.877h-7.992c-0.446,0-0.807,0.361-0.807,0.807v10.299c0,0.444,0.36,0.806,0.807,0.806h7.992
			c0.445,0,0.806-0.361,0.806-0.806V88.684C29.772,88.238,29.412,87.877,28.967,87.877z M28.16,98.176h-6.38v-3.537h6.38V98.176z
			 M28.16,93.025h-6.38v-3.537h6.38V93.025z"/>
		<path fill="#19191A" d="M27.734,127.83v17.588c0,0.445,0.361,0.806,0.807,0.806h10.507c0.445,0,0.807-0.36,0.807-0.806V127.83
			c0-0.445-0.361-0.807-0.807-0.807H28.541C28.096,127.023,27.734,127.385,27.734,127.83z M29.346,128.636h8.896v15.976h-8.896
			V128.636z"/>
		<path fill="#19191A" d="M28.991,111.078v10.299c0,0.445,0.361,0.806,0.806,0.806h7.993c0.445,0,0.807-0.36,0.807-0.806v-10.299
			c0-0.445-0.361-0.807-0.807-0.807h-7.993C29.353,110.271,28.991,110.633,28.991,111.078z M30.604,111.884h6.381v3.537h-6.381
			V111.884z M30.604,117.034h6.381v3.537h-6.381V117.034z"/>
		<path fill="#19191A" d="M120.131,122.183h7.992c0.446,0,0.806-0.36,0.806-0.806v-10.299c0-0.445-0.359-0.807-0.806-0.807h-7.992
			c-0.446,0-0.806,0.361-0.806,0.807v10.299C119.325,121.822,119.685,122.183,120.131,122.183z M120.937,111.884h6.381v3.537h-6.381
			V111.884z M120.937,117.034h6.381v3.537h-6.381V117.034z"/>
		<path fill="#19191A" d="M107.072,110.272h-7.991c-0.446,0-0.807,0.36-0.807,0.806v10.299c0,0.445,0.36,0.807,0.807,0.807h7.991
			c0.445,0,0.807-0.361,0.807-0.807v-10.299C107.879,110.633,107.518,110.272,107.072,110.272z M106.267,120.571h-6.38v-3.537h6.38
			V120.571z M106.267,115.422h-6.38v-3.537h6.38V115.422z"/>
		<path fill="#19191A" d="M120.131,141.934h7.993c0.445,0,0.807-0.361,0.807-0.806v-10.3c0-0.444-0.361-0.806-0.807-0.806h-7.993
			c-0.444,0-0.806,0.361-0.806,0.806v10.3C119.325,141.572,119.687,141.934,120.131,141.934z M120.938,131.635h6.381v3.537h-6.381
			V131.635z M120.938,136.784h6.381v3.537h-6.381V136.784z"/>
		<path fill="#19191A" d="M120.131,102.433h7.992c0.446,0,0.806-0.361,0.806-0.806V91.328c0-0.445-0.359-0.807-0.806-0.807h-7.992
			c-0.446,0-0.806,0.361-0.806,0.807v10.299C119.325,102.071,119.685,102.433,120.131,102.433z M120.937,92.133h6.381v3.537h-6.381
			V92.133z M120.937,97.283h6.381v3.537h-6.381V97.283z"/>
		<path fill="#19191A" d="M107.073,90.521H99.08c-0.445,0-0.807,0.361-0.807,0.807v10.299c0,0.444,0.361,0.806,0.807,0.806h7.993
			c0.444,0,0.806-0.361,0.806-0.806V91.328C107.879,90.883,107.518,90.521,107.073,90.521z M106.267,100.82h-6.381v-3.537h6.381
			V100.82z M106.267,95.67h-6.381v-3.537h6.381V95.67z"/>
		<path fill="#19191A" d="M120.131,82.682h7.992c0.446,0,0.806-0.36,0.806-0.806V71.577c0-0.444-0.359-0.806-0.806-0.806h-7.992
			c-0.446,0-0.806,0.361-0.806,0.806v10.299C119.325,82.321,119.685,82.682,120.131,82.682z M120.937,72.383h6.381v3.537h-6.381
			V72.383z M120.937,77.533h6.381v3.537h-6.381V77.533z"/>
		<path fill="#19191A" d="M95.084,82.682h3.996h7.992h3.996c0.445,0,0.807-0.36,0.807-0.806v-5.149c0-0.445-0.361-0.806-0.807-0.806
			h-3.189v-4.344c0-0.444-0.361-0.806-0.807-0.806H99.08c-0.445,0-0.807,0.361-0.807,0.806v4.344h-3.189
			c-0.445,0-0.807,0.36-0.807,0.806v5.149C94.277,82.321,94.639,82.682,95.084,82.682z M107.879,77.533h2.385v3.537h-2.385V77.533z
			 M106.267,81.07h-2.384v-3.537h2.384V81.07z M99.886,72.383h6.381v3.537h-6.381V72.383z M99.886,77.533h2.385v3.537h-2.385V77.533
			z M95.889,77.533h2.385v3.537h-2.385V77.533z"/>
		<path fill="#19191A" d="M177.357,107.598h-3.19v-4.342c0-0.447-0.359-0.807-0.806-0.807h-7.992c-0.445,0-0.806,0.359-0.806,0.807
			v4.342h-3.191c-0.444,0-0.806,0.361-0.806,0.807v5.148c0,0.447,0.361,0.807,0.806,0.807h3.997h7.992h3.996
			c0.446,0,0.806-0.359,0.806-0.807v-5.148C178.163,107.959,177.804,107.598,177.357,107.598z M164.563,112.747h-2.384v-3.536h2.384
			V112.747z M168.56,112.747h-2.384v-3.536h2.384V112.747z M172.556,112.747h-2.384v-3.536h2.384V112.747z M172.556,107.598h-6.38
			v-3.536h6.38V107.598z M176.552,112.747h-2.385v-3.536h2.385V112.747z"/>
		<path fill="#19191A" d="M153.188,67.887h-8.897c-0.444,0-0.806,0.36-0.806,0.805V81.24c0,0.445,0.361,0.806,0.806,0.806h8.897
			c0.446,0,0.806-0.36,0.806-0.806V68.691C153.993,68.247,153.634,67.887,153.188,67.887z M147.934,80.434h-2.837v-2.569h2.837
			V80.434z M147.934,76.253h-2.837V73.68h2.837V76.253z M147.934,72.068h-2.837v-2.57h2.837V72.068z M152.383,80.434h-2.837v-2.569
			h2.837V80.434z M152.383,76.253h-2.837V73.68h2.837V76.253z M152.383,72.068h-2.837v-2.57h2.837V72.068z"/>
		<path fill="#19191A" d="M183.544,67.887h-8.898c-0.445,0-0.806,0.36-0.806,0.805V81.24c0,0.445,0.36,0.806,0.806,0.806h8.898
			c0.445,0,0.806-0.36,0.806-0.806V68.691C184.35,68.247,183.989,67.887,183.544,67.887z M178.288,80.434h-2.837v-2.569h2.837
			V80.434z M178.288,76.253h-2.837V73.68h2.837V76.253z M178.288,72.068h-2.837v-2.57h2.837V72.068z M182.737,80.434H179.9v-2.569
			h2.837V80.434z M182.737,76.253H179.9V73.68h2.837V76.253z M182.737,72.068H179.9v-2.57h2.837V72.068z"/>
		<path fill="#19191A" d="M168.366,67.887h-8.898c-0.444,0-0.806,0.36-0.806,0.805V81.24c0,0.445,0.361,0.806,0.806,0.806h8.898
			c0.445,0,0.806-0.36,0.806-0.806V68.691C169.172,68.247,168.812,67.887,168.366,67.887z M163.111,80.434h-2.837v-2.569h2.837
			V80.434z M163.111,76.253h-2.837V73.68h2.837V76.253z M163.111,72.068h-2.837v-2.57h2.837V72.068z M167.56,80.434h-2.837v-2.569
			h2.837V80.434z M167.56,76.253h-2.837V73.68h2.837V76.253z M167.56,72.068h-2.837v-2.57h2.837V72.068z"/>
		<path fill="#19191A" d="M153.188,49.423h-8.897c-0.444,0-0.806,0.36-0.806,0.806v12.549c0,0.444,0.361,0.806,0.806,0.806h8.897
			c0.446,0,0.806-0.361,0.806-0.806V50.229C153.993,49.783,153.634,49.423,153.188,49.423z M147.934,61.971h-2.837V59.4h2.837
			V61.971z M147.934,57.79h-2.837v-2.573h2.837V57.79z M147.934,53.605h-2.837v-2.57h2.837V53.605z M152.383,61.971h-2.837V59.4
			h2.837V61.971z M152.383,57.79h-2.837v-2.573h2.837V57.79z M152.383,53.605h-2.837v-2.57h2.837V53.605z"/>
		<path fill="#19191A" d="M183.544,49.423h-8.898c-0.445,0-0.806,0.36-0.806,0.806v12.549c0,0.444,0.36,0.806,0.806,0.806h8.898
			c0.445,0,0.806-0.361,0.806-0.806V50.229C184.35,49.783,183.989,49.423,183.544,49.423z M178.288,61.971h-2.837V59.4h2.837V61.971
			z M178.288,57.79h-2.837v-2.573h2.837V57.79z M178.288,53.605h-2.837v-2.57h2.837V53.605z M182.737,61.971H179.9V59.4h2.837
			V61.971z M182.737,57.79H179.9v-2.573h2.837V57.79z M182.737,53.605H179.9v-2.57h2.837V53.605z"/>
		<path fill="#19191A" d="M168.366,49.423h-8.898c-0.444,0-0.806,0.36-0.806,0.806v12.549c0,0.444,0.361,0.806,0.806,0.806h8.898
			c0.445,0,0.806-0.361,0.806-0.806V50.229C169.172,49.783,168.812,49.423,168.366,49.423z M163.111,61.971h-2.837V59.4h2.837
			V61.971z M163.111,57.79h-2.837v-2.573h2.837V57.79z M163.111,53.605h-2.837v-2.57h2.837V53.605z M167.56,61.971h-2.837V59.4
			h2.837V61.971z M167.56,57.79h-2.837v-2.573h2.837V57.79z M167.56,53.605h-2.837v-2.57h2.837V53.605z"/>
		<path fill="#19191A" d="M743.939,28.9h36.468c0.445,0,0.807-0.361,0.807-0.807c0-0.444-0.361-0.805-0.807-0.805h-36.468
			c-0.445,0-0.806,0.36-0.806,0.805C743.134,28.539,743.494,28.9,743.939,28.9z"/>
		<path fill="#19191A" d="M670.977,40.195h25.77c0.444,0,0.806-0.361,0.806-0.807s-0.361-0.807-0.806-0.807h-25.77
			c-0.445,0-0.806,0.361-0.806,0.807S670.531,40.195,670.977,40.195z"/>
		<path fill="#19191A" d="M686.84,35.685c0,0.445,0.36,0.806,0.806,0.806h18.778c0.444,0,0.806-0.36,0.806-0.806
			c0-0.444-0.361-0.806-0.806-0.806h-18.778C687.2,34.879,686.84,35.24,686.84,35.685z"/>
		<path fill="#19191A" d="M681.731,42.347c-0.444,0-0.806,0.361-0.806,0.806c0,0.445,0.361,0.807,0.806,0.807h7.495
			c0.445,0,0.806-0.361,0.806-0.807c0-0.444-0.36-0.806-0.806-0.806H681.731z"/>
		<path fill="#19191A" d="M692.991,42.347c-0.444,0-0.806,0.361-0.806,0.806c0,0.445,0.361,0.807,0.806,0.807h11.261
			c0.445,0,0.806-0.361,0.806-0.807c0-0.444-0.36-0.806-0.806-0.806H692.991z"/>
		<path fill="#19191A" d="M746.779,34.818c-0.444,0-0.806,0.361-0.806,0.807c0,0.444,0.361,0.805,0.806,0.805h22.528
			c0.446,0,0.806-0.36,0.806-0.805c0-0.445-0.359-0.807-0.806-0.807H746.779z"/>
		<path fill="#19191A" d="M773.073,36.43h3.761c0.445,0,0.807-0.36,0.807-0.805c0-0.445-0.361-0.807-0.807-0.807h-3.761
			c-0.446,0-0.806,0.361-0.806,0.807C772.268,36.069,772.627,36.43,773.073,36.43z"/>
		<path fill="#19191A" d="M681.731,32.664h13.4c0.444,0,0.806-0.36,0.806-0.806c0-0.444-0.361-0.806-0.806-0.806h-13.4
			c-0.444,0-0.806,0.361-0.806,0.806C680.926,32.304,681.287,32.664,681.731,32.664z"/>
		<path fill="#19191A" d="M698.896,32.664h4.235c0.446,0,0.806-0.36,0.806-0.806c0-0.444-0.359-0.806-0.806-0.806h-4.235
			c-0.444,0-0.806,0.361-0.806,0.806C698.091,32.304,698.452,32.664,698.896,32.664z"/>
		<path fill="#19191A" d="M740.78,32.666h15.536c0.445,0,0.808-0.361,0.808-0.807s-0.362-0.807-0.808-0.807H740.78
			c-0.444,0-0.806,0.361-0.806,0.807S740.336,32.666,740.78,32.666z"/>
		<path fill="#19191A" d="M774.391,31.859c0-0.445-0.359-0.807-0.806-0.807h-13.503c-0.445,0-0.807,0.361-0.807,0.807
			s0.361,0.807,0.807,0.807h13.503C774.031,32.666,774.391,32.305,774.391,31.859z"/>
		<path fill="#19191A" d="M1229.451,81.473h6.358c0.445,0,0.806-0.361,0.806-0.807V68.881c0-0.445-0.36-0.806-0.806-0.806h-6.358
			c-0.445,0-0.807,0.36-0.807,0.806v11.785C1228.645,81.111,1229.006,81.473,1229.451,81.473z M1230.257,69.688h4.747v4.305h-4.747
			V69.688z M1230.257,75.604h4.747v4.256h-4.747V75.604z"/>
		<path fill="#19191A" d="M1244.688,81.473h6.359c0.445,0,0.806-0.361,0.806-0.807V68.881c0-0.445-0.36-0.806-0.806-0.806h-6.359
			c-0.444,0-0.806,0.36-0.806,0.806v11.785C1243.882,81.111,1244.243,81.473,1244.688,81.473z M1245.494,69.688h4.747v4.305h-4.747
			V69.688z M1245.494,75.604h4.747v4.256h-4.747V75.604z"/>
		<path fill="#19191A" d="M1266.362,68.075h-6.36c-0.445,0-0.806,0.36-0.806,0.806v11.785c0,0.445,0.36,0.807,0.806,0.807h6.36
			c0.444,0,0.806-0.361,0.806-0.807V68.881C1267.168,68.436,1266.807,68.075,1266.362,68.075z M1265.556,79.859h-4.748v-4.256h4.748
			V79.859z M1265.556,73.992h-4.748v-4.305h4.748V73.992z"/>
		<path fill="#19191A" d="M1236.615,97.541V85.756c0-0.445-0.361-0.807-0.806-0.807h-6.359c-0.444,0-0.806,0.361-0.806,0.807v11.785
			c0,0.445,0.361,0.806,0.806,0.806h6.359C1236.254,98.347,1236.615,97.986,1236.615,97.541z M1235.004,96.734h-4.747v-4.256h4.747
			V96.734z M1235.004,90.867h-4.747v-4.305h4.747V90.867z"/>
		<path fill="#19191A" d="M1244.688,98.347h6.359c0.445,0,0.806-0.36,0.806-0.806V85.756c0-0.445-0.36-0.807-0.806-0.807h-6.359
			c-0.444,0-0.806,0.361-0.806,0.807v11.785C1243.882,97.986,1244.243,98.347,1244.688,98.347z M1245.494,86.562h4.747v4.305h-4.747
			V86.562z M1245.494,92.479h4.747v4.256h-4.747V92.479z"/>
		<path fill="#19191A" d="M1266.362,84.949h-6.36c-0.445,0-0.806,0.361-0.806,0.807v11.785c0,0.445,0.36,0.806,0.806,0.806h6.36
			c0.444,0,0.806-0.36,0.806-0.806V85.756C1267.168,85.311,1266.807,84.949,1266.362,84.949z M1265.556,96.734h-4.748v-4.256h4.748
			V96.734z M1265.556,90.867h-4.748v-4.305h4.748V90.867z"/>
		<path fill="#19191A" d="M1238.969,47.845h-6.36c-0.445,0-0.806,0.36-0.806,0.806v9.674c0,0.445,0.36,0.807,0.806,0.807h6.36
			c0.444,0,0.806-0.361,0.806-0.807V48.65C1239.774,48.205,1239.413,47.845,1238.969,47.845z M1238.162,57.519h-4.748v-8.062h4.748
			V57.519z"/>
		<path fill="#19191A" d="M1263.204,47.845h-6.36c-0.444,0-0.806,0.36-0.806,0.806v9.674c0,0.445,0.361,0.807,0.806,0.807h6.36
			c0.445,0,0.806-0.361,0.806-0.807V48.65C1264.01,48.205,1263.649,47.845,1263.204,47.845z M1262.398,57.519h-4.748v-8.062h4.748
			V57.519z"/>
		<path fill="#19191A" d="M1308.974,97.482h7.063c0.444,0,0.806-0.361,0.806-0.807V85.365c0-0.444-0.361-0.806-0.806-0.806h-7.063
			c-0.444,0-0.806,0.361-0.806,0.806v11.311C1308.168,97.121,1308.529,97.482,1308.974,97.482z M1309.779,86.172h5.451v4.043h-5.451
			V86.172z M1309.779,91.826h5.451v4.043h-5.451V91.826z"/>
		<path fill="#19191A" d="M1297.685,97.482h7.062c0.445,0,0.807-0.361,0.807-0.807V85.365c0-0.444-0.361-0.806-0.807-0.806h-7.062
			c-0.445,0-0.806,0.361-0.806,0.806v11.311C1296.879,97.121,1297.239,97.482,1297.685,97.482z M1298.49,86.172h5.45v4.043h-5.45
			V86.172z M1298.49,91.826h5.45v4.043h-5.45V91.826z"/>
		<path fill="#19191A" d="M1286.395,97.482h7.062c0.445,0,0.806-0.361,0.806-0.807V85.365c0-0.444-0.36-0.806-0.806-0.806h-7.062
			c-0.445,0-0.807,0.361-0.807,0.806v11.311C1285.588,97.121,1285.949,97.482,1286.395,97.482z M1287.2,86.172h5.45v4.043h-5.45
			V86.172z M1287.2,91.826h5.45v4.043h-5.45V91.826z"/>
		<path fill="#19191A" d="M1308.974,129.203h7.063c0.444,0,0.806-0.361,0.806-0.807v-11.31c0-0.445-0.361-0.807-0.806-0.807h-7.063
			c-0.444,0-0.806,0.361-0.806,0.807v11.31C1308.168,128.842,1308.529,129.203,1308.974,129.203z M1309.779,117.893h5.451v4.043
			h-5.451V117.893z M1309.779,123.548h5.451v4.043h-5.451V123.548z"/>
		<path fill="#19191A" d="M1297.685,129.203h7.062c0.444,0,0.806-0.361,0.806-0.807v-11.31c0-0.445-0.361-0.807-0.806-0.807h-7.062
			c-0.445,0-0.806,0.361-0.806,0.807v11.31C1296.879,128.842,1297.239,129.203,1297.685,129.203z M1298.49,117.893h5.45v4.043h-5.45
			V117.893z M1298.49,123.548h5.45v4.043h-5.45V123.548z"/>
		<path fill="#19191A" d="M1286.395,129.202h7.062c0.445,0,0.806-0.36,0.806-0.806v-11.311c0-0.444-0.36-0.806-0.806-0.806h-7.062
			c-0.445,0-0.807,0.361-0.807,0.806v11.311C1285.588,128.842,1285.949,129.202,1286.395,129.202z M1287.2,117.893h5.45v4.043h-5.45
			V117.893z M1287.2,123.548h5.45v4.043h-5.45V123.548z"/>
		<path fill="#19191A" d="M1280.238,77.992c-0.445,0-0.807,0.361-0.807,0.806s0.361,0.806,0.807,0.806h41.955
			c0.444,0,0.806-0.361,0.806-0.806s-0.361-0.806-0.806-0.806H1280.238z"/>
		<path fill="#19191A" d="M1277.707,75.774c0,0.444,0.361,0.806,0.807,0.806h45.402c0.445,0,0.807-0.361,0.807-0.806
			s-0.361-0.806-0.807-0.806h-45.402C1278.068,74.969,1277.707,75.33,1277.707,75.774z"/>
		<path fill="#19191A" d="M1316.141,133.021h-16.162c-0.444,0-0.806,0.36-0.806,0.806v9.781c0,0.444,0.361,0.806,0.806,0.806h16.162
			c0.445,0,0.807-0.361,0.807-0.806v-9.781C1316.947,133.382,1316.586,133.021,1316.141,133.021z M1315.335,142.802h-14.55v-8.169
			h14.55V142.802z"/>
		<path fill="#19191A" d="M1262.605,99.961h-29.398c-0.445,0-0.807,0.361-0.807,0.806c0,0.445,0.361,0.806,0.807,0.806h29.398
			c0.445,0,0.807-0.36,0.807-0.806C1263.412,100.322,1263.051,99.961,1262.605,99.961z"/>
		<path fill="#19191A" d="M1219.135,121.521c0,0.444,0.361,0.806,0.807,0.806h55.93c0.445,0,0.806-0.361,0.806-0.806
			c0-0.445-0.36-0.807-0.806-0.807h-55.93C1219.496,120.714,1219.135,121.075,1219.135,121.521z"/>
		<path fill="#19191A" d="M1240.218,126.092h-20.276c-0.445,0-0.807,0.36-0.807,0.807v15.045c0,0.444,0.361,0.806,0.807,0.806
			h20.276c0.445,0,0.807-0.361,0.807-0.806v-15.045C1241.024,126.452,1240.663,126.092,1240.218,126.092z M1223.189,141.137h-2.442
			v-2.148h2.442V141.137z M1223.189,137.376h-2.442v-2.148h2.442V137.376z M1223.189,133.614h-2.442v-2.149h2.442V133.614z
			 M1223.189,129.854h-2.442v-2.149h2.442V129.854z M1227.243,141.137h-2.442v-2.148h2.442V141.137z M1227.243,137.375h-2.442
			v-2.148h2.442V137.375z M1227.243,133.614h-2.442v-2.149h2.442V133.614z M1227.243,129.854h-2.442v-2.149h2.442V129.854z
			 M1231.303,141.137h-2.447v-2.148h2.447V141.137z M1231.303,137.376h-2.447v-2.148h2.447V137.376z M1231.303,133.614h-2.447
			v-2.149h2.447V133.614z M1231.303,129.854h-2.447v-2.149h2.447V129.854z M1235.357,141.137h-2.442v-2.148h2.442V141.137z
			 M1235.357,137.375h-2.442v-2.148h2.442V137.375z M1235.357,133.614h-2.442v-2.149h2.442V133.614z M1235.357,129.854h-2.442
			v-2.149h2.442V129.854z M1239.412,141.137h-2.443v-2.148h2.443V141.137z M1239.412,137.375h-2.443v-2.148h2.443V137.375z
			 M1239.412,133.614h-2.443v-2.149h2.443V133.614z M1239.412,129.854h-2.443v-2.149h2.443V129.854z"/>
		<path fill="#19191A" d="M1275.557,126.092h-20.277c-0.445,0-0.806,0.361-0.806,0.806v15.045c0,0.446,0.36,0.807,0.806,0.807
			h20.277c0.444,0,0.806-0.36,0.806-0.807v-15.045C1276.362,126.453,1276.001,126.092,1275.557,126.092z M1258.528,141.137h-2.443
			v-2.148h2.443V141.137z M1258.528,137.376h-2.443v-2.149h2.443V137.376z M1258.528,133.615h-2.443v-2.149h2.443V133.615z
			 M1258.528,129.853h-2.443v-2.148h2.443V129.853z M1262.582,141.137h-2.441v-2.148h2.441V141.137z M1262.582,137.376h-2.441
			v-2.149h2.441V137.376z M1262.582,133.615h-2.441v-2.149h2.441V133.615z M1262.582,129.853h-2.441v-2.148h2.441V129.853z
			 M1266.643,141.137h-2.448v-2.148h2.448V141.137z M1266.643,137.376h-2.448v-2.149h2.448V137.376z M1266.643,133.614h-2.448
			v-2.149h2.448V133.614z M1266.643,129.853h-2.448v-2.148h2.448V129.853z M1270.696,141.137h-2.442v-2.148h2.442V141.137z
			 M1270.696,137.376h-2.442v-2.149h2.442V137.376z M1270.696,133.615h-2.442v-2.149h2.442V133.615z M1270.696,129.853h-2.442
			v-2.148h2.442V129.853z M1274.75,141.137h-2.441v-2.148h2.441V141.137z M1274.75,137.376h-2.441v-2.149h2.441V137.376z
			 M1274.75,133.614h-2.441v-2.149h2.441V133.614z M1274.75,129.853h-2.441v-2.148h2.441V129.853z"/>
		<path fill="#19191A" d="M1247.906,117.526c2.076,0,3.701-2.145,3.701-4.882c0-2.736-1.625-4.881-3.701-4.881
			c-2.075,0-3.702,2.145-3.702,4.881C1244.204,115.382,1245.831,117.526,1247.906,117.526z M1247.906,109.376
			c1.133,0,2.091,1.497,2.091,3.269c0,1.772-0.958,3.27-2.091,3.27c-1.134,0-2.091-1.497-2.091-3.27
			C1245.815,110.873,1246.772,109.376,1247.906,109.376z"/>
		<path fill="#19191A" d="M1112.058,101.738h-9.016c-0.446,0-0.806,0.361-0.806,0.807v14.114c0,0.445,0.359,0.807,0.806,0.807h9.016
			c0.445,0,0.806-0.361,0.806-0.807v-14.114C1112.863,102.1,1112.503,101.738,1112.058,101.738z M1111.252,115.854h-7.404v-12.503
			h7.404V115.854z"/>
		<path fill="#19191A" d="M1132.217,101.738h-9.016c-0.446,0-0.806,0.361-0.806,0.807v14.114c0,0.445,0.359,0.807,0.806,0.807h9.016
			c0.446,0,0.807-0.361,0.807-0.807v-14.114C1133.023,102.1,1132.663,101.738,1132.217,101.738z M1131.411,115.854h-7.404v-12.503
			h7.404V115.854z"/>
		<path fill="#19191A" d="M1152.224,101.738h-9.018c-0.444,0-0.806,0.361-0.806,0.807v14.114c0,0.445,0.361,0.807,0.806,0.807h9.018
			c0.444,0,0.806-0.361,0.806-0.807v-14.114C1153.029,102.1,1152.668,101.738,1152.224,101.738z M1151.417,115.854h-7.405v-12.503
			h7.405V115.854z"/>
		<path fill="#19191A" d="M1112.058,123.366h-9.016c-0.446,0-0.806,0.361-0.806,0.806v14.115c0,0.445,0.359,0.807,0.806,0.807h9.016
			c0.445,0,0.806-0.361,0.806-0.807v-14.115C1112.863,123.728,1112.503,123.366,1112.058,123.366z M1111.252,137.481h-7.404v-12.503
			h7.404V137.481z"/>
		<path fill="#19191A" d="M1132.217,123.366h-9.016c-0.446,0-0.806,0.361-0.806,0.806v14.115c0,0.445,0.359,0.807,0.806,0.807h9.016
			c0.446,0,0.807-0.361,0.807-0.807v-14.115C1133.023,123.728,1132.663,123.366,1132.217,123.366z M1131.411,137.481h-7.404v-12.503
			h7.404V137.481z"/>
		<path fill="#19191A" d="M1152.224,123.366h-9.017c-0.444,0-0.806,0.361-0.806,0.806v14.115c0,0.445,0.361,0.807,0.806,0.807h9.017
			c0.445,0,0.806-0.361,0.806-0.807v-14.115C1153.029,123.728,1152.669,123.366,1152.224,123.366z M1151.417,137.481h-7.403v-12.503
			h7.403V137.481z"/>
		<path fill="#19191A" d="M1156.142,79.517h61.535c0.444,0,0.806-0.36,0.806-0.806s-0.361-0.807-0.806-0.807h-61.535
			c-0.446,0-0.806,0.361-0.806,0.807S1155.695,79.517,1156.142,79.517z"/>
		<path fill="#19191A" d="M1167.303,123.395h8.898c0.444,0,0.806-0.361,0.806-0.807V110.04c0-0.444-0.361-0.806-0.806-0.806h-8.898
			c-0.445,0-0.806,0.361-0.806,0.806v12.548C1166.497,123.033,1166.857,123.395,1167.303,123.395z M1172.558,110.846h2.837v2.57
			h-2.837V110.846z M1172.558,115.028h2.837v2.573h-2.837V115.028z M1172.558,119.212h2.837v2.57h-2.837V119.212z M1168.109,110.846
			h2.837v2.57h-2.837V110.846z M1168.109,115.028h2.837v2.573h-2.837V115.028z M1168.109,119.212h2.837v2.57h-2.837V119.212z"/>
		<path fill="#19191A" d="M1197.658,123.395h8.897c0.446,0,0.806-0.361,0.806-0.807V110.04c0-0.444-0.359-0.806-0.806-0.806h-8.897
			c-0.445,0-0.806,0.361-0.806,0.806v12.548C1196.853,123.033,1197.213,123.395,1197.658,123.395z M1202.914,110.846h2.837v2.57
			h-2.837V110.846z M1202.914,115.028h2.837v2.573h-2.837V115.028z M1202.914,119.212h2.837v2.57h-2.837V119.212z M1198.465,110.846
			h2.837v2.57h-2.837V110.846z M1198.465,115.028h2.837v2.573h-2.837V115.028z M1198.465,119.212h2.837v2.57h-2.837V119.212z"/>
		<path fill="#19191A" d="M1182.481,123.395h8.896c0.445,0,0.806-0.361,0.806-0.807V110.04c0-0.444-0.36-0.806-0.806-0.806h-8.896
			c-0.446,0-0.807,0.361-0.807,0.806v12.548C1181.675,123.033,1182.035,123.395,1182.481,123.395z M1187.736,110.846h2.837v2.57
			h-2.837V110.846z M1187.736,115.028h2.837v2.573h-2.837V115.028z M1187.736,119.212h2.837v2.57h-2.837V119.212z M1183.287,110.846
			h2.837v2.57h-2.837V110.846z M1183.287,115.028h2.837v2.573h-2.837V115.028z M1183.287,119.212h2.837v2.57h-2.837V119.212z"/>
		<path fill="#19191A" d="M1167.303,104.931h8.898c0.444,0,0.806-0.36,0.806-0.806V91.576c0-0.444-0.361-0.805-0.806-0.805h-8.898
			c-0.445,0-0.806,0.36-0.806,0.805v12.549C1166.497,104.57,1166.857,104.931,1167.303,104.931z M1172.558,92.383h2.837v2.57h-2.837
			V92.383z M1172.558,96.564h2.837v2.573h-2.837V96.564z M1172.558,100.749h2.837v2.569h-2.837V100.749z M1168.109,92.383h2.837
			v2.57h-2.837V92.383z M1168.109,96.564h2.837v2.573h-2.837V96.564z M1168.109,100.749h2.837v2.569h-2.837V100.749z"/>
		<path fill="#19191A" d="M1197.658,104.931h8.897c0.446,0,0.806-0.36,0.806-0.806V91.576c0-0.444-0.359-0.805-0.806-0.805h-8.897
			c-0.445,0-0.806,0.36-0.806,0.805v12.549C1196.853,104.57,1197.213,104.931,1197.658,104.931z M1202.914,92.383h2.837v2.57h-2.837
			V92.383z M1202.914,96.564h2.837v2.573h-2.837V96.564z M1202.914,100.749h2.837v2.569h-2.837V100.749z M1198.465,92.383h2.837
			v2.57h-2.837V92.383z M1198.465,96.564h2.837v2.573h-2.837V96.564z M1198.465,100.749h2.837v2.569h-2.837V100.749z"/>
		<path fill="#19191A" d="M1182.481,104.931h8.896c0.445,0,0.806-0.36,0.806-0.806V91.576c0-0.444-0.36-0.805-0.806-0.805h-8.896
			c-0.446,0-0.807,0.36-0.807,0.805v12.549C1181.675,104.57,1182.035,104.931,1182.481,104.931z M1187.736,92.383h2.837v2.57h-2.837
			V92.383z M1187.736,96.564h2.837v2.573h-2.837V96.564z M1187.736,100.749h2.837v2.569h-2.837V100.749z M1183.287,92.383h2.837
			v2.57h-2.837V92.383z M1183.287,96.564h2.837v2.573h-2.837V96.564z M1183.287,100.749h2.837v2.569h-2.837V100.749z"/>
		<path fill="#19191A" d="M967.595,139.892c0.445,0,0.806-0.361,0.806-0.807v-4.208c0-0.444-0.36-0.806-0.806-0.806
			s-0.807,0.361-0.807,0.806v4.208C966.788,139.53,967.149,139.892,967.595,139.892z"/>
		<path fill="#19191A" d="M972.752,139.892c0.445,0,0.806-0.361,0.806-0.807v-4.208c0-0.444-0.36-0.806-0.806-0.806
			c-0.446,0-0.807,0.361-0.807,0.806v4.208C971.945,139.53,972.306,139.892,972.752,139.892z"/>
		<path fill="#19191A" d="M977.908,139.892c0.444,0,0.806-0.361,0.806-0.807v-4.208c0-0.444-0.361-0.806-0.806-0.806
			c-0.445,0-0.807,0.361-0.807,0.806v4.208C977.102,139.53,977.463,139.892,977.908,139.892z"/>
		<path fill="#19191A" d="M983.064,139.892c0.445,0,0.806-0.361,0.806-0.807v-4.208c0-0.444-0.36-0.806-0.806-0.806
			c-0.446,0-0.806,0.361-0.806,0.806v4.208C982.259,139.53,982.618,139.892,983.064,139.892z"/>
		<path fill="#19191A" d="M988.221,139.892c0.445,0,0.807-0.361,0.807-0.807v-4.208c0-0.444-0.361-0.806-0.807-0.806
			s-0.806,0.361-0.806,0.806v4.208C987.415,139.53,987.775,139.892,988.221,139.892z"/>
		<path fill="#19191A" d="M993.377,139.892c0.446,0,0.807-0.361,0.807-0.807v-4.208c0-0.444-0.36-0.806-0.807-0.806
			c-0.445,0-0.806,0.361-0.806,0.806v4.208C992.571,139.53,992.932,139.892,993.377,139.892z"/>
		<path fill="#19191A" d="M861.345,106.669h9.017c0.445,0,0.807-0.36,0.807-0.806v-12.1c0-0.445-0.361-0.806-0.807-0.806h-9.017
			c-0.445,0-0.807,0.36-0.807,0.806v12.1C860.538,106.309,860.899,106.669,861.345,106.669z M862.15,94.57h7.405v4.438h-7.405V94.57
			z M862.15,100.62h7.405v4.437h-7.405V100.62z"/>
		<path fill="#19191A" d="M859.875,109.896h11.956c0.444,0,0.806-0.361,0.806-0.807s-0.361-0.806-0.806-0.806h-11.956
			c-0.445,0-0.807,0.36-0.807,0.806S859.43,109.896,859.875,109.896z"/>
		<path fill="#19191A" d="M884.056,106.669h9.017c0.445,0,0.807-0.36,0.807-0.806v-12.1c0-0.445-0.361-0.806-0.807-0.806h-9.017
			c-0.445,0-0.806,0.36-0.806,0.806v12.1C883.25,106.309,883.61,106.669,884.056,106.669z M884.861,94.57h7.405v4.438h-7.405V94.57z
			 M884.861,100.62h7.405v4.437h-7.405V100.62z"/>
		<path fill="#19191A" d="M882.587,109.896h11.956c0.444,0,0.806-0.361,0.806-0.807s-0.361-0.806-0.806-0.806h-11.956
			c-0.445,0-0.807,0.36-0.807,0.806S882.142,109.896,882.587,109.896z"/>
		<path fill="#19191A" d="M871.968,69.88c0,0.445,0.359,0.806,0.806,0.806h36.958c0.445,0,0.806-0.36,0.806-0.806
			c0-0.444-0.36-0.806-0.806-0.806h-36.958C872.327,69.074,871.968,69.436,871.968,69.88z"/>
		<path fill="#19191A" d="M865.361,66.921h29.932c0.445,0,0.807-0.36,0.807-0.806s-0.361-0.807-0.807-0.807h-29.932
			c-0.446,0-0.806,0.361-0.806,0.807S864.915,66.921,865.361,66.921z"/>
		<path fill="#19191A" d="M870.084,63.156h13.4c0.445,0,0.806-0.361,0.806-0.807s-0.36-0.806-0.806-0.806h-13.4
			c-0.444,0-0.806,0.36-0.806,0.806S869.64,63.156,870.084,63.156z"/>
		<path fill="#19191A" d="M887.249,63.156h4.235c0.446,0,0.806-0.361,0.806-0.807s-0.359-0.806-0.806-0.806h-4.235
			c-0.445,0-0.806,0.36-0.806,0.806S886.804,63.156,887.249,63.156z"/>
		<path fill="#19191A" d="M806.719,98.452h37.613c0.445,0,0.806-0.36,0.806-0.806s-0.36-0.807-0.806-0.807h-37.613
			c-0.445,0-0.806,0.361-0.806,0.807S806.273,98.452,806.719,98.452z"/>
		<path fill="#19191A" d="M831.783,139.5h8.563c0.446,0,0.806-0.361,0.806-0.806v-17.199c0-0.446-0.359-0.807-0.806-0.807h-8.563
			c-0.445,0-0.807,0.36-0.807,0.807v17.199C830.977,139.139,831.338,139.5,831.783,139.5z M832.589,122.301h6.952v15.587h-6.952
			V122.301z"/>
		<path fill="#19191A" d="M840.348,141.388h-8.565c-0.444,0-0.806,0.361-0.806,0.807c0,0.444,0.361,0.806,0.806,0.806h8.565
			c0.446,0,0.806-0.361,0.806-0.806C841.153,141.749,840.794,141.388,840.348,141.388z"/>
		<path fill="#19191A" d="M840.348,144.888h-8.565c-0.444,0-0.806,0.361-0.806,0.807c0,0.444,0.361,0.806,0.806,0.806h8.565
			c0.446,0,0.806-0.361,0.806-0.806C841.153,145.249,840.794,144.888,840.348,144.888z"/>
		<path fill="#19191A" d="M837.258,124.046h-2.385c-0.444,0-0.806,0.361-0.806,0.806c0,0.445,0.361,0.807,0.806,0.807h2.385
			c0.444,0,0.806-0.361,0.806-0.807C838.063,124.407,837.702,124.046,837.258,124.046z"/>
		<path fill="#19191A" d="M799.829,38.169h61.533c0.445,0,0.807-0.361,0.807-0.806c0-0.445-0.361-0.807-0.807-0.807h-61.533
			c-0.445,0-0.807,0.361-0.807,0.807C799.022,37.808,799.384,38.169,799.829,38.169z"/>
		<path fill="#19191A" d="M818.982,120.688h-7.992c-0.445,0-0.807,0.361-0.807,0.806v10.3c0,0.444,0.361,0.806,0.807,0.806h7.992
			c0.445,0,0.807-0.361,0.807-0.806v-10.3C819.789,121.05,819.428,120.688,818.982,120.688z M818.177,130.987h-6.381v-3.537h6.381
			V130.987z M818.177,125.838h-6.381v-3.537h6.381V125.838z"/>
		<path fill="#19191A" d="M818.982,102.449h-7.992c-0.445,0-0.807,0.361-0.807,0.806v10.3c0,0.444,0.361,0.805,0.807,0.805h7.992
			c0.445,0,0.807-0.36,0.807-0.805v-10.3C819.789,102.811,819.428,102.449,818.982,102.449z M818.177,112.748h-6.381v-3.537h6.381
			V112.748z M818.177,107.598h-6.381v-3.537h6.381V107.598z"/>
		<path fill="#19191A" d="M741.369,146.164h8.277c0.445,0,0.807-0.36,0.807-0.807v-15.99c0-0.445-0.361-0.807-0.807-0.807h-8.277
			c-0.445,0-0.807,0.361-0.807,0.807v15.99C740.562,145.804,740.924,146.164,741.369,146.164z M742.175,130.173h6.666v14.379h-6.666
			V130.173z"/>
		<path fill="#19191A" d="M720.838,99.065c0,0.444,0.36,0.806,0.806,0.806h23.997c0.445,0,0.806-0.361,0.806-0.806
			c0-0.445-0.36-0.806-0.806-0.806h-23.997C721.198,98.26,720.838,98.62,720.838,99.065z"/>
		<path fill="#19191A" d="M735.868,95.925h6.637c0.445,0,0.807-0.36,0.807-0.806s-0.361-0.807-0.807-0.807h-6.637
			c-0.446,0-0.806,0.361-0.806,0.807S735.422,95.925,735.868,95.925z"/>
		<path fill="#19191A" d="M741.654,122.183h7.991c0.446,0,0.807-0.36,0.807-0.806v-10.299c0-0.445-0.36-0.807-0.807-0.807h-7.991
			c-0.446,0-0.807,0.361-0.807,0.807v10.299C740.848,121.822,741.208,122.183,741.654,122.183z M742.46,111.884h6.38v3.537h-6.38
			V111.884z M742.46,117.034h6.38v3.537h-6.38V117.034z"/>
		<path fill="#19191A" d="M720.623,122.184h7.993c0.444,0,0.806-0.361,0.806-0.807v-10.299c0-0.445-0.361-0.806-0.806-0.806h-7.993
			c-0.445,0-0.806,0.36-0.806,0.806v10.299C719.817,121.822,720.178,122.184,720.623,122.184z M721.429,111.885h6.382v3.537h-6.382
			V111.885z M721.429,117.034h6.382v3.537h-6.382V117.034z"/>
		<path fill="#19191A" d="M720.623,141.934h7.993c0.444,0,0.806-0.361,0.806-0.806v-10.3c0-0.444-0.361-0.806-0.806-0.806h-7.993
			c-0.445,0-0.806,0.361-0.806,0.806v10.3C719.817,141.572,720.178,141.934,720.623,141.934z M721.429,131.635h6.382v3.537h-6.382
			V131.635z M721.429,136.784h6.382v3.537h-6.382V136.784z"/>
		<path fill="#19191A" d="M722.816,55.697H706.47c-0.445,0-0.806,0.36-0.806,0.806v16.346c0,0.446,0.36,0.806,0.806,0.806h16.347
			c0.445,0,0.807-0.359,0.807-0.806V56.503C723.623,56.058,723.262,55.697,722.816,55.697z M709.751,72.043h-2.476v-3.836h2.476
			V72.043z M709.751,66.596h-2.476v-3.839h2.476V66.596z M709.751,61.145h-2.476v-3.836h2.476V61.145z M713.838,72.043h-2.476
			v-3.836h2.476V72.043z M713.838,66.596h-2.476v-3.839h2.476V66.596z M713.838,61.145h-2.476v-3.836h2.476V61.145z M717.924,72.043
			h-2.476v-3.836h2.476V72.043z M717.924,66.596h-2.476v-3.839h2.476V66.596z M717.924,61.145h-2.476v-3.836h2.476V61.145z
			 M722.011,72.043h-2.475v-3.836h2.475V72.043z M722.011,66.596h-2.475v-3.839h2.475V66.596z M722.011,61.145h-2.475v-3.836h2.475
			V61.145z"/>
		<path fill="#19191A" d="M734.593,73.654h16.347c0.445,0,0.806-0.359,0.806-0.806V56.503c0-0.445-0.36-0.806-0.806-0.806h-16.347
			c-0.445,0-0.806,0.36-0.806,0.806v16.346C733.787,73.295,734.147,73.654,734.593,73.654z M747.658,57.309h2.475v3.836h-2.475
			V57.309z M747.658,62.757h2.475v3.839h-2.475V62.757z M747.658,68.207h2.475v3.836h-2.475V68.207z M743.571,57.309h2.475v3.836
			h-2.475V57.309z M743.571,62.757h2.475v3.839h-2.475V62.757z M743.571,68.207h2.475v3.836h-2.475V68.207z M739.486,57.309h2.474
			v3.836h-2.474V57.309z M739.486,62.757h2.474v3.839h-2.474V62.757z M739.486,68.207h2.474v3.836h-2.474V68.207z M735.398,57.309
			h2.475v3.836h-2.475V57.309z M735.398,62.757h2.475v3.839h-2.475V62.757z M735.398,68.207h2.475v3.836h-2.475V68.207z"/>
		<path fill="#19191A" d="M695.666,87.877h-7.992c-0.445,0-0.806,0.361-0.806,0.807v10.299c0,0.444,0.36,0.806,0.806,0.806h7.992
			c0.446,0,0.806-0.361,0.806-0.806V88.684C696.472,88.238,696.112,87.877,695.666,87.877z M694.86,98.176h-6.38v-3.537h6.38V98.176
			z M694.86,93.025h-6.38v-3.537h6.38V93.025z"/>
		<path fill="#19191A" d="M694.434,127.83v17.588c0,0.445,0.361,0.806,0.807,0.806h10.508c0.445,0,0.806-0.36,0.806-0.806V127.83
			c0-0.445-0.36-0.807-0.806-0.807H695.24C694.795,127.023,694.434,127.385,694.434,127.83z M696.046,128.636h8.896v15.976h-8.896
			V128.636z"/>
		<path fill="#19191A" d="M695.69,111.078v10.299c0,0.445,0.361,0.806,0.807,0.806h7.993c0.444,0,0.806-0.36,0.806-0.806v-10.299
			c0-0.445-0.361-0.807-0.806-0.807h-7.993C696.052,110.271,695.69,110.633,695.69,111.078z M697.303,111.884h6.381v3.537h-6.381
			V111.884z M697.303,117.034h6.381v3.537h-6.381V117.034z"/>
		<path fill="#19191A" d="M786.83,122.183h7.992c0.446,0,0.806-0.36,0.806-0.806v-10.299c0-0.445-0.359-0.807-0.806-0.807h-7.992
			c-0.445,0-0.806,0.361-0.806,0.807v10.299C786.024,121.822,786.385,122.183,786.83,122.183z M787.637,111.884h6.38v3.537h-6.38
			V111.884z M787.637,117.034h6.38v3.537h-6.38V117.034z"/>
		<path fill="#19191A" d="M773.772,110.272h-7.992c-0.446,0-0.807,0.36-0.807,0.806v10.299c0,0.445,0.36,0.807,0.807,0.807h7.992
			c0.445,0,0.806-0.361,0.806-0.807v-10.299C774.578,110.633,774.218,110.272,773.772,110.272z M772.966,120.571h-6.38v-3.537h6.38
			V120.571z M772.966,115.422h-6.38v-3.537h6.38V115.422z"/>
		<path fill="#19191A" d="M786.831,141.934h7.993c0.444,0,0.806-0.361,0.806-0.806v-10.3c0-0.444-0.361-0.806-0.806-0.806h-7.993
			c-0.445,0-0.807,0.361-0.807,0.806v10.3C786.024,141.572,786.386,141.934,786.831,141.934z M787.637,131.635h6.381v3.537h-6.381
			V131.635z M787.637,136.784h6.381v3.537h-6.381V136.784z"/>
		<path fill="#19191A" d="M786.83,102.433h7.992c0.446,0,0.806-0.361,0.806-0.806V91.328c0-0.445-0.359-0.807-0.806-0.807h-7.992
			c-0.445,0-0.806,0.361-0.806,0.807v10.299C786.024,102.071,786.385,102.433,786.83,102.433z M787.637,92.133h6.38v3.537h-6.38
			V92.133z M787.637,97.283h6.38v3.537h-6.38V97.283z"/>
		<path fill="#19191A" d="M773.772,90.521h-7.993c-0.445,0-0.806,0.361-0.806,0.807v10.299c0,0.444,0.36,0.806,0.806,0.806h7.993
			c0.444,0,0.806-0.361,0.806-0.806V91.328C774.578,90.883,774.217,90.521,773.772,90.521z M772.966,100.82h-6.381v-3.537h6.381
			V100.82z M772.966,95.67h-6.381v-3.537h6.381V95.67z"/>
		<path fill="#19191A" d="M786.83,82.682h7.992c0.446,0,0.806-0.36,0.806-0.806V71.577c0-0.444-0.359-0.806-0.806-0.806h-7.992
			c-0.445,0-0.806,0.361-0.806,0.806v10.299C786.024,82.321,786.385,82.682,786.83,82.682z M787.637,72.383h6.38v3.537h-6.38V72.383
			z M787.637,77.533h6.38v3.537h-6.38V77.533z"/>
		<path fill="#19191A" d="M761.783,82.682h3.996h7.993h3.995c0.445,0,0.807-0.36,0.807-0.806v-5.149
			c0-0.445-0.361-0.806-0.807-0.806h-3.189v-4.344c0-0.444-0.361-0.806-0.806-0.806h-7.993c-0.445,0-0.807,0.361-0.807,0.806v4.344
			h-3.189c-0.445,0-0.807,0.36-0.807,0.806v5.149C760.977,82.321,761.338,82.682,761.783,82.682z M774.578,77.533h2.384v3.537
			h-2.384V77.533z M772.966,81.07h-2.385v-3.537h2.385V81.07z M766.585,72.383h6.381v3.537h-6.381V72.383z M766.585,77.533h2.384
			v3.537h-2.384V77.533z M762.589,77.533h2.384v3.537h-2.384V77.533z"/>
		<path fill="#19191A" d="M844.057,107.598h-3.189v-4.342c0-0.447-0.36-0.807-0.807-0.807h-7.992c-0.445,0-0.806,0.359-0.806,0.807
			v4.342h-3.19c-0.445,0-0.807,0.361-0.807,0.807v5.148c0,0.447,0.361,0.807,0.807,0.807h3.996h7.992h3.996
			c0.446,0,0.807-0.359,0.807-0.807v-5.148C844.863,107.959,844.503,107.598,844.057,107.598z M831.263,112.747h-2.384v-3.536h2.384
			V112.747z M835.259,112.747h-2.384v-3.536h2.384V112.747z M839.255,112.747h-2.384v-3.536h2.384V112.747z M839.255,107.598h-6.38
			v-3.536h6.38V107.598z M843.251,112.747h-2.384v-3.536h2.384V112.747z"/>
		<path fill="#19191A" d="M819.887,67.887h-8.896c-0.445,0-0.807,0.36-0.807,0.805V81.24c0,0.445,0.361,0.806,0.807,0.806h8.896
			c0.446,0,0.807-0.36,0.807-0.806V68.691C820.693,68.247,820.333,67.887,819.887,67.887z M814.633,80.434h-2.837v-2.569h2.837
			V80.434z M814.633,76.253h-2.837V73.68h2.837V76.253z M814.633,72.068h-2.837v-2.57h2.837V72.068z M819.082,80.434h-2.837v-2.569
			h2.837V80.434z M819.082,76.253h-2.837V73.68h2.837V76.253z M819.082,72.068h-2.837v-2.57h2.837V72.068z"/>
		<path fill="#19191A" d="M850.243,67.887h-8.898c-0.444,0-0.806,0.36-0.806,0.805V81.24c0,0.445,0.361,0.806,0.806,0.806h8.898
			c0.446,0,0.806-0.36,0.806-0.806V68.691C851.049,68.247,850.689,67.887,850.243,67.887z M844.988,80.434h-2.837v-2.569h2.837
			V80.434z M844.988,76.253h-2.837V73.68h2.837V76.253z M844.988,72.068h-2.837v-2.57h2.837V72.068z M849.438,80.434H846.6v-2.569
			h2.838V80.434z M849.438,76.253H846.6V73.68h2.838V76.253z M849.438,72.068H846.6v-2.57h2.838V72.068z"/>
		<path fill="#19191A" d="M835.065,67.887h-8.897c-0.445,0-0.807,0.36-0.807,0.805V81.24c0,0.445,0.361,0.806,0.807,0.806h8.897
			c0.446,0,0.806-0.36,0.806-0.806V68.691C835.871,68.247,835.512,67.887,835.065,67.887z M829.811,80.434h-2.837v-2.569h2.837
			V80.434z M829.811,76.253h-2.837V73.68h2.837V76.253z M829.811,72.068h-2.837v-2.57h2.837V72.068z M834.26,80.434h-2.837v-2.569
			h2.837V80.434z M834.26,76.253h-2.837V73.68h2.837V76.253z M834.26,72.068h-2.837v-2.57h2.837V72.068z"/>
		<path fill="#19191A" d="M819.887,49.423h-8.896c-0.445,0-0.807,0.36-0.807,0.806v12.549c0,0.444,0.361,0.806,0.807,0.806h8.896
			c0.446,0,0.807-0.361,0.807-0.806V50.229C820.693,49.783,820.333,49.423,819.887,49.423z M814.633,61.971h-2.837V59.4h2.837
			V61.971z M814.633,57.79h-2.837v-2.573h2.837V57.79z M814.633,53.605h-2.837v-2.57h2.837V53.605z M819.082,61.971h-2.837V59.4
			h2.837V61.971z M819.082,57.79h-2.837v-2.573h2.837V57.79z M819.082,53.605h-2.837v-2.57h2.837V53.605z"/>
		<path fill="#19191A" d="M850.243,49.423h-8.898c-0.444,0-0.806,0.36-0.806,0.806v12.549c0,0.444,0.361,0.806,0.806,0.806h8.898
			c0.446,0,0.806-0.361,0.806-0.806V50.229C851.049,49.783,850.689,49.423,850.243,49.423z M844.988,61.971h-2.837V59.4h2.837
			V61.971z M844.988,57.79h-2.837v-2.573h2.837V57.79z M844.988,53.605h-2.837v-2.57h2.837V53.605z M849.438,61.971H846.6V59.4
			h2.838V61.971z M849.438,57.79H846.6v-2.573h2.838V57.79z M849.438,53.605H846.6v-2.57h2.838V53.605z"/>
		<path fill="#19191A" d="M835.065,49.423h-8.897c-0.445,0-0.807,0.36-0.807,0.806v12.549c0,0.444,0.361,0.806,0.807,0.806h8.897
			c0.446,0,0.806-0.361,0.806-0.806V50.229C835.871,49.783,835.512,49.423,835.065,49.423z M829.811,61.971h-2.837V59.4h2.837
			V61.971z M829.811,57.79h-2.837v-2.573h2.837V57.79z M829.811,53.605h-2.837v-2.57h2.837V53.605z M834.26,61.971h-2.837V59.4
			h2.837V61.971z M834.26,57.79h-2.837v-2.573h2.837V57.79z M834.26,53.605h-2.837v-2.57h2.837V53.605z"/>
	</g>
	<path fill="#19191A" d="M1322.013,148.37V81.752c0-0.445-0.361-0.807-0.806-0.807h-39.983c-0.445,0-0.806,0.361-0.806,0.807v28.979
		l-4.033-0.779V62.027h2.686c0.263,0,0.507-0.127,0.657-0.34c0.151-0.213,0.19-0.486,0.104-0.733l-3.228-9.207
		c-0.112-0.323-0.419-0.539-0.761-0.539h-8.487v-2.979l1.868,1.395c0.146,0.107,0.314,0.16,0.482,0.16
		c0.245,0,0.487-0.112,0.646-0.324c0.267-0.357,0.192-0.861-0.164-1.128l-9.683-7.224c-0.287-0.215-0.678-0.215-0.965,0
		l-9.683,7.224c-0.356,0.267-0.43,0.771-0.165,1.128c0.268,0.357,0.773,0.432,1.129,0.164l1.869-1.395v2.979h-9.57v-2.979
		l1.867,1.395c0.146,0.107,0.314,0.16,0.482,0.16c0.246,0,0.488-0.112,0.646-0.324c0.266-0.357,0.192-0.861-0.163-1.128
		l-9.685-7.224c-0.286-0.215-0.678-0.215-0.964,0l-9.683,7.224c-0.356,0.267-0.431,0.771-0.165,1.128
		c0.267,0.357,0.772,0.432,1.129,0.164l1.869-1.395v2.979h-8.488c-0.343,0-0.648,0.216-0.761,0.539l-3.228,9.207
		c-0.086,0.247-0.048,0.521,0.104,0.733s0.396,0.34,0.657,0.34h2.687v48.055l-4.039,0.674V82.477c0-0.445-0.361-0.807-0.806-0.807
		h-55.347c-0.444,0-0.806,0.361-0.806,0.807v3.016h-6.505v-9.014c0-0.445-0.361-0.807-0.806-0.807h-6.583
		c-0.445,0-0.807,0.361-0.807,0.807v9.014h-51.366c-0.444,0-0.805,0.359-0.805,0.806v4.263c0,0.446,0.36,0.807,0.805,0.807h2.148
		v16.561h-2.153v-5.507c0-0.446-0.359-0.806-0.806-0.806h-17.917c-0.445,0-0.805,0.359-0.805,0.806v6.313
		c0,0.445,0.359,0.806,0.805,0.806h2.152v1.228h-1.863c-0.445,0-0.806,0.361-0.806,0.807v3.023
		c-7.127,0.229-14.42,0.34-21.797,0.355v-6.135c0-0.444-0.361-0.805-0.807-0.805h-5.193c-0.446,0-0.808,0.36-0.808,0.805v6.123
		c-0.596-0.004-1.192-0.008-1.79-0.012V97.385c0-0.445-0.361-0.806-0.806-0.806c-0.445,0-0.806,0.36-0.806,0.806v4.836h-2.464
		v-1.344c0-0.445-0.359-0.807-0.806-0.807c-0.445,0-0.806,0.361-0.806,0.807v1.344h-2.53v-1.344c0-0.445-0.36-0.807-0.806-0.807
		s-0.807,0.361-0.807,0.807v1.344h-2.53v-1.344c0-0.445-0.36-0.807-0.806-0.807c-0.444,0-0.806,0.361-0.806,0.807v1.344h-1.747
		c-0.445,0-0.806,0.36-0.806,0.805c0,0.445,0.36,0.807,0.806,0.807h2.757l11.08,11.08c-36.218-0.361-73.564-2.85-102.867-5.374
		v-6.751h9.382c0.445,0,0.807-0.361,0.807-0.807c0-0.444-0.361-0.806-0.807-0.806h-1.747v-1.342c0-0.446-0.36-0.806-0.806-0.806
		S944,99.387,944,99.833v1.342h-2.206v-1.342c0-0.446-0.36-0.806-0.806-0.806s-0.807,0.359-0.807,0.806v1.342h-2.205V96.34
		c0-0.445-0.36-0.806-0.806-0.806s-0.806,0.36-0.806,0.806v4.835h-2.205v-1.342c0-0.446-0.361-0.806-0.807-0.806
		c-0.444,0-0.806,0.359-0.806,0.806v1.342h-2.206v-1.342c0-0.446-0.36-0.806-0.806-0.806s-0.807,0.359-0.807,0.806v1.342h-1.746
		c-0.444,0-0.806,0.361-0.806,0.806c0,0.445,0.361,0.807,0.806,0.807h9.382v6.611c-11.142-0.969-21.071-1.938-29.27-2.787V90.113
		h2.364c0.446,0,0.806-0.361,0.806-0.807v-4.033c0-0.444-0.359-0.806-0.806-0.806h-50.385v-43.34c0-0.444-0.361-0.806-0.807-0.806
		h-55.346c-0.445,0-0.806,0.361-0.806,0.806v16.021h-43.599v-7.42c0-0.444-0.36-0.806-0.806-0.806h-26.172l-1.703-12.493h2.3
		c0.445,0,0.806-0.359,0.806-0.806c0-0.444-0.36-0.806-0.806-0.806h-1.94c0.35-0.543,0.556-1.186,0.556-1.877V20.812
		c0-2.354-0.697-4.891-1.435-7.576c-0.789-2.877-1.604-5.844-1.759-9.066c0.648-0.357,1.088-1.105,1.088-1.972
		c0-1.212-0.876-2.198-1.955-2.198l-6.975,0.012c-1.078,0-1.954,0.986-1.954,2.198c0,0.866,0.439,1.614,1.088,1.972
		c-0.154,3.221-0.97,6.19-1.759,9.066c-0.738,2.686-1.434,5.223-1.434,7.576v12.128c0,0.687,0.202,1.325,0.548,1.866h-1.934
		c-0.444,0-0.806,0.361-0.806,0.806c0,0.446,0.361,0.806,0.806,0.806h2.266l-1.704,12.493h-15.14c-0.444,0-0.806,0.361-0.806,0.806
		v34.119h-15.246c-0.444,0-0.806,0.36-0.806,0.805v5.714h-13.42c-0.446,0-0.807,0.36-0.807,0.806v11.84
		c0,0.445,0.36,0.807,0.807,0.807h0.559v44.552h-14.663V81.752c0-0.445-0.361-0.807-0.806-0.807h-39.983
		c-0.444,0-0.807,0.361-0.807,0.807v28.979l-4.033-0.779V62.027h2.687c0.262,0,0.507-0.127,0.657-0.34
		c0.151-0.213,0.19-0.486,0.104-0.733l-3.228-9.207c-0.113-0.323-0.419-0.539-0.761-0.539h-8.487V48.23l1.868,1.393
		c0.146,0.107,0.314,0.16,0.481,0.16c0.246,0,0.489-0.112,0.646-0.324c0.267-0.357,0.192-0.862-0.164-1.128l-9.683-7.224
		c-0.287-0.215-0.678-0.215-0.965,0l-9.683,7.224c-0.356,0.266-0.431,0.771-0.165,1.128c0.268,0.357,0.773,0.432,1.129,0.164
		l1.868-1.395v2.979h-9.569V48.23l1.868,1.393c0.145,0.107,0.313,0.16,0.481,0.16c0.246,0,0.488-0.112,0.646-0.324
		c0.266-0.357,0.191-0.862-0.163-1.128l-9.685-7.224c-0.286-0.215-0.678-0.215-0.964,0l-9.683,7.224
		c-0.357,0.266-0.431,0.771-0.165,1.128c0.267,0.357,0.772,0.432,1.128,0.164l1.87-1.395v2.979h-8.489
		c-0.342,0-0.646,0.216-0.761,0.539l-3.228,9.207c-0.086,0.247-0.047,0.521,0.104,0.733c0.15,0.213,0.396,0.34,0.657,0.34h2.687
		v48.056l-4.04,0.673V82.477c0-0.445-0.36-0.807-0.806-0.807h-55.346c-0.444,0-0.806,0.361-0.806,0.807v3.016h-6.506v-9.014
		c0-0.445-0.36-0.807-0.806-0.807h-6.582c-0.445,0-0.807,0.361-0.807,0.807v9.014h-51.365c-0.445,0-0.807,0.359-0.807,0.806v4.263
		c0,0.446,0.361,0.807,0.807,0.807h2.146v16.561h-2.152v-5.507c0-0.444-0.36-0.806-0.806-0.806h-17.917
		c-0.445,0-0.806,0.361-0.806,0.806v6.313c0,0.445,0.36,0.806,0.806,0.806h2.152v1.228h-1.863c-0.445,0-0.806,0.361-0.806,0.807
		v3.022c-7.127,0.229-14.42,0.341-21.797,0.356v-6.135c0-0.444-0.361-0.806-0.807-0.806h-5.195c-0.444,0-0.806,0.361-0.806,0.806
		v6.123c-0.596-0.004-1.192-0.008-1.79-0.013V97.385c0-0.445-0.36-0.806-0.806-0.806c-0.446,0-0.806,0.36-0.806,0.806v4.835h-2.464
		v-1.342c0-0.446-0.36-0.806-0.806-0.806s-0.806,0.359-0.806,0.806v1.342h-2.53v-1.342c0-0.446-0.361-0.806-0.806-0.806
		c-0.446,0-0.807,0.359-0.807,0.806v1.342h-2.529v-1.342c0-0.446-0.361-0.806-0.807-0.806s-0.806,0.359-0.806,0.806v1.342h-1.747
		c-0.445,0-0.806,0.361-0.806,0.806c0,0.445,0.36,0.807,0.806,0.807h2.757l11.08,11.08c-36.219-0.361-73.563-2.85-102.867-5.374
		v-6.751h9.381c0.445,0,0.808-0.361,0.808-0.807c0-0.444-0.362-0.806-0.808-0.806h-1.746v-1.342c0-0.445-0.36-0.806-0.806-0.806
		s-0.806,0.36-0.806,0.806v1.342h-2.206v-1.342c0-0.445-0.36-0.806-0.806-0.806s-0.807,0.36-0.807,0.806v1.342h-2.205V96.34
		c0-0.445-0.36-0.807-0.806-0.807s-0.806,0.361-0.806,0.807v4.835h-2.205v-1.342c0-0.445-0.361-0.806-0.807-0.806
		c-0.444,0-0.806,0.36-0.806,0.806v1.342h-2.206v-1.342c0-0.445-0.36-0.806-0.806-0.806s-0.807,0.36-0.807,0.806v1.342h-1.746
		c-0.444,0-0.806,0.361-0.806,0.806c0,0.445,0.361,0.807,0.806,0.807h9.382v6.611c-11.143-0.97-21.071-1.938-29.27-2.787V90.113
		h2.364c0.445,0,0.806-0.361,0.806-0.807v-4.033c0-0.444-0.36-0.806-0.806-0.806h-50.386v-43.34c0-0.444-0.36-0.806-0.806-0.806
		h-55.346c-0.446,0-0.806,0.361-0.806,0.806v16.021H91.819v-7.42c0-0.445-0.36-0.806-0.806-0.806H32.996
		c-0.445,0-0.806,0.36-0.806,0.806v34.118H16.945c-0.447,0-0.807,0.361-0.807,0.806v5.713H2.718c-0.445,0-0.806,0.361-0.806,0.807
		v11.84c0,0.445,0.36,0.807,0.806,0.807h0.56v44.552h-3.953V150l4.994-0.006l392.349,0.004V150h939.007l0.002-1.63H1322.013z
		 M17.75,85.459h14.44v16.747H17.75V85.459z M3.523,91.979h12.615v10.228H4.084H3.523V91.979z M15.049,127.651l-0.104-1.989h1.512
		l-0.105,1.989H15.049z M14.094,124.05h-0.057l0.867-0.927h1.744l0.807,0.927h-0.148H14.094z M45.051,148.382H16.507v-18.77
		c0-0.125-0.031-0.243-0.083-0.35h0.693c0.428,0,0.781-0.335,0.805-0.763l0.15-2.838h1.152c0,0,0.007,0,0.012,0
		c0.444,0,0.805-0.361,0.805-0.807c0-0.242-0.107-0.462-0.278-0.609l-2.138-2.458c-0.153-0.176-0.375-0.277-0.608-0.277h-2.46
		c-0.223,0-0.436,0.092-0.589,0.255l-2.38,2.539c-0.219,0.234-0.279,0.577-0.151,0.871c0.128,0.295,0.419,0.486,0.74,0.486h1.153
		l0.149,2.838c0.022,0.428,0.376,0.763,0.806,0.763h0.691c-0.051,0.106-0.082,0.225-0.082,0.35v18.77H4.89v-44.563h12.056h16.051
		h12.055V148.382z M46.417,102.206h-0.561H33.803V91.979h12.614V102.206z M90.208,148.382H46.664v-44.563h0.559
		c0.04,0,0.078-0.006,0.117-0.013c0.038,0.007,0.076,0.013,0.116,0.013h42.752V148.382z M90.208,94.312H79.57
		c-0.444,0-0.805,0.361-0.805,0.807s0.36,0.806,0.805,0.806h10.638v2.334h-6.872c-0.446,0-0.807,0.361-0.807,0.806
		c0,0.446,0.36,0.807,0.807,0.807h6.872v2.335h-42.18v-2.335h3.151c0.445,0,0.806-0.36,0.806-0.807c0-0.444-0.36-0.806-0.806-0.806
		h-3.151v-2.334h17.374c0.446,0,0.807-0.36,0.807-0.806s-0.36-0.807-0.807-0.807H48.028v-2.334h42.18V94.312z M90.208,90.365H47.456
		c-0.04,0-0.078,0.008-0.116,0.013c-0.039-0.005-0.077-0.013-0.117-0.013h-13.42v-2.334h56.405V90.365z M90.208,86.42H33.803v-1.768
		v-4.224h56.405V86.42z M90.208,67.097v11.72H33.803V50.535h14.943l-0.011,0.076l0.077-0.076h15.385l0.079,0.078l-0.011-0.078
		h25.942V67.097z M106.267,148.377h-6.723V132.79h6.723V148.377z M135.41,93.059v55.319h-27.531v-16.394
		c0-0.446-0.361-0.807-0.807-0.807h-8.335c-0.444,0-0.806,0.36-0.806,0.807v16.393h-6.112V67.902l43.591,0.002V93.059z
		 M135.418,66.293l-43.599-0.002v-2.153h43.599V66.293z M135.418,62.525H91.819v-3.765h43.599V62.525z M241.955,86.08v2.421h-59.722
		V86.08H241.955z M238.784,90.113v22.666h-56.551V90.113H238.784z M185.457,41.934h5.306v2.211h-1.883h-3.423V41.934z
		 M178.539,41.934h5.306v2.211h-5.306V41.934z M171.62,41.934h5.307v2.211h-5.307V41.934z M164.702,41.934h5.307v2.211h-5.307
		V41.934z M157.784,41.934h5.307v2.211h-5.307V41.934z M150.865,41.934h5.307v2.211h-5.307V41.934z M143.947,41.934h5.307v2.211
		h-5.307V41.934z M137.029,41.934h5.307v2.211h-3.424h-1.883V41.934z M137.029,90.113h1.883h1.527v2.945h-3.41V90.113z
		 M147.481,148.378h-2.385v-3.546h2.385V148.378z M151.477,148.378h-2.384v-3.546h2.384V148.378z M180.622,113.586v3.761v31.031
		h-2.992v-8.965c0-0.445-0.361-0.807-0.807-0.807c-0.444,0-0.806,0.361-0.806,0.807v8.965h-13.303v-8.965
		c0-0.445-0.362-0.807-0.808-0.807c-0.444,0-0.806,0.361-0.806,0.807v8.965h-8.013v-4.352c0-0.446-0.36-0.807-0.807-0.807h-7.991
		c-0.445,0-0.807,0.36-0.807,0.807v4.352h-6.462V94.671h43.6V113.586z M142.052,93.059v-2.945h3.411v2.945H142.052z M147.074,93.059
		v-2.945h3.411v2.945H147.074z M152.098,93.059v-2.945h3.411v2.945H152.098z M157.121,93.059v-2.945h3.41v2.945H157.121z
		 M162.143,93.059v-2.945h3.411v2.945H162.143z M167.167,93.059v-2.945h3.409v2.945H167.167z M172.188,93.059v-2.945h3.411v2.945
		H172.188z M180.622,93.059h-3.41v-2.945h3.41V93.059z M180.622,85.273v3.056v0.172h-41.71h-1.883V86.08h1.883
		c0.445,0,0.807-0.36,0.807-0.807c0-0.444-0.361-0.806-0.807-0.806h-1.883v-2.42h1.883c0.445,0,0.807-0.36,0.807-0.806
		s-0.361-0.807-0.807-0.807h-1.883v-2.42h1.883c0.445,0,0.807-0.361,0.807-0.807s-0.361-0.807-0.807-0.807h-1.883v-2.42h1.883
		c0.445,0,0.807-0.36,0.807-0.806c0-0.444-0.361-0.806-0.807-0.806h-1.883v-2.422h1.883c0.445,0,0.807-0.359,0.807-0.805
		s-0.361-0.807-0.807-0.807h-1.883v-2.42h1.883c0.445,0,0.807-0.361,0.807-0.807c0-0.444-0.361-0.806-0.807-0.806h-1.883v-2.42
		h1.883c0.445,0,0.807-0.36,0.807-0.806c0-0.446-0.361-0.807-0.807-0.807h-1.883v-2.42h1.883c0.445,0,0.807-0.361,0.807-0.807
		s-0.361-0.807-0.807-0.807h-1.883v-2.42h1.883c0.445,0,0.807-0.36,0.807-0.805c0-0.447-0.361-0.807-0.807-0.807h-1.883v-2.421
		h1.883c0.445,0,0.807-0.361,0.807-0.806c0-0.445-0.361-0.807-0.807-0.807h-1.883v-2.42h1.883h49.968h1.883v2.42h-1.883
		c-0.445,0-0.807,0.361-0.807,0.807c0,0.444,0.361,0.806,0.807,0.806h1.883v2.421h-1.883c-0.445,0-0.807,0.359-0.807,0.807
		c0,0.444,0.361,0.805,0.807,0.805h1.883v2.42h-1.883c-0.445,0-0.807,0.361-0.807,0.807s0.361,0.807,0.807,0.807h1.883v2.42h-1.883
		c-0.445,0-0.807,0.36-0.807,0.807c0,0.445,0.361,0.806,0.807,0.806h1.883v2.42h-1.883c-0.445,0-0.807,0.361-0.807,0.806
		c0,0.445,0.361,0.807,0.807,0.807h1.883v2.42h-1.883c-0.445,0-0.807,0.361-0.807,0.807s0.361,0.805,0.807,0.805h1.883v2.422h-1.883
		c-0.445,0-0.807,0.361-0.807,0.806c0,0.445,0.361,0.806,0.807,0.806h1.883v2.42h-1.883c-0.445,0-0.807,0.361-0.807,0.807
		s0.361,0.807,0.807,0.807h1.883v2.42h-1.883c-0.445,0-0.807,0.361-0.807,0.807s0.361,0.806,0.807,0.806h1.883v2.42h-1.883h-7.452
		C180.982,84.468,180.622,84.829,180.622,85.273z M196.515,148.379h-9.016v-7.127h9.016V148.379z M196.515,139.64h-9.016v-7.126
		h9.016V139.64z M190.149,128.746v2.155h-2.65v-2.155H190.149z M187.499,127.135v-2.155h2.65v2.155H187.499z M194.415,128.746v2.155
		h-2.654v-2.155H194.415z M191.761,127.135v-2.155h2.654v2.155H191.761z M198.678,128.746v2.155h-2.651v-2.155H198.678z
		 M196.026,127.135v-2.155h2.651v2.155H196.026z M207.144,148.379h-9.017v-7.127h9.017V148.379z M207.144,139.64h-9.017v-7.126
		h1.356c0,0,0.003-0.001,0.005-0.001h7.655V139.64z M200.291,130.901v-5.923h15.319v5.923H200.291z M217.772,148.379h-9.017v-7.127
		h9.017V148.379z M217.772,139.64h-9.017v-7.127h7.654c0,0,0.004,0.001,0.006,0.001h1.356V139.64z M219.873,128.746v2.155h-2.651
		v-2.155H219.873z M217.222,127.135v-2.155h2.651v2.155H217.222z M228.401,148.379h-9.017v-7.127h9.017V148.379z M228.401,139.64
		h-9.017v-7.126h9.017V139.64z M224.139,128.746v2.155h-2.654v-2.155H224.139z M221.484,127.135v-2.155h2.654v2.155H221.484z
		 M228.401,130.901h-2.65v-2.155h2.65V130.901z M225.75,127.135v-2.155h2.65v2.155H225.75z M233.666,148.379h-3.652v-16.671v-0.001
		v-7.533c0-0.446-0.361-0.806-0.807-0.806h-12.791h-16.933h-12.791c-0.445,0-0.806,0.359-0.806,0.806v7.533v0.001v16.671h-3.653
		v-30.226h51.433V148.379z M269.666,148.382h-34.389v-30.229h6.357c2.295,0,3.92,0.581,4.831,1.729
		c0.896,1.129,0.922,2.591,0.851,3.397c-2.465,0.219-4.405,2.293-4.405,4.813c0,0.445,0.361,0.806,0.807,0.806h8.06
		c0,0,0.007,0,0.012,0c0.444,0,0.806-0.36,0.806-0.806c0-0.049-0.005-0.097-0.014-0.144c-0.063-2.196-1.603-4.024-3.655-4.541
		c0.094-1.071,0.036-2.963-1.188-4.516c-1.23-1.561-3.285-2.352-6.104-2.352h-7.163h-52.238v-2.148h57.357h3.718
		c0.445,0,0.806-0.361,0.806-0.807s-0.36-0.807-0.806-0.807h-2.912v-4.547c8.208,0.849,18.136,1.816,29.27,2.785V148.382z
		 M247.748,124.869c1.499,0,2.763,1.028,3.121,2.418h-6.243C244.983,125.897,246.248,124.869,247.748,124.869z M293.487,130.645
		c0.151,0.212,0.396,0.338,0.656,0.338h0.163v12.014h-1.431c-0.445,0-0.807,0.36-0.807,0.806s0.361,0.806,0.807,0.806h1.431v3.774
		h-23.029v-37.226c6.079,0.522,12.499,1.045,19.187,1.545c0.034,0.041,0.073,0.08,0.118,0.115
		c5.859,4.598,12.977,7.545,17.756,9.173h-4.208c-0.445,0-0.807,0.36-0.807,0.806v2.765h-4.074c-4.316,0-5.807,4.177-5.867,4.354
		C293.297,130.16,293.336,130.433,293.487,130.645z M313.876,123.601c0.001,0,0.002,0,0.002,0h0.002h0.027v1.959h-8.972v-1.959
		H313.876z M342.951,148.382h-4.885v-10.117h4.885V148.382z M347.248,148.382h-2.685v-10.923c0-0.445-0.361-0.806-0.806-0.806
		h-6.497c-0.445,0-0.806,0.36-0.806,0.806v10.923h-40.536v-3.774h35.462c0.445,0,0.806-0.36,0.806-0.806s-0.36-0.806-0.806-0.806
		h-35.462v-12.014h51.329V148.382z M348.054,129.371H295.46c0.624-0.953,1.815-2.199,3.789-2.199h4.881h10.584h31.652
		c1.321,0,2.005,1.276,2.328,2.199H348.054z M374.414,148.382h-25.555v-17.399h0.88c0,0,0.007,0,0.012,0
		c0.444,0,0.806-0.36,0.806-0.806c0-0.095-0.017-0.186-0.047-0.27c-0.153-0.789-1.019-4.348-4.144-4.348H315.52v-2.765
		c0-0.445-0.361-0.806-0.806-0.806h-0.739c-1.035-0.255-11.836-3.016-20.534-9.067c24.938,1.824,53.287,3.337,80.974,3.604V148.382z
		 M374.414,112.9l-9.07-9.068h9.07V112.9z M407.742,107.929v-4.702h16.306v4.702H407.742z M408.031,112.38h6.024v15.762h-6.024
		V112.38z M379.428,109.625h3.583v7.373h-3.583V109.625z M427.812,148.37h-31.145v0.012h-20.642v-31.841
		c0.598,0.005,1.194,0.008,1.79,0.012v1.251c0,0.445,0.361,0.807,0.806,0.807h5.195c0.445,0,0.807-0.361,0.807-0.807v-1.241
		c7.373-0.015,14.673-0.125,21.797-0.353v12.739c0,0.444,0.36,0.806,0.806,0.806h6.964h0.672h12.95V148.37z M427.812,128.143
		h-12.144v-16.568c0-0.445-0.361-0.807-0.807-0.807H410.7v-1.228h14.153h2.958V128.143z M478.643,77.283h4.97v8.207h-4.97V77.283z
		 M426.471,89.755v-2.651h51.366h6.582h7.101v2.651h-62.902H426.471z M491.73,91.367v4.199h-3.301v-4.199H491.73z M486.818,91.367
		v4.199h-3.305v-4.199H486.818z M481.9,91.367v4.199h-3.305v-4.199H481.9z M476.983,91.367v4.199h-3.305v-4.199H476.983z
		 M472.066,91.367v4.199h-3.305v-4.199H472.066z M467.149,91.367v4.199h-3.305v-4.199H467.149z M462.231,91.367v4.199h-3.305v-4.199
		H462.231z M457.315,91.367v4.199h-3.305v-4.199H457.315z M452.398,91.367v4.199h-3.306v-4.199H452.398z M447.48,91.367v4.199
		h-3.305v-4.199H447.48z M442.562,91.367v4.199h-3.305v-4.199H442.562z M437.646,91.367v4.199h-3.305v-4.199H437.646z
		 M432.729,91.367v4.199h-3.305v-4.199H432.729z M491.735,148.37h-62.312V97.179h62.307v33.477c0,0.017,0.004,0.032,0.005,0.05
		V148.37z M541.77,83.281h5.307v2.211h-1.883h-3.424V83.281z M534.852,83.281h5.306v2.211h-5.306V83.281z M527.934,83.281h5.306
		v2.211h-5.306V83.281z M521.016,83.281h5.306v2.211h-5.306V83.281z M514.098,83.281h5.306v2.211h-5.306V83.281z M507.179,83.281
		h5.306v2.211h-5.306V83.281z M500.261,83.281h5.306v2.211h-5.306V83.281z M493.343,83.281h5.306v2.211h-3.423h-1.883V83.281z
		 M493.343,87.104h1.883h49.968h1.883v2.42h-1.883c-0.444,0-0.806,0.361-0.806,0.807s0.361,0.806,0.806,0.806h1.883v2.421h-1.883
		c-0.444,0-0.806,0.36-0.806,0.807c0,0.445,0.361,0.806,0.806,0.806h1.883v2.42h-1.883c-0.444,0-0.806,0.36-0.806,0.806
		s0.361,0.807,0.806,0.807h1.883v2.421h-1.883c-0.444,0-0.806,0.36-0.806,0.806s0.361,0.807,0.806,0.807h1.883v2.42h-1.883
		c-0.444,0-0.806,0.361-0.806,0.806s0.361,0.806,0.806,0.806h1.883v2.42h-1.883c-0.444,0-0.806,0.361-0.806,0.807
		s0.361,0.806,0.806,0.806h1.883v2.421h-1.883c-0.444,0-0.806,0.361-0.806,0.807c0,0.444,0.361,0.806,0.806,0.806h1.883v2.42h-1.883
		c-0.444,0-0.806,0.361-0.806,0.806c0,0.446,0.361,0.807,0.806,0.807h1.883v2.421h-1.883c-0.444,0-0.806,0.36-0.806,0.806
		s0.361,0.806,0.806,0.806h1.883v2.42h-1.883c-0.444,0-0.806,0.361-0.806,0.807c0,0.446,0.361,0.806,0.806,0.806h1.883v2.421h-1.883
		h-49.968h-1.878v-2.421h1.878c0.446,0,0.806-0.359,0.806-0.806c0-0.445-0.359-0.807-0.806-0.807h-1.878v-2.42h1.878
		c0.446,0,0.806-0.36,0.806-0.806s-0.359-0.806-0.806-0.806h-1.878v-2.421h1.878c0.446,0,0.806-0.36,0.806-0.807
		c0-0.444-0.359-0.806-0.806-0.806h-1.878v-2.42h1.878c0.446,0,0.806-0.361,0.806-0.806c0-0.445-0.359-0.807-0.806-0.807h-1.878
		v-2.421h1.878c0.446,0,0.806-0.36,0.806-0.806s-0.359-0.807-0.806-0.807h-1.878v-2.42h1.878c0.446,0,0.806-0.361,0.806-0.806
		s-0.359-0.806-0.806-0.806h-1.878v-2.42h1.878c0.446,0,0.806-0.361,0.806-0.807s-0.359-0.806-0.806-0.806h-1.878v-2.421h1.878
		c0.446,0,0.806-0.361,0.806-0.807s-0.359-0.806-0.806-0.806h-1.878v-2.42h1.878c0.446,0,0.806-0.36,0.806-0.806
		c0-0.446-0.359-0.807-0.806-0.807h-1.878v-2.421h1.878c0.446,0,0.806-0.36,0.806-0.806s-0.359-0.807-0.806-0.807h-1.883V87.104z
		 M513.803,148.37h-6.987v-5.81c0-1.926,1.568-3.494,3.494-3.494s3.493,1.568,3.493,3.494V148.37z M518.107,148.37h-2.693v-5.81
		c0-2.814-2.289-5.105-5.104-5.105s-5.106,2.291-5.106,5.105v5.81h-2.692v-12.968h13.115l1.234,2.476
		c0.136,0.273,0.416,0.446,0.722,0.446h0.525V148.37z M520.889,148.37h-1.169v-10.046h1.169V148.37z M518.08,136.712l-0.652-1.31
		h5.538l-0.66,1.31H518.08z M533.777,148.37h-6.986v-5.81c0-1.926,1.566-3.494,3.492-3.494c1.927,0,3.494,1.568,3.494,3.494V148.37z
		 M538.08,148.37h-2.691v-5.81c0-2.814-2.29-5.105-5.105-5.105c-2.814,0-5.104,2.291-5.104,5.105v5.81h-2.678v-10.046h0.302
		c0.304,0,0.582-0.171,0.72-0.444l1.247-2.478h13.311V148.37z M547.086,148.37h-7.394v-12.968h4.207c0.445,0,0.806-0.36,0.806-0.807
		c0-0.444-0.36-0.806-0.806-0.806h-19.627h-8.148h-19.778c-0.445,0-0.806,0.361-0.806,0.806c0,0.446,0.36,0.807,0.806,0.807h4.553
		v12.968h-7.551v-16.909h1.878h49.968h1.893V148.37z M600.657,52.82h7.915l2.663,7.595h-2.356h-8.222V52.82z M606.19,69.881h1.882
		v2.421h-1.882c-0.444,0-0.806,0.36-0.806,0.806s0.361,0.807,0.806,0.807h1.882v2.42h-1.882c-0.444,0-0.806,0.361-0.806,0.807
		c0,0.444,0.361,0.805,0.806,0.805h1.882v2.422h-1.882c-0.444,0-0.806,0.359-0.806,0.806c0,0.444,0.361,0.806,0.806,0.806h1.882
		v2.42h-1.882c-0.444,0-0.806,0.361-0.806,0.807s0.361,0.806,0.806,0.806h1.882v2.42h-1.882c-0.444,0-0.806,0.361-0.806,0.806
		c0,0.445,0.361,0.807,0.806,0.807h1.882v2.421h-1.882c-0.444,0-0.806,0.36-0.806,0.806s0.361,0.807,0.806,0.807h1.882v2.42h-1.882
		c-0.444,0-0.806,0.361-0.806,0.806c0,0.446,0.361,0.806,0.806,0.806h1.882v2.422h-1.882c-0.444,0-0.806,0.361-0.806,0.806
		s0.361,0.806,0.806,0.806h1.882v2.42h-1.882c-0.444,0-0.806,0.361-0.806,0.807s0.361,0.806,0.806,0.806h1.882v3.468l-14.256-2.755
		v-3.435c0-0.444-0.361-0.805-0.806-0.805h-23.609c-0.444,0-0.806,0.36-0.806,0.805v3.984l-14.256,2.379v-3.642h1.883
		c0.445,0,0.806-0.36,0.806-0.806s-0.36-0.807-0.806-0.807h-1.883v-2.42h1.883c0.445,0,0.806-0.361,0.806-0.806
		s-0.36-0.806-0.806-0.806h-1.883v-2.422h1.883c0.445,0,0.806-0.359,0.806-0.806c0-0.444-0.36-0.806-0.806-0.806h-1.883v-2.42h1.883
		c0.445,0,0.806-0.361,0.806-0.807s-0.36-0.806-0.806-0.806h-1.883v-2.421h1.883c0.445,0,0.806-0.361,0.806-0.807
		c0-0.444-0.36-0.806-0.806-0.806h-1.883v-2.42h1.883c0.445,0,0.806-0.36,0.806-0.806s-0.36-0.807-0.806-0.807h-1.883v-2.42h1.883
		c0.445,0,0.806-0.361,0.806-0.806c0-0.446-0.36-0.806-0.806-0.806h-1.883v-2.422h1.883c0.445,0,0.806-0.36,0.806-0.805
		c0-0.445-0.36-0.807-0.806-0.807h-1.883v-2.42h1.883c0.445,0,0.806-0.361,0.806-0.807s-0.36-0.806-0.806-0.806h-1.883v-2.421h1.883
		c0.445,0,0.806-0.361,0.806-0.807c0-0.444-0.36-0.805-0.806-0.805h-1.883v-2.422h1.883h49.968h1.882v2.422h-1.882
		c-0.444,0-0.806,0.36-0.806,0.805C605.385,69.52,605.746,69.881,606.19,69.881z M554.34,64.236v-2.209h5.306v2.209h-3.423H554.34z
		 M568.176,64.236v-2.209h5.306v2.209H568.176z M588.931,64.236v-2.209h5.306v2.209H588.931z M595.849,64.236v-2.209h5.306v2.209
		H595.849z M606.19,64.236h-3.424v-2.209h5.306v2.209H606.19z M587.604,47.025l5.721-4.268l5.722,4.27v13.384h-11.442V47.025z
		 M587.318,62.027v2.209h-5.306v-2.209H587.318z M576.422,52.82h9.569v7.595h-9.569V52.82z M575.094,62.027h5.306v2.209h-5.306
		V62.027z M563.368,47.025l5.721-4.268l5.721,4.27v13.384h-11.441V47.025z M566.563,62.027v2.209h-5.306v-2.209H566.563z
		 M551.178,60.415l2.663-7.595h7.916v7.595h-8.224H551.178z M583.603,148.37h-4.791v-10.64h4.791V148.37z M613.716,148.37h-28.501
		v-11.444c0-0.446-0.361-0.806-0.807-0.806h-6.402c-0.445,0-0.807,0.359-0.807,0.806v11.444h-28.502v-35.981l20.837-3.475
		c0.39-0.064,0.674-0.401,0.674-0.795v-3.861h21.997v3.293c0,0.387,0.273,0.719,0.653,0.791l20.857,4.029V148.37z M615.33,103.92
		h7.886v6.089h-7.886V103.92z M615.33,111.621h38.37v1.076h-38.37V111.621z M624.827,110.009v-6.089h1.933v6.089H624.827z
		 M628.373,110.009v-6.089h12.493v6.089H628.373z M642.478,110.009v-6.089h1.728v6.089H642.478z M627.35,148.37h-6.953v-13.737
		h6.953V148.37z M653.701,148.37h-24.739v-14.543c0-0.445-0.361-0.807-0.807-0.807h-8.564c-0.445,0-0.807,0.361-0.807,0.807v14.543
		h-3.454v-34.062h38.371V148.37z M653.701,110.009h-7.885v-6.089h7.885V110.009z M653.701,102.309h-38.37v-1.347h38.37V102.309z
		 M653.701,99.35h-38.37V82.559h38.37V99.35z M729.656,47.033l-5.309-5.27l4.043-4.013L729.656,47.033z M729.272,48.923h-12.137
		l6.068-6.024L729.272,48.923z M718.976,36.43h0.163h0.001h8.293l-4.229,4.198L718.976,36.43z M717.271,20.824
		c0-2.137,0.668-4.571,1.375-7.149c0.824-3.002,1.758-6.403,1.838-10.056c0.01-0.439-0.334-0.805-0.771-0.823
		c-0.141-0.006-0.338-0.231-0.338-0.586c0-0.358,0.202-0.586,0.343-0.586l6.975-0.013c0.141,0,0.343,0.229,0.343,0.587
		c0,0.354-0.196,0.579-0.338,0.586c-0.438,0.019-0.78,0.384-0.771,0.823c0.078,3.652,1.012,7.054,1.836,10.056
		c0.708,2.578,1.377,5.013,1.377,7.149v12.129c0,1.029-0.838,1.865-1.869,1.865l-8.135,0.012c-1.029,0-1.865-0.838-1.865-1.866
		V20.824z M717.988,37.723l4.071,4.041l-5.346,5.307L717.988,37.723z M684.45,85.459h14.439v16.747H684.45V85.459z M670.224,102.206
		V91.979h12.614v10.228h-12.055H670.224z M681.749,127.651l-0.105-1.989h1.514l-0.106,1.989H681.749z M680.794,124.05h-0.059
		l0.869-0.927h1.744l0.806,0.927h-0.147H680.794z M711.751,148.37h-28.545v-18.758c0-0.125-0.031-0.243-0.083-0.35h0.692
		c0.429,0,0.782-0.335,0.806-0.763l0.149-2.838h1.154c0.003,0,0.006,0,0.01,0c0.445,0,0.807-0.361,0.807-0.806
		c0-0.243-0.108-0.463-0.279-0.61l-2.138-2.458c-0.153-0.176-0.375-0.277-0.608-0.277h-2.46c-0.223,0-0.437,0.092-0.588,0.255
		l-2.38,2.539c-0.221,0.234-0.28,0.577-0.152,0.871c0.128,0.295,0.419,0.486,0.74,0.486h1.153l0.149,2.838
		c0.023,0.428,0.376,0.763,0.805,0.763h0.692c-0.051,0.106-0.082,0.225-0.082,0.35v18.758h-10.005v-44.552h12.055h16.052h12.056
		V148.37z M713.116,102.206h-0.56h-12.055V91.979h12.614V102.206z M756.907,148.37h-43.544v-44.552h0.559
		c0.04,0,0.078-0.006,0.117-0.012c0.038,0.006,0.077,0.012,0.117,0.012h42.751V148.37z M756.907,94.312h-10.637
		c-0.445,0-0.806,0.361-0.806,0.807s0.36,0.806,0.806,0.806h10.637v2.334h-6.872c-0.445,0-0.807,0.361-0.807,0.806
		c0,0.445,0.361,0.807,0.807,0.807h6.872v2.335h-42.18v-2.335h3.151c0.445,0,0.806-0.361,0.806-0.807
		c0-0.444-0.36-0.806-0.806-0.806h-3.151v-2.334h17.375c0.445,0,0.807-0.36,0.807-0.806s-0.361-0.807-0.807-0.807h-17.375v-2.334
		h42.18V94.312z M756.907,90.366h-42.751c-0.04,0-0.079,0.006-0.117,0.012c-0.039-0.006-0.077-0.012-0.117-0.012h-13.42v-2.334
		h56.405V90.366z M756.907,86.42h-56.405v-1.768V80.43h56.405V86.42z M756.907,67.098v11.719h-56.405V50.535h14.942l-0.01,0.076
		l0.077-0.076h15.385l0.079,0.078l-0.011-0.078h25.942V67.098z M772.966,148.37h-6.723v-15.58h6.723V148.37z M802.109,93.059v55.312
		h-27.531v-16.386c0-0.446-0.361-0.807-0.807-0.807h-8.335c-0.444,0-0.806,0.36-0.806,0.807v16.386h-6.112V67.902l43.591,0.002
		V93.059z M802.117,66.293l-43.599-0.002v-2.152h43.599V66.293z M802.117,62.525h-43.599v-3.764h43.599V62.525z M908.653,86.08
		v2.421h-59.721V86.08H908.653z M905.483,90.113v22.666h-56.551V90.113H905.483z M852.157,41.934h5.306v2.211h-1.884h-3.422V41.934z
		 M845.238,41.934h5.306v2.211h-5.306V41.934z M838.319,41.934h5.307v2.211h-5.307V41.934z M831.401,41.934h5.307v2.211h-5.307
		V41.934z M824.483,41.934h5.307v2.211h-5.307V41.934z M817.565,41.934h5.307v2.211h-5.307V41.934z M810.646,41.934h5.307v2.211
		h-5.307V41.934z M803.729,41.934h5.308v2.211h-3.423h-1.885V41.934z M803.729,90.113h1.885h1.526v2.945h-3.411V90.113z
		 M814.18,148.37h-2.384v-3.538h2.384V148.37z M818.177,148.37h-2.384v-3.538h2.384V148.37z M847.32,113.586v3.76v31.024h-2.991
		v-8.957c0-0.445-0.36-0.806-0.807-0.806c-0.444,0-0.806,0.36-0.806,0.806v8.957h-13.303v-8.957c0-0.445-0.361-0.806-0.807-0.806
		s-0.806,0.36-0.806,0.806v8.957h-8.014v-4.344c0-0.446-0.36-0.807-0.807-0.807h-7.991c-0.445,0-0.807,0.36-0.807,0.807v4.344
		h-6.462V94.671h43.599V113.586z M808.751,93.059v-2.945h3.411v2.945H808.751z M813.773,93.059v-2.945h3.411v2.945H813.773z
		 M818.797,93.059v-2.945h3.411v2.945H818.797z M823.819,93.059v-2.945h3.411v2.945H823.819z M828.843,93.059v-2.945h3.411v2.945
		H828.843z M833.866,93.059v-2.945h3.409v2.945H833.866z M838.888,93.059v-2.945h3.411v2.945H838.888z M847.32,93.059h-3.409v-2.945
		h3.409V93.059z M847.32,85.273v3.056v0.172h-41.707h-1.885V86.08h1.885c0.444,0,0.806-0.359,0.806-0.807
		c0-0.444-0.361-0.806-0.806-0.806h-1.885v-2.42h1.885c0.444,0,0.806-0.36,0.806-0.806s-0.361-0.807-0.806-0.807h-1.885v-2.42h1.885
		c0.444,0,0.806-0.361,0.806-0.807s-0.361-0.807-0.806-0.807h-1.885v-2.42h1.885c0.444,0,0.806-0.36,0.806-0.806
		c0-0.444-0.361-0.806-0.806-0.806h-1.885V69.95h1.885c0.444,0,0.806-0.36,0.806-0.806s-0.361-0.807-0.806-0.807h-1.885v-2.42h1.885
		c0.444,0,0.806-0.361,0.806-0.807c0-0.444-0.361-0.805-0.806-0.805h-1.885v-2.42h1.885c0.444,0,0.806-0.361,0.806-0.807
		c0-0.446-0.361-0.807-0.806-0.807h-1.885v-2.42h1.885c0.444,0,0.806-0.361,0.806-0.807s-0.361-0.806-0.806-0.806h-1.885V53.82
		h1.885c0.444,0,0.806-0.36,0.806-0.805c0-0.447-0.361-0.807-0.806-0.807h-1.885v-2.421h1.885c0.444,0,0.806-0.361,0.806-0.806
		c0-0.445-0.361-0.807-0.806-0.807h-1.885v-2.42h1.885h49.966h1.884v2.42h-1.884c-0.445,0-0.807,0.361-0.807,0.807
		c0,0.444,0.361,0.806,0.807,0.806h1.884v2.421h-1.884c-0.445,0-0.807,0.359-0.807,0.807c0,0.444,0.361,0.805,0.807,0.805h1.884
		v2.421h-1.884c-0.445,0-0.807,0.36-0.807,0.806s0.361,0.807,0.807,0.807h1.884v2.42h-1.884c-0.445,0-0.807,0.36-0.807,0.807
		c0,0.445,0.361,0.807,0.807,0.807h1.884v2.42h-1.884c-0.445,0-0.807,0.36-0.807,0.805c0,0.445,0.361,0.807,0.807,0.807h1.884v2.42
		h-1.884c-0.445,0-0.807,0.361-0.807,0.807s0.361,0.806,0.807,0.806h1.884v2.421h-1.884c-0.445,0-0.807,0.361-0.807,0.806
		c0,0.445,0.361,0.806,0.807,0.806h1.884v2.42h-1.884c-0.445,0-0.807,0.361-0.807,0.807s0.361,0.807,0.807,0.807h1.884v2.42h-1.884
		c-0.445,0-0.807,0.361-0.807,0.807s0.361,0.806,0.807,0.806h1.884v2.42h-1.884h-7.452C847.682,84.468,847.32,84.829,847.32,85.273z
		 M863.214,148.37h-9.017v-7.118h9.017V148.37z M863.214,139.64h-9.017v-7.126h9.017V139.64z M856.848,127.135h-2.65v-2.154h2.65
		V127.135z M856.849,128.746v2.155h-2.649v-2.155H856.849z M861.113,128.746v2.155h-2.653v-2.155H861.113z M858.461,127.135v-2.154
		h2.654v2.154H858.461z M865.377,128.746v2.155h-2.651v-2.155H865.377z M862.726,127.134v-2.155h2.651v2.155H862.726z
		 M873.844,148.37h-9.017v-7.118h9.017V148.37z M873.844,139.64h-9.018v-7.126h1.356c0.003,0,0.004-0.001,0.006-0.001h7.655V139.64z
		 M866.99,130.901v-5.923h15.319v5.923H866.99z M884.472,148.37h-9.017v-7.118h9.017V148.37z M884.472,139.64h-9.016v-7.127h7.654
		c0.001,0,0.003,0.001,0.006,0.001h1.355V139.64z M886.572,128.746v2.155h-2.65v-2.155H886.572z M883.922,127.134v-2.155h2.65v2.155
		H883.922z M895.101,148.37h-9.017v-7.118h9.017V148.37z M895.101,139.64h-9.017v-7.126h9.017V139.64z M890.838,128.746v2.155
		h-2.654v-2.155H890.838z M888.184,127.135v-2.154h2.654v2.154H888.184z M895.101,130.901h-2.65v-2.155h2.65V130.901z
		 M895.101,127.135h-2.65v-2.154h2.65V127.135z M900.365,148.37h-3.652v-16.662v-0.001v-7.533c0-0.446-0.361-0.806-0.806-0.806
		h-12.791h-16.934h-12.791c-0.444,0-0.806,0.359-0.806,0.806v7.533v0.001v16.662h-3.653v-30.218h51.433V148.37z M936.365,148.37
		h-34.389v-30.218h6.358c2.294,0,3.919,0.582,4.83,1.729c0.896,1.128,0.923,2.591,0.852,3.397c-2.466,0.219-4.406,2.293-4.406,4.813
		c0,0.445,0.361,0.807,0.807,0.807h8.06c0.004,0,0.007,0,0.012,0c0.445,0,0.806-0.361,0.806-0.807c0-0.049-0.005-0.097-0.013-0.144
		c-0.064-2.196-1.604-4.024-3.656-4.541c0.094-1.071,0.037-2.963-1.188-4.516c-1.229-1.561-3.284-2.353-6.103-2.353h-7.164h-52.238
		v-2.147h57.357h3.718c0.446,0,0.806-0.361,0.806-0.807s-0.359-0.807-0.806-0.807h-2.912v-4.547
		c8.208,0.849,18.136,1.816,29.27,2.785V148.37z M914.447,124.869c1.5,0,2.763,1.029,3.121,2.418h-6.243
		C911.684,125.898,912.947,124.869,914.447,124.869z M960.187,130.645c0.151,0.213,0.396,0.339,0.657,0.339h0.162v12.013h-1.43
		c-0.445,0-0.807,0.36-0.807,0.806s0.361,0.807,0.807,0.807h1.43v3.762h-23.029v-37.214c6.079,0.523,12.5,1.045,19.187,1.546
		c0.034,0.041,0.073,0.079,0.119,0.114c5.858,4.598,12.976,7.545,17.755,9.173h-4.208c-0.445,0-0.807,0.36-0.807,0.806v2.765h-4.075
		c-4.314,0-5.806,4.177-5.865,4.354C959.996,130.16,960.035,130.433,960.187,130.645z M980.576,123.601c0,0,0.001,0,0.002,0h0.001
		h0.027v1.959h-8.972v-1.959H980.576z M1009.65,148.37h-4.885v-10.105h4.885V148.37z M1013.947,148.37h-2.684v-10.911
		c0-0.445-0.361-0.806-0.806-0.806h-6.498c-0.445,0-0.807,0.36-0.807,0.806v10.911h-40.535v-3.762h35.463
		c0.444,0,0.806-0.361,0.806-0.807s-0.361-0.806-0.806-0.806h-35.463v-12.013h51.329V148.37z M1014.753,129.371H962.16
		c0.623-0.953,1.814-2.199,3.787-2.199h4.882h10.584h31.653c1.32,0,2.006,1.276,2.327,2.199H1014.753z M1041.113,148.37h-25.555
		v-17.387h0.88c0.004,0,0.007,0,0.012,0c0.444,0,0.806-0.361,0.806-0.807c0-0.095-0.018-0.186-0.046-0.27
		c-0.154-0.789-1.02-4.348-4.144-4.348h-30.848v-2.765c0-0.445-0.361-0.806-0.806-0.806h-0.739
		c-1.034-0.255-11.836-3.017-20.534-9.067c24.938,1.824,53.288,3.337,80.974,3.604V148.37z M1041.113,112.9l-9.07-9.068h9.07V112.9z
		 M1074.441,107.93v-4.703h16.306v4.703H1074.441z M1074.73,112.38h6.024v15.762h-6.024V112.38z M1046.127,109.625h3.583v7.373
		h-3.583V109.625z M1094.512,148.37h-51.787v-31.829c0.598,0.004,1.194,0.008,1.79,0.011v1.252c0,0.445,0.361,0.807,0.808,0.807
		h5.193c0.445,0,0.807-0.361,0.807-0.807v-1.24c7.373-0.016,14.673-0.125,21.797-0.354v12.738c0,0.445,0.36,0.806,0.806,0.806h6.964
		h0.672h12.951V148.37z M1094.512,128.142h-12.145v-16.567c0-0.445-0.36-0.807-0.807-0.807h-4.161v-1.228h14.153h2.959V128.142z
		 M1145.342,77.284h4.97v8.207h-4.97V77.284z M1093.17,89.755v-2.651h51.366h6.583h7.1v2.651h-62.901H1093.17z M1158.43,91.367
		v4.199h-3.301v-4.199H1158.43z M1153.518,91.367v4.199h-3.305v-4.199H1153.518z M1148.601,91.367v4.199h-3.305v-4.199H1148.601z
		 M1143.683,91.367v4.199h-3.305v-4.199H1143.683z M1138.766,91.367v4.199h-3.305v-4.199H1138.766z M1133.849,91.367v4.199h-3.305
		v-4.199H1133.849z M1128.932,91.367v4.199h-3.305v-4.199H1128.932z M1124.015,91.367v4.199h-3.305v-4.199H1124.015z
		 M1119.098,91.367v4.199h-3.306v-4.199H1119.098z M1114.18,91.367v4.199h-3.305v-4.199H1114.18z M1109.263,91.367v4.199h-3.305
		v-4.199H1109.263z M1104.345,91.367v4.199h-3.305v-4.199H1104.345z M1099.429,91.367v4.199h-3.305v-4.199H1099.429z
		 M1158.436,148.37h-62.312V97.18h62.306v33.476c0,0.017,0.005,0.033,0.006,0.049V148.37z M1208.469,83.282h5.307v2.21h-1.883
		h-3.424V83.282z M1201.551,83.282h5.306v2.21h-5.306V83.282z M1194.633,83.282h5.306v2.21h-5.306V83.282z M1187.715,83.282h5.306
		v2.21h-5.306V83.282z M1180.797,83.282h5.306v2.21h-5.306V83.282z M1173.879,83.282h5.306v2.21h-5.306V83.282z M1166.96,83.282
		h5.306v2.21h-5.306V83.282z M1160.042,83.282h5.307v2.21h-3.423h-1.884V83.282z M1160.042,87.104h1.884h49.967h1.883v2.42h-1.883
		c-0.445,0-0.806,0.361-0.806,0.807s0.36,0.807,0.806,0.807h1.883v2.42h-1.883c-0.445,0-0.806,0.36-0.806,0.807
		c0,0.445,0.36,0.806,0.806,0.806h1.883v2.42h-1.883c-0.445,0-0.806,0.361-0.806,0.806c0,0.445,0.36,0.807,0.806,0.807h1.883v2.421
		h-1.883c-0.445,0-0.806,0.36-0.806,0.806s0.36,0.807,0.806,0.807h1.883v2.42h-1.883c-0.445,0-0.806,0.361-0.806,0.806
		s0.36,0.806,0.806,0.806h1.883v2.42h-1.883c-0.445,0-0.806,0.361-0.806,0.807s0.36,0.806,0.806,0.806h1.883v2.421h-1.883
		c-0.445,0-0.806,0.361-0.806,0.807s0.36,0.806,0.806,0.806h1.883v2.42h-1.883c-0.445,0-0.806,0.361-0.806,0.806
		c0,0.446,0.36,0.807,0.806,0.807h1.883v2.421h-1.883c-0.445,0-0.806,0.36-0.806,0.806s0.36,0.807,0.806,0.807h1.883v2.42h-1.883
		c-0.445,0-0.806,0.36-0.806,0.806c0,0.446,0.36,0.806,0.806,0.806h1.883v2.421h-1.883h-49.967h-1.878v-2.421h1.878
		c0.445,0,0.806-0.359,0.806-0.806c0-0.445-0.36-0.806-0.806-0.806h-1.878v-2.42h1.878c0.445,0,0.806-0.361,0.806-0.807
		s-0.36-0.806-0.806-0.806h-1.878v-2.421h1.878c0.445,0,0.806-0.36,0.806-0.807c0-0.444-0.36-0.806-0.806-0.806h-1.878v-2.42h1.878
		c0.445,0,0.806-0.36,0.806-0.806s-0.36-0.807-0.806-0.807h-1.878v-2.421h1.878c0.445,0,0.806-0.36,0.806-0.806
		s-0.36-0.807-0.806-0.807h-1.878v-2.42h1.878c0.445,0,0.806-0.361,0.806-0.806s-0.36-0.806-0.806-0.806h-1.878v-2.42h1.878
		c0.445,0,0.806-0.361,0.806-0.807s-0.36-0.806-0.806-0.806h-1.878v-2.421h1.878c0.445,0,0.806-0.361,0.806-0.807
		c0-0.444-0.36-0.806-0.806-0.806h-1.878v-2.42h1.878c0.445,0,0.806-0.36,0.806-0.806c0-0.446-0.36-0.807-0.806-0.807h-1.878v-2.42
		h1.878c0.445,0,0.806-0.361,0.806-0.807s-0.36-0.807-0.806-0.807h-1.884V87.104z M1180.502,148.37h-6.986v-5.81
		c0-1.927,1.567-3.493,3.493-3.493s3.493,1.566,3.493,3.493V148.37z M1184.807,148.37h-2.693v-5.81c0-2.815-2.289-5.105-5.104-5.105
		s-5.105,2.29-5.105,5.105v5.81h-2.692v-12.968h13.113l1.235,2.476c0.138,0.273,0.416,0.446,0.722,0.446h0.525V148.37z
		 M1187.588,148.37h-1.169v-10.046h1.169V148.37z M1184.779,136.712l-0.652-1.31h5.538l-0.66,1.31H1184.779z M1200.477,148.37
		h-6.986v-5.81c0-1.927,1.566-3.493,3.492-3.493s3.494,1.566,3.494,3.493V148.37z M1204.781,148.37h-2.692v-5.81
		c0-2.815-2.291-5.105-5.106-5.105c-2.814,0-5.104,2.29-5.104,5.105v5.81h-2.679v-10.046h0.303c0.305,0,0.583-0.172,0.72-0.444
		l1.248-2.478h13.312V148.37z M1213.785,148.37h-7.393v-12.968h4.206c0.445,0,0.806-0.361,0.806-0.807
		c0-0.444-0.36-0.806-0.806-0.806h-19.626h-8.15h-19.777c-0.445,0-0.807,0.361-0.807,0.806c0,0.445,0.361,0.807,0.807,0.807h4.554
		v12.968h-7.551v-16.909h1.878h49.967h1.893V148.37z M1267.356,52.82h7.915l2.663,7.595h-2.355h-8.223V52.82z M1272.89,69.881h1.883
		v2.42h-1.883c-0.445,0-0.806,0.361-0.806,0.807s0.36,0.806,0.806,0.806h1.883v2.421h-1.883c-0.445,0-0.806,0.361-0.806,0.807
		c0,0.444,0.36,0.805,0.806,0.805h1.883v2.421h-1.883c-0.445,0-0.806,0.36-0.806,0.806c0,0.446,0.36,0.807,0.806,0.807h1.883v2.42
		h-1.883c-0.445,0-0.806,0.361-0.806,0.807s0.36,0.807,0.806,0.807h1.883v2.42h-1.883c-0.445,0-0.806,0.36-0.806,0.805
		c0,0.445,0.36,0.807,0.806,0.807h1.883v2.421h-1.883c-0.445,0-0.806,0.36-0.806,0.806s0.36,0.807,0.806,0.807h1.883v2.42h-1.883
		c-0.445,0-0.806,0.361-0.806,0.806c0,0.445,0.36,0.806,0.806,0.806h1.883v2.422h-1.883c-0.445,0-0.806,0.361-0.806,0.806
		s0.36,0.806,0.806,0.806h1.883v2.42h-1.883c-0.445,0-0.806,0.361-0.806,0.807s0.36,0.806,0.806,0.806h1.883v3.468l-14.256-2.756
		v-3.433c0-0.445-0.362-0.806-0.807-0.806h-23.609c-0.444,0-0.806,0.36-0.806,0.806v3.983l-14.256,2.379v-3.642h1.883
		c0.445,0,0.806-0.36,0.806-0.806s-0.36-0.807-0.806-0.807h-1.883v-2.42h1.883c0.445,0,0.806-0.361,0.806-0.806
		s-0.36-0.806-0.806-0.806h-1.883v-2.422h1.883c0.445,0,0.806-0.36,0.806-0.806c0-0.444-0.36-0.806-0.806-0.806h-1.883v-2.42h1.883
		c0.445,0,0.806-0.361,0.806-0.807s-0.36-0.806-0.806-0.806h-1.883v-2.421h1.883c0.445,0,0.806-0.361,0.806-0.807
		c0-0.444-0.36-0.805-0.806-0.805h-1.883v-2.42h1.883c0.445,0,0.806-0.361,0.806-0.807s-0.36-0.807-0.806-0.807h-1.883v-2.42h1.883
		c0.445,0,0.806-0.36,0.806-0.807c0-0.445-0.36-0.806-0.806-0.806h-1.883v-2.421h1.883c0.445,0,0.806-0.36,0.806-0.805
		c0-0.445-0.36-0.807-0.806-0.807h-1.883v-2.421h1.883c0.445,0,0.806-0.36,0.806-0.806s-0.36-0.807-0.806-0.807h-1.883v-2.42h1.883
		c0.445,0,0.806-0.361,0.806-0.806c0-0.445-0.36-0.806-0.806-0.806h-1.883v-2.422h1.883h49.968h1.883v2.422h-1.883
		c-0.445,0-0.806,0.36-0.806,0.806C1272.084,69.52,1272.444,69.881,1272.89,69.881z M1221.039,64.236v-2.209h5.306v2.209h-3.423
		H1221.039z M1234.875,64.236v-2.209h5.306v2.209H1234.875z M1255.63,64.236v-2.209h5.306v2.209H1255.63z M1262.548,64.236v-2.209
		h5.306v2.209H1262.548z M1272.89,64.236h-3.423v-2.209h5.306v2.209H1272.89z M1254.303,47.025l5.721-4.268l5.722,4.268v13.386
		h-11.442V47.025z M1254.018,62.027v2.209h-5.306v-2.209H1254.018z M1243.122,52.82h9.569v7.595h-9.569V52.82z M1241.794,62.027
		h5.306v2.209h-5.306V62.027z M1230.067,47.025l5.722-4.268l5.72,4.268v13.386h-11.441V47.025z M1233.263,62.027v2.209h-5.306
		v-2.209H1233.263z M1217.877,60.415l2.663-7.595h7.916v7.595h-8.224H1217.877z M1250.302,148.37h-4.791v-10.639h4.791V148.37z
		 M1280.415,148.37h-28.501v-11.444c0-0.445-0.361-0.806-0.807-0.806h-6.402c-0.445,0-0.807,0.36-0.807,0.806v11.444h-28.502
		v-35.981l20.838-3.475c0.389-0.064,0.672-0.4,0.672-0.795v-3.861h21.998v3.293c0,0.387,0.273,0.719,0.653,0.791l20.857,4.029
		V148.37z M1282.029,103.92h7.887v6.089h-7.887V103.92z M1294.05,148.37h-6.953v-13.737h6.953V148.37z M1320.4,148.37h-24.738
		v-14.543c0-0.445-0.361-0.806-0.808-0.806h-8.563c-0.445,0-0.807,0.36-0.807,0.806v14.543h-3.455v-34.062h38.371V148.37z
		 M1320.4,112.697h-38.371v-1.076h38.371V112.697z M1291.527,110.009v-6.089h1.933v6.089H1291.527z M1295.072,110.009v-6.089h12.493
		v6.089H1295.072z M1309.177,110.009v-6.089h1.727v6.089H1309.177z M1320.4,110.009h-7.885v-6.089h7.885V110.009z M1320.4,102.309
		h-38.371v-1.347h38.371V102.309z M1320.4,99.35h-38.371V82.559h38.371V99.35z"/>
</g>
</svg>
