<?xml version="1.0" encoding="utf-8"?>
<!-- Generator: Adobe Illustrator 16.0.0, SVG Export Plug-In . SVG Version: 6.00 Build 0)  -->
<!DOCTYPE svg PUBLIC "-//W3C//DTD SVG 1.1//EN" "http://www.w3.org/Graphics/SVG/1.1/DTD/svg11.dtd">
<svg version="1.1" id="Layer_1" xmlns="http://www.w3.org/2000/svg" xmlns:xlink="http://www.w3.org/1999/xlink" x="0px" y="0px"
	 width="70px" height="70px" viewBox="0 0 70 70" enable-background="new 0 0 70 70" xml:space="preserve">
<g>
	<path fill="#F7F8F8" d="M35,0C15.67,0,0,15.67,0,35s15.67,35,35,35c19.331,0,35-15.67,35-35S54.331,0,35,0z M35,68.488
		c-16.345,0-29.947-11.715-32.89-27.203h4.256c0.37,0,0.671-0.299,0.671-0.67s-0.301-0.672-0.671-0.672H1.879
		c-0.117-0.789-0.199-1.592-0.26-2.4h10.075c0.37,0,0.67-0.301,0.67-0.672c0-0.369-0.301-0.67-0.67-0.67H1.543
		C1.53,35.803,1.513,35.402,1.513,35c0-1.681,0.126-3.33,0.366-4.943h8.21c0.37,0,0.671-0.301,0.671-0.671
		c0-0.371-0.301-0.67-0.671-0.67H2.11C5.053,13.227,18.655,1.513,35,1.513c18.496,0,33.488,14.993,33.488,33.487
		S53.496,68.488,35,68.488z"/>
	<path fill="#F7F8F8" d="M56.516,25.392H26.368c-0.37,0-0.67,0.3-0.67,0.671v17.875c0,0.371,0.301,0.672,0.67,0.672h30.148
		c0.37,0,0.67-0.301,0.67-0.672V26.062C57.187,25.691,56.886,25.392,56.516,25.392z M41.833,37.758
		c-0.211,0.209-0.534,0.246-0.823-0.037L28.083,26.733h26.717L41.833,37.758z M35.742,35l-8.703,7.398V27.604L35.742,35z
		 M36.777,35.879l3.325,2.826c0.357,0.359,0.834,0.557,1.341,0.557c0.506,0,0.983-0.197,1.299-0.521l3.366-2.86l8.692,7.388H28.084
		L36.777,35.879z M47.144,35l8.702-7.396v14.793L47.144,35z"/>
	<path fill="#F7F8F8" d="M21.315,32.519H4.793c-0.37,0-0.67,0.3-0.67,0.671s0.301,0.671,0.67,0.671h16.521
		c0.37,0,0.67-0.3,0.67-0.671S21.685,32.519,21.315,32.519z"/>
	<path fill="#F7F8F8" d="M19.157,39.943h-9.048c-0.37,0-0.67,0.301-0.67,0.672s0.301,0.67,0.67,0.67h9.048
		c0.37,0,0.67-0.299,0.67-0.67S19.526,39.943,19.157,39.943z"/>
	<path fill="#F7F8F8" d="M13.832,30.057h4.211c0.37,0,0.67-0.301,0.67-0.671c0-0.371-0.301-0.67-0.67-0.67h-4.211
		c-0.37,0-0.67,0.299-0.67,0.67C13.161,29.756,13.462,30.057,13.832,30.057z"/>
</g>
</svg>
