<?xml version="1.0" encoding="utf-8"?>
<!-- Generator: Adobe Illustrator 16.0.0, SVG Export Plug-In . SVG Version: 6.00 Build 0)  -->
<!DOCTYPE svg PUBLIC "-//W3C//DTD SVG 1.1//EN" "http://www.w3.org/Graphics/SVG/1.1/DTD/svg11.dtd">
<svg version="1.1" id="Layer_1" xmlns="http://www.w3.org/2000/svg" xmlns:xlink="http://www.w3.org/1999/xlink" x="0px" y="0px"
	 width="70px" height="70px" viewBox="0 0 70 70" enable-background="new 0 0 70 70" xml:space="preserve">
<g>
	<path fill="#D71F26" d="M35,0C15.67,0,0,15.671,0,35s15.67,35,35,35s35-15.671,35-35S54.33,0,35,0z M65.644,35.66v0.011
		c0.011,0,0.062,0,0.176,0c0.037,0.001,0.109,0.01,0.1,0h2.551c-0.035,1.771-0.208,3.508-0.507,5.201l-5.63-1.119
		c-0.358-0.071-0.717,0.162-0.789,0.526c-0.008,0.045-0.013,0.088-0.013,0.132c0,0.312,0.221,0.593,0.54,0.656l5.635,1.12
		c-0.377,1.723-0.888,3.396-1.519,5.007l-1.185-0.49c-0.012-0.007-0.025-0.011-0.039-0.015c-0.012-0.007-0.024-0.012-0.037-0.018
		c-0.001-0.001-0.004-0.001-0.004-0.002l-1.08-0.446c-0.006-0.004-0.014-0.006-0.021-0.009c-0.066-0.027-0.121-0.05-0.167-0.068
		l-0.092-0.039l-0.001,0.001c-0.14-0.055-0.168-0.055-0.261-0.055c-0.319,0-0.595,0.227-0.657,0.541
		c-0.021,0.104-0.038,0.188-0.038,0.262c0,0.174,0.094,0.289,0.453,0.47l-0.008,0.021l0.26,0.107
		c0.027,0.012,0.055,0.021,0.085,0.029c0.253,0.111,0.584,0.248,1.014,0.427c0.009,0,0.002,0.001,0.002,0.001h0.002l0.076,0.031
		c0.001,0,0.001,0.001,0.002,0.001l1.185,0.491c-0.704,1.605-1.532,3.144-2.469,4.604l-4.773-3.187
		c-0.309-0.208-0.725-0.124-0.929,0.184c-0.077,0.114-0.113,0.243-0.113,0.371c0,0.218,0.104,0.43,0.298,0.56l4.773,3.188
		c-1.002,1.434-2.113,2.785-3.322,4.042l-0.924-0.925c-0.002-0.003-0.005-0.005-0.007-0.007c-0.001-0.003-0.003-0.004-0.004-0.005
		s-0.002-0.002-0.003-0.004c-0.004-0.003-0.008-0.007-0.012-0.011c-0.004-0.004-0.007-0.007-0.011-0.011
		c-0.012-0.012-0.023-0.023-0.035-0.035c-0.346-0.346-0.59-0.589-0.766-0.761c-0.014-0.015-0.027-0.031-0.042-0.046l-0.091-0.09
		c-0.092-0.144-0.238-0.25-0.409-0.291c-0.062-0.02-0.119-0.02-0.188-0.018c-0.146,0.002-0.283,0.052-0.394,0.137
		c-0.093,0.069-0.169,0.165-0.215,0.277c-0.08,0.191-0.071,0.347-0.011,0.485c0.003,0.008,0.006,0.017,0.011,0.024v0.002
		c0,0.001,0,0.001,0,0.001l0,0v0.001c0.032,0.076,0.078,0.147,0.137,0.208v0.001l0.001,0.001l0,0h0.001c0,0.001,0,0.001,0,0.001
		c0.001,0.001,0.001,0.001,0.001,0.001l0,0c0.001,0,0.001,0,0.001,0.002c0,0,0,0,0.001,0.001l0,0h0.001v0.001l0.001,0.001l0,0
		c0.001,0,0.001,0,0.001,0.001s0.001,0.001,0.001,0.001s0,0,0.001,0v0.001c0,0.001,0.001,0.001,0.001,0.001s0,0,0.001,0l0.118,0.119
		c0.026,0.026,0.052,0.053,0.08,0.08c0.005,0.006,0.012,0.012,0.018,0.017l0.826,0.824c0.003,0.004,0.006,0.007,0.009,0.01
		c0.003,0.002,0.005,0.007,0.008,0.009l0.004,0.004c0.001,0.001,0.001,0.002,0.002,0.002c0.001,0.002,0.002,0.002,0.003,0.004
		l0.002,0.003l0.001-0.003l0.001,0.002c0.002,0.003,0.004,0.005,0.006,0.007c0.007,0.009,0.015,0.016,0.023,0.023l0.9,0.9
		c-1.256,1.207-2.604,2.318-4.037,3.318l-3.188-4.772c-0.205-0.308-0.618-0.391-0.931-0.186c-0.193,0.129-0.297,0.343-0.297,0.559
		c0,0.128,0.037,0.258,0.113,0.371l3.188,4.773c-1.463,0.938-3.003,1.767-4.61,2.471l-0.46-1.11c-0.017-0.111-0.061-0.213-0.125-0.3
		c-0.155-0.375-0.273-0.66-0.369-0.877c-0.007-0.026-0.016-0.052-0.026-0.077l-0.044-0.106c-0.026-0.178-0.123-0.333-0.259-0.437
		c-0.161-0.207-0.297-0.178-0.562-0.123c-0.078,0.017-0.15,0.046-0.215,0.086c-0.081,0.051-0.152,0.116-0.207,0.199
		c-0.078,0.115-0.111,0.217-0.115,0.321c-0.002,0.033,0,0.066,0.004,0.101c0.001,0.019,0.003,0.036,0.006,0.054c0,0,0,0.001,0,0.002
		l0,0c0.009,0.051,0.022,0.099,0.041,0.147c0,0.002,0.001,0.002,0.001,0.002c0,0.001,0.001,0.002,0.001,0.002
		s-0.001,0.002,0.001,0.002v0.001c0,0,0,0.001,0.001,0.002l0.059,0.143c0.009,0.022,0.019,0.045,0.028,0.069
		c0.006,0.016,0.013,0.03,0.02,0.047c0.002,0.008,0.005,0.015,0.009,0.022l0.445,1.076c0.003,0.008,0.006,0.016,0.01,0.023
		c0.001,0.003,0.003,0.008,0.004,0.012c0.004,0.011,0.008,0.022,0.014,0.032c0,0.001,0.001,0.004,0.002,0.006
		c0,0,0,0.001,0.001,0.002L46.698,65c0.001,0.002,0.002,0.004,0.002,0.006l0.49,1.183c-1.61,0.631-3.281,1.14-5.001,1.517
		l-1.12-5.635c-0.073-0.363-0.432-0.6-0.789-0.526c-0.319,0.063-0.54,0.344-0.54,0.658c0,0.043,0.004,0.086,0.013,0.13l1.12,5.631
		c-1.694,0.3-3.433,0.473-5.205,0.508V67.2l0,0v-0.757l0,0c0-0.002,0-0.004,0-0.006s0-0.003,0-0.003s0,0,0-0.001s0-0.002,0-0.005
		c0-0.002,0-0.002,0-0.004l0,0c0-0.002,0-0.004,0-0.006c0-0.001,0-0.002,0-0.003v-0.002l0,0c0-0.002,0-0.003,0-0.004
		c0-0.002,0-0.003,0-0.004l0,0c0,0,0,0,0-0.001s0-0.003,0-0.006c0-0.002,0-0.004,0-0.004l0,0c0-0.002,0-0.003,0-0.004
		c0-0.002,0-0.003,0-0.004l-0.001-0.711c0-0.002,0-0.004,0-0.006s0-0.005,0-0.007s0-0.003,0-0.003c0-0.005,0-0.01,0-0.015
		c0.001-0.085-0.014-0.171-0.046-0.255c-0.1-0.257-0.347-0.426-0.623-0.427c-0.001,0-0.001,0-0.001,0h-0.001c0,0,0,0-0.001,0
		c-0.259,0-0.417,0.101-0.515,0.238c-0.068,0.075-0.107,0.151-0.128,0.241c-0.021,0.071-0.03,0.145-0.027,0.218
		c0,0.002,0,0.004,0,0.007c0,0.002,0,0.004,0,0.006s0,0.004,0,0.006v0.062c-0.001,0.054-0.001,0.113-0.001,0.179l0.002,0.467
		c0,0.002,0,0.003,0,0.004v0.004l0,0c0,0.002,0,0.004,0,0.005v0.004v0.001c0,0.002,0,0.004,0,0.005v0.004l0,0
		c-0.001,0.003-0.001,0.005,0,0.007v0.002c0,0.001,0,0.001,0,0.001c-0.001,0.001-0.001,0.003,0,0.005v0.005l0,0
		c0,0.002,0,0.003,0,0.004s0,0.002,0,0.002v0.003c0,0.001,0,0.001,0,0.001l0,0c0,0,0,0.002,0,0.003l-0.001,2.024
		c-1.771-0.035-3.507-0.208-5.2-0.508l1.122-5.631c0.008-0.044,0.012-0.087,0.012-0.13c0-0.314-0.22-0.595-0.54-0.658
		c-0.355-0.073-0.715,0.163-0.789,0.526l-1.124,5.635c-1.721-0.377-3.393-0.887-5.004-1.517l0.489-1.183
		c0.002-0.005,0.004-0.009,0.005-0.014c0.002-0.003,0.003-0.007,0.005-0.011V64.98c0.001-0.003,0.002-0.004,0.002-0.006
		c0.001,0,0.001,0,0.001,0c0-0.002,0.001-0.004,0.001-0.004c0.216-0.521,0.367-0.887,0.467-1.149l0.006,0.003l0.105-0.256
		l-0.018-0.007c0.052-0.158,0.074-0.263,0.074-0.345c0-0.115-0.045-0.184-0.114-0.287c-0.125-0.186-0.333-0.298-0.557-0.298
		c-0.339,0-0.497,0.181-0.618,0.426l-0.005-0.002c-0.004,0.01-0.018,0.043-0.045,0.109c-0.02,0.044-0.039,0.091-0.058,0.138
		c-0.001,0.002-0.002,0.004-0.003,0.006l0,0h0.001c-0.068,0.166-0.176,0.428-0.34,0.824c0,0.001-0.001,0.002-0.001,0.002
		s0,0.001,0,0.002c-0.001,0.001-0.001,0.002-0.002,0.003c0.001,0.003,0,0.004-0.002,0.005c-0.039,0.095-0.082,0.197-0.126,0.307
		c-0.001,0.002-0.001,0.004-0.002,0.006c0,0-0.001,0.001-0.001,0.002c-0.001,0.003-0.001,0.003-0.002,0.005
		c0,0.001-0.001,0.002-0.001,0.003c-0.001,0.003-0.003,0.007-0.004,0.011l-0.001,0.002c-0.001,0.002-0.002,0.004-0.003,0.006
		l-0.001,0.003c0,0.001-0.001,0.003-0.001,0.005l-0.49,1.183c-1.605-0.704-3.144-1.532-4.606-2.47l3.19-4.773
		c0.077-0.114,0.113-0.243,0.113-0.371c0-0.218-0.104-0.43-0.298-0.56c-0.309-0.207-0.726-0.123-0.93,0.185l-3.191,4.774
		c-1.433-1-2.782-2.111-4.039-3.318l0.9-0.899c0-0.001,0.001-0.001,0.001-0.001c0.002-0.003,0.005-0.006,0.007-0.009
		c0.002-0.001,0.004-0.002,0.005-0.004c0.004-0.005,0.008-0.009,0.012-0.013c0.002-0.002,0.004-0.004,0.006-0.007l0,0
		c0.001-0.002,0.003-0.002,0.004-0.004c0.005-0.005,0.01-0.011,0.015-0.016c0.001-0.001,0.001-0.001,0.002-0.001
		c0.003-0.002,0.005-0.006,0.008-0.009c0.002-0.002,0.003-0.003,0.005-0.004c0-0.001,0-0.001,0-0.001
		c0.002-0.001,0.004-0.001,0.004-0.004c0.332-0.333,0.583-0.585,0.769-0.781c0.022-0.017,0.043-0.034,0.062-0.054l0.196-0.196
		l-0.015-0.016c0.181-0.212,0.244-0.333,0.244-0.448c0-0.084-0.034-0.164-0.079-0.272c-0.104-0.251-0.349-0.414-0.619-0.414
		c-0.207,0-0.315,0.056-0.479,0.204l-0.002-0.002c-0.005,0.006-0.028,0.029-0.076,0.077c-0.037,0.036-0.077,0.075-0.121,0.119
		c-0.008,0.008-0.017,0.018-0.024,0.025c-0.12,0.12-0.296,0.298-0.552,0.554c-0.077,0.077-0.16,0.16-0.25,0.251
		c-0.001,0-0.001,0-0.001,0.002c-0.002,0.001-0.003,0.003-0.004,0.004c-0.001,0.001-0.001,0.003-0.002,0.002l-0.002,0.002
		c-0.001,0.001-0.002,0.002-0.003,0.003l-0.002,0.002c-0.003,0.003-0.005,0.006-0.008,0.009l0,0l0,0
		c-0.001,0.002-0.002,0.002-0.003,0.004c-0.004,0.005-0.01,0.009-0.014,0.013c-0.001,0.001-0.001,0.002-0.002,0.002
		c-0.002,0.001-0.002,0.005-0.006,0.007l-0.002,0.002c-0.001,0.002-0.002,0.002-0.004,0.004c-0.002,0.002-0.005,0.006-0.009,0.009
		c0,0-0.001,0.002-0.002,0.002l-0.003,0.002c-0.001,0.002-0.001,0.002-0.002,0.004l-0.003,0.003c0,0-0.001,0.001-0.002,0.002
		l-0.9,0.898c-1.208-1.256-2.317-2.604-3.319-4.038l4.775-3.189c0.194-0.13,0.297-0.343,0.297-0.56c0-0.128-0.037-0.257-0.113-0.371
		c-0.205-0.307-0.619-0.391-0.931-0.184l-4.773,3.189c-0.938-1.463-1.766-3.001-2.47-4.608l1.205-0.499
		c0.007-0.002,0.015-0.006,0.022-0.009l0.001,0.001c0-0.003,0.006-0.004,0.01-0.006c0.002-0.001,0.003-0.001,0.004-0.002h0.001
		c0.003-0.001,0.007-0.003,0.011-0.005v0.001c0.002-0.001,0.003-0.001,0.004-0.002c0.003-0.001,0.005-0.002,0.008-0.004
		c0.001-0.001,0.003-0.002,0.005-0.002s0.003-0.001,0.006-0.003c0.471-0.196,0.822-0.342,1.083-0.46l0.003,0.008l0.255-0.106
		l-0.007-0.02c0.36-0.182,0.456-0.297,0.456-0.471c0-0.074-0.017-0.159-0.038-0.264c-0.063-0.313-0.338-0.539-0.658-0.539
		c-0.094,0-0.123,0-0.266,0.056v-0.001c-0.005,0.002-0.017,0.008-0.037,0.015c-0.056,0.023-0.126,0.053-0.218,0.09l0.001,0.002
		c-0.196,0.081-0.523,0.216-1.048,0.436c-0.004,0.003-0.007,0.004-0.013,0.005c-0.006,0.002-0.013,0.005-0.018,0.008
		c-0.003,0.001-0.007,0.003-0.011,0.004c-0.003,0.002-0.004,0.002-0.007,0.003c-0.002,0.001-0.005,0.002-0.007,0.004
		c-0.002,0-0.002,0.003-0.007,0.003c-0.002,0-0.005,0.002-0.008,0.004L5.052,46.68c0,0.001-0.001,0.001-0.002,0.001l-0.002,0.001
		c-0.001,0.001-0.002,0.001-0.003,0.001c-0.001,0.001-0.003,0.002-0.004,0.002c0.003,0-0.002,0.001-0.004,0.002h0.001
		c-0.007,0.004-0.016,0.007-0.023,0.009c-0.006,0.003-0.013,0.005-0.018,0.009l-1.185,0.489c-0.63-1.612-1.14-3.283-1.518-5.004
		l5.635-1.122c0.319-0.063,0.54-0.344,0.54-0.656c0-0.044-0.004-0.089-0.013-0.133c-0.073-0.363-0.43-0.598-0.789-0.525l-5.63,1.121
		c-0.3-1.695-0.473-3.432-0.507-5.203h1.271c0.496,0,0.881,0,1.181-0.009c0.033,0.005,0.065,0.009,0.099,0.009h0.281
		c0.099-0.026,0.195-0.021,0.282-0.062c0.374-0.074,0.389-0.237,0.394-0.601c0-0.003,0-0.006,0-0.009
		c0-0.069-0.01-0.136-0.031-0.201c-0.032-0.1-0.086-0.192-0.163-0.271c-0.101-0.102-0.187-0.15-0.303-0.176
		c-0.058-0.016-0.143-0.04-0.179-0.023H4.206c-0.045-0.001-0.095-0.003-0.146,0H2.801H1.53c0.036-1.771,0.208-3.51,0.507-5.203
		l5.628,1.119c0.044,0.01,0.088,0.014,0.132,0.014c0.313,0,0.593-0.221,0.657-0.54c0.008-0.044,0.013-0.088,0.013-0.131
		c0.001-0.312-0.22-0.594-0.54-0.656l-5.632-1.121c0.376-1.721,0.886-3.39,1.516-5l1.179,0.488c0.543,0.225,0.899,0.371,1.137,0.468
		l0.3,0.125l0.003-0.007c0.17,0.063,0.203,0.063,0.266,0.063c0.32,0,0.595-0.227,0.657-0.54c0.082-0.409-0.154-0.615-0.415-0.749
		l0.002-0.006c-0.01-0.005-0.045-0.02-0.113-0.047c-0.047-0.021-0.093-0.04-0.137-0.059l-2.366-0.979
		c0.704-1.608,1.533-3.147,2.471-4.612l4.773,3.189c0.114,0.075,0.243,0.112,0.371,0.112c0.217,0,0.43-0.104,0.559-0.299
		c0.076-0.114,0.113-0.243,0.113-0.371c0-0.217-0.104-0.429-0.298-0.56l-4.771-3.187c1-1.432,2.109-2.779,3.315-4.034l0.899,0.897
		c0.238,0.239,0.433,0.435,0.594,0.594l0.507,0.507l0.011-0.012c0.246,0.214,0.315,0.214,0.468,0.214
		c0.271,0,0.516-0.163,0.62-0.413c0.13-0.313,0.024-0.526-0.155-0.733l0.004-0.004c-0.007-0.008-0.036-0.036-0.095-0.095
		c-0.032-0.033-0.067-0.066-0.102-0.102l-1.804-1.803c1.257-1.207,2.608-2.319,4.042-3.32l3.189,4.772
		c0.129,0.193,0.341,0.298,0.558,0.298c0.128,0,0.258-0.036,0.372-0.113c0.194-0.129,0.298-0.342,0.298-0.559
		c0-0.128-0.037-0.257-0.113-0.372L16.96,6.794c1.461-0.937,3-1.765,4.605-2.469l0.49,1.183c0.12,0.289,0.221,0.533,0.308,0.74
		l0.289,0.696l0.021-0.008c0.22,0.432,0.326,0.432,0.602,0.432c0.224,0,0.434-0.112,0.558-0.298c0.151-0.227,0.138-0.4,0.054-0.638
		l0.004-0.001c-0.004-0.01-0.017-0.039-0.041-0.099c-0.02-0.05-0.041-0.101-0.064-0.155l-0.98-2.366
		c1.612-0.631,3.284-1.141,5.006-1.517l1.122,5.633c0.063,0.319,0.343,0.54,0.657,0.54c0.044,0,0.088-0.004,0.132-0.014
		c0.32-0.063,0.54-0.345,0.54-0.656c0-0.044-0.004-0.088-0.012-0.132l-1.12-5.63c1.692-0.299,3.428-0.472,5.198-0.507v1.27
		c0,0.306,0,0.569,0.002,0.798l-0.001,0.756h0.025C34.405,5,34.555,5.035,34.999,5.035c0.502,0,0.628-0.372,0.66-0.682h0.01
		c0-0.014,0-0.056-0.001-0.146c0.002-0.047,0.002-0.09,0.002-0.126l-0.001-2.553c1.772,0.035,3.509,0.208,5.203,0.508l-1.12,5.629
		C39.744,7.71,39.74,7.755,39.74,7.799c0,0.313,0.221,0.592,0.54,0.655c0.044,0.01,0.088,0.014,0.132,0.014
		c0.313,0,0.593-0.221,0.657-0.539l1.121-5.634c1.72,0.377,3.39,0.886,5,1.517l-0.489,1.183c-0.163,0.391-0.288,0.695-0.385,0.937
		l-0.205,0.494l0.018,0.007c-0.129,0.39-0.08,0.463,0.038,0.638c0.125,0.186,0.333,0.298,0.558,0.298
		c0.343,0,0.499-0.183,0.621-0.431l0.004,0.001c0.004-0.01,0.014-0.032,0.03-0.074c0.025-0.056,0.049-0.113,0.073-0.173l0.979-2.367
		c1.606,0.704,3.146,1.533,4.609,2.471l-3.188,4.772c-0.076,0.114-0.113,0.244-0.113,0.372c0,0.216,0.104,0.43,0.298,0.559
		c0.114,0.076,0.243,0.112,0.371,0.112c0.217,0,0.43-0.105,0.559-0.298l3.188-4.772c1.432,1,2.78,2.111,4.036,3.318l-0.899,0.898
		c-0.235,0.235-0.431,0.432-0.594,0.598l-0.5,0.501l0.015,0.016c-0.316,0.369-0.276,0.468-0.17,0.724
		c0.104,0.251,0.348,0.414,0.619,0.414c0.208,0,0.315-0.056,0.481-0.206l0.002,0.001c0.006-0.007,0.022-0.022,0.05-0.052
		c0.043-0.04,0.09-0.088,0.144-0.141l1.802-1.804c1.208,1.256,2.319,2.605,3.321,4.038l-4.773,3.189
		c-0.194,0.129-0.297,0.342-0.297,0.559c0,0.128,0.037,0.256,0.113,0.37c0.129,0.194,0.341,0.299,0.558,0.299
		c0.128,0,0.257-0.037,0.372-0.113l4.771-3.189c0.937,1.463,1.765,3.001,2.47,4.608l-1.182,0.488c-0.2,0.084-0.38,0.158-0.542,0.227
		l-0.899,0.371l0.009,0.022c-0.511,0.259-0.486,0.384-0.418,0.73c0.063,0.313,0.338,0.54,0.658,0.54c0.094,0,0.122,0,0.263-0.055
		l0.001,0.001c0.005-0.003,0.023-0.01,0.057-0.024c0.053-0.021,0.117-0.048,0.199-0.081l2.365-0.981
		c0.631,1.611,1.141,3.283,1.519,5.005l-5.633,1.121c-0.319,0.062-0.54,0.344-0.54,0.656c0,0.043,0.004,0.087,0.013,0.131
		c0.064,0.319,0.344,0.54,0.657,0.54c0.044,0,0.088-0.004,0.132-0.014l5.628-1.119c0.3,1.694,0.472,3.431,0.507,5.203h-1.269
		c-0.245,0-0.464,0-0.658,0h-0.9v0.025c-0.66,0.05-0.679,0.199-0.679,0.646C64.964,35.499,65.335,35.627,65.644,35.66z"/>
	<path fill="#D71F26" d="M41.921,23.133c-0.259-0.266-0.683-0.272-0.948-0.015c-0.266,0.259-0.271,0.684-0.013,0.949l7.965,8.191
		H25.96c-3.774,0-6.844,3.07-6.844,6.845c0,2.303,1.147,4.437,3.069,5.709c0.113,0.075,0.242,0.112,0.369,0.112
		c0.218,0,0.432-0.106,0.561-0.301c0.205-0.31,0.12-0.726-0.189-0.93c-1.545-1.022-2.467-2.738-2.467-4.591
		c0-3.035,2.468-5.503,5.503-5.503h22.964l-7.964,8.193c-0.258,0.265-0.253,0.689,0.013,0.947c0.13,0.128,0.299,0.19,0.468,0.19
		c0.175,0,0.349-0.069,0.48-0.203l8.547-8.793c0.553-0.555,0.553-1.456,0.006-2.006L41.921,23.133z"/>
</g>
</svg>
