<?xml version="1.0" encoding="utf-8"?>
<!-- Generator: Adobe Illustrator 16.0.0, SVG Export Plug-In . SVG Version: 6.00 Build 0)  -->
<!DOCTYPE svg PUBLIC "-//W3C//DTD SVG 1.1//EN" "http://www.w3.org/Graphics/SVG/1.1/DTD/svg11.dtd">
<svg version="1.1" id="Layer_1" xmlns="http://www.w3.org/2000/svg" xmlns:xlink="http://www.w3.org/1999/xlink" x="0px" y="0px"
	 width="85px" height="85px" viewBox="0 0 85 85" enable-background="new 0 0 85 85" xml:space="preserve">
<circle fill="#F7F8F8" cx="42.5" cy="42.5" r="41.016"/>
<g>
	<g>
		<g>
			<path fill="#D71F26" d="M42.501,0C19.028,0,0,19.028,0,42.5S19.028,85,42.501,85S85,65.973,85,42.5S65.974,0,42.501,0z
				 M42.501,82.112C20.625,82.112,2.887,64.38,2.887,42.5c0-21.876,17.738-39.611,39.614-39.611
				c21.877,0,39.608,17.735,39.608,39.611C82.109,64.38,64.378,82.112,42.501,82.112z"/>
		</g>
	</g>
	<g>
		<g>
			<path fill="#D71F26" d="M38.085,47.423H46.9c0.244-0.111,0.417-0.356,0.417-0.642V34.934c0-1.936-0.633-4.243-1.305-6.687
				c-0.839-3.052-1.79-6.512-1.843-10.3l-0.004-0.352h-3.349l-0.004,0.352c-0.049,3.789-1,7.25-1.839,10.302
				c-0.671,2.443-1.307,4.749-1.307,6.685v11.848C37.666,47.067,37.838,47.312,38.085,47.423z"/>
		</g>
		<g>
			<polygon fill="#D71F26" points="36.656,62.108 42.502,67.157 48.345,62.108 42.502,57.062 			"/>
		</g>
		<g>
			<polygon fill="#D71F26" points="49.235,63.858 43.957,68.414 50.645,74.185 			"/>
		</g>
		<g>
			<path fill="#D71F26" d="M42.502,54.551l4.889-4.225l-0.136-1.002h-0.081c-0.183,0.043-0.368,0.066-0.565,0.066h-8.234
				c-0.194,0-0.384-0.023-0.567-0.066h-0.079l-0.135,0.987L42.502,54.551z"/>
		</g>
		<g>
			<path fill="#D71F26" d="M51.341,79.281l-0.308-2.243l-8.532-7.367l-8.556,7.385l-0.311,2.286l-0.001,0.003
				c2.847,0.685,5.813,1.058,8.866,1.058c3.049,0,6.01-0.373,8.856-1.056C51.352,79.325,51.343,79.304,51.341,79.281z"/>
		</g>
		<g>
			<polygon fill="#D71F26" points="34.335,74.208 41.046,68.414 35.748,63.841 			"/>
		</g>
		<g>
			<polygon fill="#D71F26" points="43.957,55.804 48.696,59.898 47.699,52.577 			"/>
		</g>
		<g>
			<path fill="#D71F26" d="M42.501,4.6C21.601,4.6,4.599,21.601,4.599,42.5c0,17.176,11.489,31.713,27.184,36.349l4.026-29.524
				h-2.043c-0.524,0-0.95-0.426-0.95-0.95c0-0.526,0.426-0.951,0.95-0.951h2.087c-0.054-0.206-0.089-0.421-0.089-0.642V34.934
				c0-4.723,3.059-10.397,3.145-17.012c-0.532-0.088-0.939-0.547-0.939-1.104c0-0.622,0.503-1.125,1.125-1.125h6.795
				c0.622,0,1.124,0.502,1.124,1.125c0,0.557-0.407,1.016-0.94,1.104c0.089,6.615,3.146,12.289,3.146,17.012v11.848
				c0,0.221-0.033,0.436-0.087,0.642h2.084c0.526,0,0.951,0.425,0.951,0.951c0,0.524-0.425,0.95-0.951,0.95h-2.044l4.029,29.528
				c15.7-4.628,27.199-19.169,27.199-36.353C80.401,21.601,63.398,4.6,42.501,4.6z"/>
		</g>
		<g>
			<polygon fill="#D71F26" points="36.285,59.916 41.046,55.804 37.288,52.561 			"/>
		</g>
	</g>
</g>
<path fill="#D71F26" d="M65.856,85.527c-3.038,0-5.499,2.462-5.499,5.499v7.594h10.997v-7.51v-0.084
	C71.354,87.989,68.893,85.527,65.856,85.527z"/>
</svg>
