<?xml version="1.0" encoding="utf-8"?>
<!-- Generator: Adobe Illustrator 16.0.0, SVG Export Plug-In . SVG Version: 6.00 Build 0)  -->
<!DOCTYPE svg PUBLIC "-//W3C//DTD SVG 1.1//EN" "http://www.w3.org/Graphics/SVG/1.1/DTD/svg11.dtd">
<svg version="1.1" id="Layer_1" xmlns="http://www.w3.org/2000/svg" xmlns:xlink="http://www.w3.org/1999/xlink" x="0px" y="0px"
	 width="13px" height="18px" viewBox="0 0 13 18" enable-background="new 0 0 13 18" xml:space="preserve">
<g>
	<path fill="#D71F26" d="M6.5,1.956c-2.276,0-4.127,1.852-4.127,4.127c0,3.886,2.797,7.571,4.126,9.103
		c1.329-1.536,4.128-5.229,4.128-9.103C10.627,3.808,8.775,1.956,6.5,1.956 M6.5,18l-0.685-0.672
		c-0.221-0.215-5.399-5.362-5.399-11.245C0.416,2.729,3.146,0,6.5,0c3.355,0,6.084,2.729,6.084,6.083
		c0,5.883-5.179,11.03-5.399,11.245L6.5,18z"/>
	<path fill="#D71F26" d="M8.471,6.083c0,1.089-0.883,1.973-1.971,1.973S4.529,7.172,4.529,6.083c0-1.088,0.883-1.97,1.971-1.97
		S8.471,4.995,8.471,6.083"/>
</g>
</svg>
