<?xml version="1.0" encoding="utf-8"?>
<!-- Generator: Adobe Illustrator 16.0.0, SVG Export Plug-In . SVG Version: 6.00 Build 0)  -->
<!DOCTYPE svg PUBLIC "-//W3C//DTD SVG 1.1//EN" "http://www.w3.org/Graphics/SVG/1.1/DTD/svg11.dtd">
<svg version="1.1" id="Layer_1" xmlns="http://www.w3.org/2000/svg" xmlns:xlink="http://www.w3.org/1999/xlink" x="0px" y="0px"
	 width="70px" height="70px" viewBox="0 0 70 70" enable-background="new 0 0 70 70" xml:space="preserve">
<g>
	<path fill="#F7F8F8" d="M35,0C15.67,0,0,15.67,0,35c0,19.329,15.67,35,35,35c19.331,0,35-15.671,35-35C70,15.67,54.331,0,35,0z
		 M27.875,30.52h6.043v6.474h1.341V30.52h11.388c3.865,0,7.009,3.144,7.009,7.009v9.116H31.703v-9.116
		C31.703,34.592,30.174,32.009,27.875,30.52z M30.361,37.528v9.116H16.344v-9.116c0-3.865,3.144-7.009,7.009-7.009
		S30.361,33.663,30.361,37.528z M55.003,61.842v-2.149c0-0.371-0.3-0.671-0.67-0.671c-0.37,0-0.67,0.3-0.67,0.671v3.099
		c-0.613,0.413-1.24,0.805-1.881,1.176v-3.201c0-0.369-0.3-0.67-0.67-0.67c-0.371,0-0.671,0.301-0.671,0.67v3.938
		c-0.617,0.321-1.242,0.629-1.881,0.912v-5.924c0-0.371-0.3-0.671-0.67-0.671c-0.37,0-0.67,0.3-0.67,0.671v6.481
		c-0.619,0.24-1.245,0.468-1.881,0.675v-6.083c0-0.369-0.3-0.67-0.67-0.67c-0.371,0-0.671,0.301-0.671,0.67v6.229
		c0,0.087,0.02,0.167,0.049,0.244c-0.636,0.177-1.279,0.336-1.93,0.477v-8.022c0-0.371-0.3-0.671-0.67-0.671
		c-0.37,0-0.67,0.3-0.67,0.671v8.285c-0.622,0.109-1.249,0.199-1.881,0.272v-7.484c0-0.369-0.3-0.67-0.67-0.67
		c-0.371,0-0.671,0.301-0.671,0.67v7.61c-0.623,0.048-1.25,0.082-1.882,0.095V47.986h19.327V37.528c0-4.604-3.746-8.35-8.35-8.35
		H35.259v-1.814h4.65V23.1h-5.991v6.079H23.353c-4.604,0-8.35,3.746-8.35,8.35v10.458H34.33v20.484
		c-0.631-0.013-1.257-0.047-1.88-0.094v-7.611c0-0.369-0.3-0.67-0.67-0.67c-0.371,0-0.671,0.301-0.671,0.67v7.484
		c-0.632-0.073-1.259-0.163-1.881-0.271v-8.286c0-0.371-0.3-0.671-0.67-0.671c-0.37,0-0.67,0.3-0.67,0.671v8.023
		c-0.651-0.142-1.294-0.3-1.93-0.478c0.03-0.075,0.049-0.157,0.049-0.244v-6.229c0-0.369-0.3-0.67-0.67-0.67
		c-0.371,0-0.671,0.301-0.671,0.67v6.083c-0.636-0.206-1.262-0.432-1.88-0.675v-6.481c0-0.371-0.3-0.671-0.671-0.671
		c-0.37,0-0.67,0.3-0.67,0.671v5.925c-0.639-0.284-1.264-0.592-1.881-0.913v-3.938c0-0.369-0.3-0.67-0.67-0.67
		c-0.371,0-0.671,0.301-0.671,0.67v3.202c-0.641-0.372-1.268-0.764-1.88-1.176v-3.1c0-0.371-0.3-0.671-0.671-0.671
		c-0.37,0-0.67,0.3-0.67,0.671v2.15C6.816,55.741,1.513,45.993,1.513,35c0-5.333,1.252-10.371,3.47-14.845h2.861
		c0.37,0,0.67-0.301,0.67-0.671c0-0.371-0.3-0.671-0.67-0.671h-2.16c0.455-0.822,0.941-1.624,1.462-2.401h10.321
		c0.371,0,0.671-0.301,0.671-0.67c0-0.371-0.3-0.671-0.671-0.671H8.089c0.601-0.811,1.24-1.591,1.91-2.342h19.238
		c0.37,0,0.67-0.301,0.67-0.671c0-0.369-0.3-0.67-0.67-0.67h-17.98c0.89-0.896,1.834-1.736,2.821-2.526
		c0.084,0.038,0.177,0.062,0.276,0.062h3.657c0.371,0,0.67-0.3,0.67-0.67s-0.3-0.671-0.67-0.671h-2.23
		C21.221,3.763,27.846,1.512,35,1.512c7.192,0,13.849,2.275,19.306,6.134h-3.948c-0.371,0-0.67,0.301-0.67,0.671s0.3,0.67,0.67,0.67
		h5.725c0.907,0.737,1.779,1.517,2.604,2.342H43.451c-0.37,0-0.67,0.3-0.67,0.671c0,0.37,0.3,0.671,0.67,0.671H59.95
		c5.307,5.925,8.539,13.749,8.539,22.33C68.488,45.993,63.185,55.739,55.003,61.842z"/>
	<path fill="#F7F8F8" d="M23.355,32.026c-3.038,0-5.499,2.462-5.499,5.499v7.594h10.997v-7.51v-0.084
		C28.853,34.488,26.392,32.026,23.355,32.026z"/>
	<path fill="#F7F8F8" d="M24.93,18.813H11.587c-0.371,0-0.67,0.3-0.67,0.671c0,0.37,0.3,0.671,0.67,0.671H24.93
		c0.371,0,0.671-0.301,0.671-0.671C25.601,19.113,25.3,18.813,24.93,18.813z"/>
	<path fill="#F7F8F8" d="M25.964,7.584h-4.211c-0.37,0-0.67,0.301-0.67,0.671s0.3,0.67,0.67,0.67h4.211
		c0.371,0,0.671-0.3,0.671-0.67S26.335,7.584,25.964,7.584z"/>
	<path fill="#F7F8F8" d="M56.227,15.071h-7.453c-0.37,0-0.67,0.3-0.67,0.671c0,0.369,0.3,0.67,0.67,0.67h7.453
		c0.37,0,0.67-0.301,0.67-0.67C56.897,15.371,56.597,15.071,56.227,15.071z"/>
</g>
</svg>
