<?xml version="1.0" encoding="utf-8"?>
<!-- Generator: Adobe Illustrator 16.0.0, SVG Export Plug-In . SVG Version: 6.00 Build 0)  -->
<!DOCTYPE svg PUBLIC "-//W3C//DTD SVG 1.1//EN" "http://www.w3.org/Graphics/SVG/1.1/DTD/svg11.dtd">
<svg version="1.1" id="Layer_1" xmlns="http://www.w3.org/2000/svg" xmlns:xlink="http://www.w3.org/1999/xlink" x="0px" y="0px"
	 width="140px" height="20px" viewBox="0 0 140 20" enable-background="new 0 0 140 20" xml:space="preserve">
<g>
	<path fill="#19191A" d="M9.318,19.495H4.381V4.685H0.3V0.504h13.098v4.181H9.318V19.495z"/>
	<path fill="#19191A" d="M27.756,7.833v-7.33h4.937v18.991h-4.937v-7.783h-7.128v7.783H15.69V0.504h4.937v7.33H27.756z"/>
	<path fill="#19191A" d="M41.359,4.685v3.174h5.566v4.182h-5.566v3.274h5.869v4.181H36.422V0.504h10.806v4.181H41.359z"/>
	<path fill="#19191A" d="M70.352,5.391c-0.907-0.756-2.065-1.26-3.274-1.26c-0.907,0-2.116,0.529-2.116,1.587
		c0,1.108,1.335,1.536,2.192,1.813l1.259,0.378c2.645,0.781,4.685,2.116,4.685,5.188c0,1.89-0.453,3.829-1.964,5.114
		C69.646,19.471,67.657,20,65.742,20c-2.393,0-4.735-0.807-6.675-2.166l2.116-3.981c1.234,1.085,2.695,1.966,4.383,1.966
		c1.159,0,2.393-0.58,2.393-1.914c0-1.386-1.94-1.864-2.998-2.167c-3.098-0.882-5.139-1.688-5.139-5.365
		C59.823,2.519,62.568,0,66.372,0c1.915,0,4.256,0.604,5.944,1.562L70.352,5.391z"/>
	<path fill="#19191A" d="M75.944,0.504H83.5c4.081,0,6.902,1.889,6.902,6.247c0,4.483-2.418,6.448-6.726,6.448h-2.796v6.297h-4.937
		V0.504z M80.881,9.219h0.832c1.787,0,3.551,0,3.551-2.317c0-2.394-1.638-2.418-3.551-2.418h-0.832V9.219z"/>
	<path fill="#19191A" d="M98.036,19.495H93.1V0.504h4.937V19.495z"/>
	<path fill="#19191A" d="M117.558,19.495h-6.146l-4.661-7.304h-0.05v7.304h-4.937V0.504h7.381c3.753,0,6.599,1.788,6.599,5.843
		c0,2.62-1.462,4.887-4.157,5.365L117.558,19.495z M106.701,9.017h0.479c1.611,0,3.426-0.302,3.426-2.368s-1.814-2.368-3.426-2.368
		h-0.479V9.017z"/>
	<path fill="#19191A" d="M124.334,19.495h-4.937V0.504h4.937V19.495z"/>
	<path fill="#19191A" d="M135.619,19.495h-4.938V4.685h-4.08V0.504h13.098v4.181h-4.08V19.495z"/>
</g>
</svg>
