<?xml version="1.0" encoding="utf-8"?>
<!-- Generator: Adobe Illustrator 16.0.0, SVG Export Plug-In . SVG Version: 6.00 Build 0)  -->
<!DOCTYPE svg PUBLIC "-//W3C//DTD SVG 1.1//EN" "http://www.w3.org/Graphics/SVG/1.1/DTD/svg11.dtd">
<svg version="1.1" id="Layer_1" xmlns="http://www.w3.org/2000/svg" xmlns:xlink="http://www.w3.org/1999/xlink" x="0px" y="0px"
	 width="21px" height="18px" viewBox="0 0 21 18" enable-background="new 0 0 21 18" xml:space="preserve">
<g>
	<path fill="#D71F26" d="M20,15.004H5.004c-0.552,0-1-0.447-1-1s0.448-1,1-1H20c0.553,0,1,0.447,1,1S20.553,15.004,20,15.004"/>
	<path fill="#D71F26" d="M20,9.999H5.004c-0.552,0-1-0.447-1-1s0.448-1,1-1H20c0.553,0,1,0.447,1,1S20.553,9.999,20,9.999"/>
	<path fill="#D71F26" d="M20,4.994H5.004c-0.552,0-1-0.447-1-1s0.448-1,1-1H20c0.553,0,1,0.447,1,1S20.553,4.994,20,4.994"/>
	<path fill="#D71F26" d="M1,15.006c-0.26,0-0.521-0.11-0.711-0.29C0.109,14.525,0,14.266,0,14.006c0-0.271,0.109-0.521,0.289-0.71
		c0.371-0.37,1.051-0.37,1.42,0C1.89,13.476,2,13.734,2,14.006c0,0.26-0.11,0.52-0.291,0.71C1.52,14.896,1.27,15.006,1,15.006"/>
	<path fill="#D71F26" d="M1,9.995c-0.26,0-0.521-0.1-0.701-0.289C0.109,9.516,0,9.256,0,8.995c0-0.26,0.109-0.521,0.289-0.699
		c0.381-0.38,1.051-0.37,1.42-0.011C1.899,8.475,2,8.735,2,8.995c0,0.261-0.101,0.521-0.291,0.711C1.52,9.896,1.27,9.995,1,9.995"/>
	<path fill="#D71F26" d="M1,4.995c-0.26,0-0.521-0.109-0.711-0.3C0.109,4.516,0,4.256,0,3.995c0-0.26,0.109-0.521,0.289-0.71
		c0.381-0.369,1.051-0.369,1.42,0C1.89,3.466,2,3.725,2,3.995c0,0.261-0.11,0.521-0.291,0.711C1.529,4.886,1.27,4.995,1,4.995"/>
</g>
</svg>
