<?xml version="1.0" encoding="utf-8"?>
<!-- Generator: Adobe Illustrator 16.0.0, SVG Export Plug-In . SVG Version: 6.00 Build 0)  -->
<!DOCTYPE svg PUBLIC "-//W3C//DTD SVG 1.1//EN" "http://www.w3.org/Graphics/SVG/1.1/DTD/svg11.dtd">
<svg version="1.1" id="Layer_1" xmlns="http://www.w3.org/2000/svg" xmlns:xlink="http://www.w3.org/1999/xlink" x="0px" y="0px"
	 width="15px" height="15px" viewBox="0 0 15 15" enable-background="new 0 0 15 15" xml:space="preserve">
<g>
	<path fill="#F7F8F8" d="M12.101,7.915C10.762,9.252,8.429,9.253,7.087,7.92C7.085,7.919,7.085,7.917,7.083,7.916
		C7.081,7.914,7.079,7.913,7.077,7.911C6.409,7.243,6.042,6.354,6.042,5.41c0-0.946,0.369-1.834,1.037-2.503
		c0.671-0.67,1.562-1.039,2.512-1.039c0.947,0,1.841,0.369,2.51,1.039c0.67,0.669,1.037,1.557,1.037,2.503
		C13.138,6.355,12.771,7.245,12.101,7.915 M13.414,1.584C12.393,0.563,11.034,0,9.591,0S6.787,0.563,5.768,1.583
		C4.744,2.605,4.182,3.964,4.182,5.41c0,1.129,0.346,2.201,0.982,3.105l-4.89,4.889c-0.364,0.365-0.366,0.956-0.002,1.321
		C0.455,14.909,0.692,15,0.932,15c0.237,0,0.475-0.09,0.656-0.271L6.487,9.83c0.904,0.637,1.973,0.991,3.104,0.991
		c1.443,0,2.802-0.562,3.823-1.583C14.436,8.216,15,6.856,15,5.41C14.998,3.963,14.436,2.605,13.414,1.584"/>
</g>
</svg>
